<svg viewBox="-450 -254.15 555 425.4" width="555" height="425.4" version="1.1" baseProfile="full" xmlns="http://www.w3.org/2000/svg" class="js-draw--autoresize"><style id="js-draw-style-sheet">path{stroke-linecap:round;stroke-linejoin:round;}text{white-space:pre;}</style><g class="js-draw-image-background js-draw-image-background-grid js-draw-image-background-grid-25"><path d="M105,171.25l0-425.4l-555,0l0,425.4l555,0" fill="none"></path><path d="M-450.35,-250l555.7,0m-555.7,25l555.7,0m-555.7,25l555.7,0m-555.7,25l555.7,0m-555.7,25l555.7,0m-555.7,25l555.7,0m-555.7,25l555.7,0m-555.7,25l555.7,0m-555.7,25l555.7,0m-555.7,25l555.7,0m-555.7,25l555.7,0m-555.7,25l555.7,0m-555.7,25l555.7,0m-555.7,25l555.7,0m-555.7,25l555.7,0m-555.7,25l555.7,0m-555.7,25l555.7,0m-555.35-404.5l0,426.1m25-426.1l0,426.1m25-426.1l0,426.1m25-426.1l0,426.1m25-426.1l0,426.1m25-426.1l0,426.1m25-426.1l0,426.1m25-426.1l0,426.1m25-426.1l0,426.1m25-426.1l0,426.1m25-426.1l0,426.1m25-426.1l0,426.1m25-426.1l0,426.1m25-426.1l0,426.1m25-426.1l0,426.1m25-426.1l0,426.1m25-426.1l0,426.1m25-426.1l0,426.1m25-426.1l0,426.1m25-426.1l0,426.1m25-426.1l0,426.1m25-426.1l0,426.1m25-426.1l0,426.1" fill="none" stroke="#80808033" stroke-width=".7"></path></g><path d="M-197,-245l0,415l4,0l0-415l3,0l-5-5l-5,5l3,0" fill="#ffffff"></path><path d="M100,4L-450,4L-450,7L100,8L100,12L105,6L100,0L100,4" fill="#ffffff"></path><path d="M-50.3125,2.625q-1.1875-84.3125 -73.625-127.0625q-73.625-40.375 -147.25,0q-72.4375,42.75 -73.625,127.0625q1.1875,84.3125 73.625,127.0625q73.625,40.375 147.25,0q72.4375-42.75 73.625-127.0625" fill="none" stroke="#ff0000" stroke-width="2.375"></path><path d="M-350,154l4-4l296,0l0-296l-296,0l0,296l-4,4l0-304l304,0l0,304l-304,0" fill="#348034"></path><path d="M-346.857845,4.395075l3.98034,1.4210854715202004e-14l147.27258,147.27258l147.27258-147.27258l-147.27258-147.27258l-147.27258,147.27258l-3.98034-1.4210854715202004e-14l151.25292-151.25292l151.25292,151.25292l-151.25292,151.25292l-151.25292-151.25292" fill="#348034"></path><path d="M-93,-66q25-13 53-16q21-2 25,2q1,1 -7,0" fill="none" stroke="#ffffff" stroke-width="4"></path><path d="M-100,-72q-5,10.9 -4.7,10.5q7.4,1.6 14.3,6.4q-4.3-6.2 -13.4-16.3q-.1-.2 .8,.4" fill="none" stroke="#ffffff" stroke-width="2.9"></path><path d="M-4,-86Q1,-56 2,-55Q2.4,-57.7 2,-62" fill="none" stroke="#ffffff" stroke-width="2.9"></path><path d="M-3,-87Q10.6,-93.7 21.2,-89.9Q28.6,-87.3 22.4,-79.6Q20,-76.6 7,-77.4Q4.6,-79 3,-81" fill="none" stroke="#ffffff" stroke-width="2.4"></path><path d="M32,-69q6.1-.5 11-1" fill="none" stroke="#ffffff" stroke-width="2.6"></path><path d="M32,-59q6.1-1.6 11-3" fill="none" stroke="#ffffff" stroke-width="2.4"></path><path d="M51,-66q10.5-7.9 10.4-6q-1.6,11.6 -3.4,21" fill="none" stroke="#ffffff" stroke-width="2.7"></path><path d="M-79,-172q-21.8,55.8 -18.4,57.3q2.4-2.6 3.9-6.4q2.6-1.9 5.2-2.9q-4.4-.7 -12.3-.6q-3.9,.1 1.6,5.6" fill="none" stroke="#ffffff" stroke-width="2.8"></path><path d="M-73,-201q2.9,13.7 2.4,24.5" fill="none" stroke="#ffffff" stroke-width="2.6"></path><path d="M-75,-199q22.9-2.7 20.4,9.3q-1.1,5.6 -12.9,4.7q-.5-1.4 -.5-3" fill="none" stroke="#ffffff" stroke-width="2.5"></path><path d="M-47,-194q6,.1 11,0" fill="none" stroke="#ffffff" stroke-width="2.3"></path><path d="M-51,-184q6.6,.3 12,0" fill="none" stroke="#ffffff" stroke-width="2.2"></path><path d="M-28,-194q19-6 13,4q-5,7 -10,13q6,0 14-2" fill="none" stroke="#ffffff" stroke-width="3"></path><path d="M-139,-211q3.1,14.1 -4.6,42.3q-2.2,8.3 1,7q7.4-5.8 13-11.5q0-.1 -.8,0q-23.4,1.3 -24.1,2.7q5.4,5.2 13.5,8.5" fill="none" stroke="#ffffff" stroke-width="3"></path><path d="M-169,-235q1.7,10.4 3,19" fill="none" stroke="#ffffff" stroke-width="3"></path><path d="M-168,-237q21.6-7.5 15,3q-4.9,7.9 -10.6,.4" fill="none" stroke="#ffffff" stroke-width="2.5"></path><path d="M-145,-243q5.5,.1 10,0" fill="none" stroke="#ffffff" stroke-width="2.1"></path><path d="M-145,-234q6.1-.4 11-1" fill="none" stroke="#ffffff" stroke-width="2.3"></path><path d="M-122,-237q5-.4 9-1" fill="none" stroke="#ffffff" stroke-width="2.3"></path><path d="M-120,-242q1.1,4.9 2,9" fill="none" stroke="#ffffff" stroke-width="2.3"></path><path d="M-94,-241q-9.2,11.7 -10,1.4q-.6-7.4 8.8-4q5.3,6.1 8.6,12.5q1.9,3.7 6.1-7.6q5.3-14.2 -11.7-5.2q-2.2,2 -3.8,3.9" fill="none" stroke="#ffffff" stroke-width="2.5"></path></svg>