<svg viewBox="-511.1 -92 502.6 442.4" width="502.6" height="442.4" version="1.1" baseProfile="full" xmlns="http://www.w3.org/2000/svg" class="js-draw--autoresize"><style id="js-draw-style-sheet">path{stroke-linecap:round;stroke-linejoin:round;}text{white-space:pre;}</style><g class="js-draw-image-background js-draw-image-background-grid js-draw-image-background-grid-25"><path d="M-8.5,350.4l0-442.4l-502.6,0l0,442.4l502.6,0" fill="none"></path><path d="M-511.45,-75l503.3,0m-503.3,25l503.3,0m-503.3,25l503.3,0m-503.3,25l503.3,0m-503.3,25l503.3,0m-503.3,25l503.3,0m-503.3,25l503.3,0m-503.3,25l503.3,0m-503.3,25l503.3,0m-503.3,25l503.3,0m-503.3,25l503.3,0m-503.3,25l503.3,0m-503.3,25l503.3,0m-503.3,25l503.3,0m-503.3,25l503.3,0m-503.3,25l503.3,0m-503.3,25l503.3,0m-503.3,25l503.3,0m-491.85-442.35l0,443.1m25-443.1l0,443.1m25-443.1l0,443.1m25-443.1l0,443.1m25-443.1l0,443.1m25-443.1l0,443.1m25-443.1l0,443.1m25-443.1l0,443.1m25-443.1l0,443.1m25-443.1l0,443.1m25-443.1l0,443.1m25-443.1l0,443.1m25-443.1l0,443.1m25-443.1l0,443.1m25-443.1l0,443.1m25-443.1l0,443.1m25-443.1l0,443.1m25-443.1l0,443.1m25-443.1l0,443.1m25-443.1l0,443.1" fill="none" stroke="#80808033" stroke-width=".7"></path></g><path d="M-439,-87l1,294l2,0l1-294l3,0l-5-5l-5,5l3,0" fill="#ffffff"></path><path d="M-494,338l57-132l-2-1l-57,132l-3-1l2,5l6-2l-3-1" fill="#ffffff"></path><path d="M-493,91q28.6-19.8 64.6-56.2q42.6-43.2 43.7-44.2q23.1-20.5 81.6-26.3q26.6-2.7 73.2,7.9q28.9,6.5 61.5,25.5q28.9,19.7 52.1,36.6q41.9,30.5 54.4,36.8q51.9,25.9 39.9,17.9q0,0 0-1" fill="none" stroke="#348034" stroke-width="3"></path><path d="M-493,92q.5-4.7 8.5-13.5" fill="none" stroke="#348034" stroke-width="2.2"></path><path d="M-466,65q6.9-5.2 13-9" fill="none" stroke="#348034" stroke-width="2"></path><path d="M-439,53q4.9-2.9 9-5" fill="none" stroke="#348034" stroke-width="2"></path><path d="M-415,43q8.8-1.7 16-3" fill="none" stroke="#348034" stroke-width="2"></path><path d="M-378,36q8.1-1.5 15-2" fill="none" stroke="#348034" stroke-width="2"></path><path d="M-329,29q5.5,.5 10,1" fill="none" stroke="#348034" stroke-width="2"></path><path d="M-267,34q9.4,.5 17,1" fill="none" stroke="#348034" stroke-width="2"></path><path d="M-216,37q11,1 20,2" fill="none" stroke="#348034" stroke-width="2"></path><path d="M-168,44q5.5,1.1 10,2" fill="none" stroke="#348034" stroke-width="2"></path><path d="M-134,53q9.9,.8 18,2" fill="none" stroke="#348034" stroke-width="2"></path><path d="M-90,71q2.2,1.6 4,3" fill="none" stroke="#348034" stroke-width="2"></path><path d="M-55,82q17.4,5.4 17,5" fill="none" stroke="#348034" stroke-width="2"></path><path d="M-27,92q1.6,2.2 3,4" fill="none" stroke="#348034" stroke-width="2"></path><path d="M-492,90q-9.2,.4 -12.9,9.7q-4.7,11.6 13.9,23.6q18.9,12.2 55.6,15.3q55.4,8.8 100.5,17.7q24.9,4.7 80.9,6.7q67,1 74,1q40-2 73-4q6-1 68-17q8-2 15-17q8-16 5-18q0-5 1-10q2-8 -11-10q-1,1 -1,3" fill="none" stroke="#348034" stroke-width="3"></path><path d="M-352,153q-.1-21.5 7.5-63.3q14.5-78.7 14.5-54.7q0,1 13-27q2-7 4-12q7-23 29-31q3-1 4-1q1,1 1,2" fill="none" stroke="#348034" stroke-width="3"></path><path d="M-266,-29q4.5,3.1 8,6" fill="none" stroke="#348034" stroke-width="2.2"></path><path d="M-252,-15q2.6,3.9 5,7" fill="none" stroke="#348034" stroke-width="2"></path><path d="M-242,1Q-239.8,3.8 -238,6" fill="none" stroke="#348034" stroke-width="2.1"></path><path d="M-228,22q.4,.6 2,3" fill="none" stroke="#348034" stroke-width="2"></path><path d="M-316,339l40-134l-2,0l-42,133l-3-2l3,8l8-4l-4-1" fill="#348034"></path><path d="M-459,251q1.4-1.4 1.5-.2q-1,.6 -2.3,.9q.8,0 2.3,.1q-.4-.8 -1.5-1.8" fill="none" stroke="#ffffff" stroke-width="2.6"></path><path d="M-497,267q18.6-20 22-21" fill="none" stroke="#ffffff" stroke-width="2.8"></path><path d="M-493,249q8.3,8.6 12,13" fill="none" stroke="#ffffff" stroke-width="2.2"></path><path d="M-478,259q.8,11.5 5.5,4.9q1.2-1.8 -1.2-2.5q-2.5,1.5 -4.3,3.6" fill="none" stroke="#ffffff" stroke-width="2.2"></path><path d="M-293,258q4.2-8.5 3.8-4.4q-.5,4.8 -3.2,3.2q.7-2 2.5-3.9q-1.2,.8 -3.2,2.4q-.5-1.6 -.4-4q-.2,.2 -.5,.7" fill="none" stroke="#ffffff" stroke-width="2.4"></path><path d="M-282,270q.6,12.6 1,23" fill="none" stroke="#ffffff" stroke-width="2.4"></path><path d="M-282,268q7.7-8.5 16.9-4q7.7,3.8 -1.8,8.2q-6,1.3 -11.1,1.8" fill="none" stroke="#ffffff" stroke-width="2.6"></path><path d="M-272,298q-4.8,11.3 3.4,7.7q5.4-2.4 2.7-7.6q-2.7-5.3 -7.1,4.9" fill="none" stroke="#ffffff" stroke-width="2.4"></path><path d="M-108,248l-347,1l0,2l347,1l0,3l5-5l-5-5l0,3" fill="#348034"></path><path d="M-280,204q3.3-4.2 4.7-.3q1.1,3.3 -3,2.8q-1.2-1.6 -1.7-3.5" fill="none" stroke="#ffffff" stroke-width="2.2"></path><path d="M-271,165q-9.6,8.6 1.6,8.5q6.1,0 12.1-12.6q-5,8.1 -13.7,23.4" fill="none" stroke="#ffffff" stroke-width="2.8"></path><path d="M-257,182q-3.1,10.8 3.7,6.2q5.9-3.9 .4-5.4q-3.5,2.1 -6.1,5.2" fill="none" stroke="#ffffff" stroke-width="2.3"></path><path d="M-86,204l-352,1l0,1l352,2l0,4l5-6l-5-6l0,4" fill="#ffffff"></path><path d="M-326,337q.7-4.4 1-8" fill="none" stroke="#ffffff" stroke-width="1.8"></path><path d="M-325,306q.1-6 0-11" fill="none" stroke="#ffffff" stroke-width="1.6"></path><path d="M-325,281q-.5-5.5 -1-10" fill="none" stroke="#ffffff" stroke-width="1.6"></path><path d="M-326,259q-.9-6.6 -2-12" fill="none" stroke="#ffffff" stroke-width="1.6"></path><path d="M-332,240q-.4-7.2 -1-13" fill="none" stroke="#ffffff" stroke-width="1.6"></path><path d="M-334,216q.1-3.8 0-7" fill="none" stroke="#ffffff" stroke-width="1.6"></path><path d="M-334,191q-.2-.4 -1-2" fill="none" stroke="#ffffff" stroke-width="1.6"></path><path d="M-340,174q-.5-3.9 -1-7" fill="none" stroke="#ffffff" stroke-width="1.6"></path><path d="M-492,336q6.8,1.4 26.2,.7q81-2.5 147.3-4.4q4.1-.2 15.8,3.6q2.2,.8 36.4-2.4q56.7,.3 103.2,2.7q15.5-.6 28.2-1.8q-3,.8 -8.7,1.8q-1.9,.4 14.4-40.4q7.8-19.6 35.2-62.3q19.4-30.4 20.8-41.8q-.3-2 -.8-3.7" fill="none" stroke="#ff0000" stroke-width="2.8"></path><path d="M-442,228q16.1-7.3 29-14" fill="none" stroke="#ff0000" stroke-width="2"></path><path d="M-446,262q8.8-2 36.9-18.1q31-17.8 35.1-13.9" fill="none" stroke="#ff0000" stroke-width="2.1"></path><path d="M-420,302q96.7-68.9 117.4-66.6" fill="none" stroke="#ff0000" stroke-width="2"></path><path d="M-352,303q81.2-49.1 117.4-56.6" fill="none" stroke="#ff0000" stroke-width="2"></path><path d="M-263,298q82.5-60.2 87-56" fill="none" stroke="#ff0000" stroke-width="2.1"></path><path d="M-194,307q46.1-34.8 48-33" fill="none" stroke="#ff0000" stroke-width="2.2"></path><path d="M-129,349q12.9-45.9 16.2-42.4q7.5,22.1 10.1,42.1" fill="none" stroke="#ff0000" stroke-width="2.8"></path><path d="M-126,332q14,0 26,1q0,0 -3-1" fill="none" stroke="#ff0000" stroke-width="4"></path></svg>