<svg viewBox="-456.5 -102 1026.5 489.15" width="1026.5" height="489.15" version="1.1" baseProfile="full" xmlns="http://www.w3.org/2000/svg" class="js-draw--autoresize"><style id="js-draw-style-sheet">path{stroke-linecap:round;stroke-linejoin:round;}text{white-space:pre;}</style><g class="js-draw-image-background js-draw-image-background-grid js-draw-image-background-grid-25"><path d="M570,387.15l0-489.15l-1026.5,0l0,489.15l1026.5,0" fill="none"></path><path d="M-456.85,-100l1027.2,0m-1027.2,25l1027.2,0m-1027.2,25l1027.2,0m-1027.2,25l1027.2,0m-1027.2,25l1027.2,0m-1027.2,25l1027.2,0m-1027.2,25l1027.2,0m-1027.2,25l1027.2,0m-1027.2,25l1027.2,0m-1027.2,25l1027.2,0m-1027.2,25l1027.2,0m-1027.2,25l1027.2,0m-1027.2,25l1027.2,0m-1027.2,25l1027.2,0m-1027.2,25l1027.2,0m-1027.2,25l1027.2,0m-1027.2,25l1027.2,0m-1027.2,25l1027.2,0m-1027.2,25l1027.2,0m-1027.2,25l1027.2,0m-1020.35-477.35l0,489.85m25-489.85l0,489.85m25-489.85l0,489.85m25-489.85l0,489.85m25-489.85l0,489.85m25-489.85l0,489.85m25-489.85l0,489.85m25-489.85l0,489.85m25-489.85l0,489.85m25-489.85l0,489.85m25-489.85l0,489.85m25-489.85l0,489.85m25-489.85l0,489.85m25-489.85l0,489.85m25-489.85l0,489.85m25-489.85l0,489.85m25-489.85l0,489.85m25-489.85l0,489.85m25-489.85l0,489.85m25-489.85l0,489.85m25-489.85l0,489.85m25-489.85l0,489.85m25-489.85l0,489.85m25-489.85l0,489.85m25-489.85l0,489.85m25-489.85l0,489.85m25-489.85l0,489.85m25-489.85l0,489.85m25-489.85l0,489.85m25-489.85l0,489.85m25-489.85l0,489.85m25-489.85l0,489.85m25-489.85l0,489.85m25-489.85l0,489.85m25-489.85l0,489.85m25-489.85l0,489.85m25-489.85l0,489.85m25-489.85l0,489.85m25-489.85l0,489.85m25-489.85l0,489.85m25-489.85l0,489.85" fill="none" stroke="#80808033" stroke-width=".7"></path></g><path d="M-302,-96l1,246l2,0l1-246l3,0l-5-6l-5,6l3,0" fill="#ffffff"></path><path d="M96,148l-396,1l0,2l396,1l0,4l6-6l-6-6l0,4" fill="#ffffff"></path><path d="M-446,348l147-198l-2,0l-148,196l-3-2l1,7l8-1l-3-2" fill="#ffffff"></path><path d="M-149,150l-2,0l-51,99l4,2l49-101" fill="#ffffff"></path><path d="M-374,248l0,2l174,1l0-4l-174,1" fill="#ffffff"></path><path d="M-404,150q327,154 327,154" fill="none" stroke="#ff0000" stroke-width="4"></path><path d="M-199,250q-.6-6.9 3.1-3.5q4.5,4.1 -3.2,4.8q-5.2,.4 -1.4-4.6q3.4-4.5 4,.3q1.1,8.5 -5.5,1.6q1.5-1.2 3.9-2q.8,1.7 1,4q-1.5-1.4 -3.4-4.3q1.2-.9 3.1-1.4q-.1,1.8 -1.1,4.3q-.2-1.6 -.1-4.5q1.1,.7 2.3,2.2q-.3-2.2 -1.6-6.1q.4,1.7 1.2,4.9q-1,.9 -2.3,1.3" fill="none" stroke="#ffffff" stroke-width="2.2"></path><path d="M-206,263q4.6,21.7 6,24" fill="none" stroke="#ffffff" stroke-width="2.4"></path><path d="M-209,262q16.7-6.4 15.5,1.6q-5.8,6.8 -12.5,11.4" fill="none" stroke="#ffffff" stroke-width="2.2"></path><path d="M-189,283q-2.2,16.1 5.6,8.9q5.2-4.9 -.8-8q-2.1,.8 -3.8,2.1" fill="none" stroke="#ffffff" stroke-width="2"></path><path d="M-65,289q8-15 8-14q7,6 14,9q-5,9 -15,16q-9,7 -2,15q2,3 17-7" fill="none" stroke="#ff0000" stroke-width="5"></path><path d="M-198,251q-2.7,6.1 -5,11" fill="none" stroke="#ffffff" stroke-width="1.9"></path><path d="M-212,285q-5.1,9.9 -5,10" fill="none" stroke="#ffffff" stroke-width="1.8"></path><path d="M-231,321q-6.6,11.1 -6,12" fill="none" stroke="#ffffff" stroke-width="1.8"></path><path d="M-244,348q-6.6,14.1 -6,15" fill="none" stroke="#ffffff" stroke-width="1.9"></path><path d="M-227,314q4.6-9.6 5-9" fill="none" stroke="#ffffff" stroke-width="1.8"></path><path d="M-238,359q1.6,4.8 6.2,2.4q3.1-3.1 5.4-6q-2.8,10.8 -10.6,29.6" fill="none" stroke="#ffffff" stroke-width="2.7"></path><path d="M-218,363q7.7,.1 14,0" fill="none" stroke="#ffffff" stroke-width="2.1"></path><path d="M-222,371q8.8-2.1 16-4" fill="none" stroke="#ffffff" stroke-width="1.9"></path><path d="M-197,359q.6,9.9 4.8,7.9q4.9-6.5 7.9-12.9q-3.4,11.4 -10.7,32" fill="none" stroke="#ffffff" stroke-width="2.3"></path><path d="M-183,372q-.6,11.4 5.1,6.6q3.3-2.9 1.7-5.4q-1.9,0 -3.8,.8" fill="none" stroke="#ffffff" stroke-width="1.8"></path><path d="M-180,247q6.6,.3 12,0" fill="none" stroke="#ffffff" stroke-width="1.9"></path><path d="M-153,245q7.1,0 13,0" fill="none" stroke="#ffffff" stroke-width="2.2"></path><path d="M-122,247q3.3,0 6,0" fill="none" stroke="#ffffff" stroke-width="2.2"></path><path d="M-104,248q5.6-1.6 6-1" fill="none" stroke="#ffffff" stroke-width="2.6"></path><path d="M-89,248q15.9-15.2 16-15" fill="none" stroke="#ffffff" stroke-width="2.6"></path><path d="M-91,233q8.8,6.1 16,11" fill="none" stroke="#ffffff" stroke-width="2.3"></path><path d="M-68,237q6.6,0 12,0" fill="none" stroke="#ffffff" stroke-width="2.5"></path><path d="M-70,247q7.2-1.5 13-3" fill="none" stroke="#ffffff" stroke-width="2.3"></path><path d="M-43,246q13.6-19.7 14-19" fill="none" stroke="#ffffff" stroke-width="2.7"></path><path d="M-45,232q6,7.2 11,13" fill="none" stroke="#ffffff" stroke-width="2.2"></path><path d="M-26,243q-3.7,13.7 2.8,10.4q7.7-4 4.6-12.9q-1.2-3.4 -6.3,4.7" fill="none" stroke="#ffffff" stroke-width="2.1"></path><path d="M-273,-19q-77-8 -87-7q-11,1 -21,20q-21,43 -51,48q-3,0 -6-2q-4-1 -10,35q-7,42 28,46q12,2 64-4q101-11 128,3q9,5 16,10q1,0 45-3q49,1 90,5q22,2 82-47q19-15 3-35q-26-30 -101-31q-45,1 -82,1q-21,1 -41-17q-17-8 -32-14q-13-5 -24-9q-5-2 -24,1" fill="none" stroke="#ffffff" stroke-width="3"></path><path d="M-396,16q-1.9,2.2 -1.2,2.1q13.5-1.5 24.5-2.9q21.8,1.5 39.7,4.5q23,3.3 46,5.3q28,3 59,14q37,13 52,26q18,12 32,22q34,21 35,27q4,6 7,12q1,0 2,0" fill="none" stroke="#348034" stroke-width="4"></path><path d="M-136,50q22.3-11.3 69.4-19.4q47.3-8 109.9,2.2" fill="none" stroke="#ffffff" stroke-width="2"></path><path d="M-136,50q11.5-10.6 12.4-8.7q4.1,9.1 1.6,17.2q-7.5-1.7 -15.5-7.4" fill="none" stroke="#ffffff" stroke-width="1.8"></path><path d="M67,27q15-1 28-2q-4,6 -13,13q-10,12 -18,22q6-1 15-5q10-6 19-3q0,0 -3,0" fill="none" stroke="#348034" stroke-width="4"></path><path d="M68,39q24.6,.3 25,1" fill="none" stroke="#348034" stroke-width="2.9"></path><path d="M105,37q6.6,0 12,0" fill="none" stroke="#348034" stroke-width="2.8"></path><path d="M104,48q7.2-.5 13-1" fill="none" stroke="#348034" stroke-width="2.8"></path><path d="M131,55q23-36 23-68q1-17 -10-13q-1,0 -1,33q1,23 -4,71q0,5 3,7q0-3 0-6" fill="none" stroke="#348034" stroke-width="3"></path><path d="M134,30q23,7 33,2" fill="none" stroke="#348034" stroke-width="3"></path><path d="M191,58Q185,53 190,33Q192,21 208,-2" fill="none" stroke="#348034" stroke-width="4"></path><path d="M208,32q9.4-5.5 11.5,3.4q1.7,10.3 2.8,18.8q1.5,11.4 10.5,2.6q6.4-6.2 4.7-29.3q-1.8-2.1 -3.9-3.5q4.4,0 11.4,1q7.9-1.3 14-3" fill="none" stroke="#348034" stroke-width="3"></path><path d="M209,62q11,0 23,1q14,0 20,0" fill="none" stroke="#348034" stroke-width="3"></path><path d="M289,-4Q274,54 280,69Q283,77 294,44" fill="none" stroke="#348034" stroke-width="3"></path><path d="M273,29q12.6,0 23,0" fill="none" stroke="#348034" stroke-width="2.4"></path><path d="M315,43q7,1 13,1" fill="none" stroke="#348034" stroke-width="3"></path><path d="M319,33q.1,13.7 0,25" fill="none" stroke="#348034" stroke-width="2.9"></path><path d="M348,22q1.1,17.7 -2.9,35.2" fill="none" stroke="#348034" stroke-width="2.8"></path><path d="M343,11Q363,8 369,17Q376,26 361,34Q356,36 347,33" fill="none" stroke="#348034" stroke-width="3"></path><path d="M366,54q-3.4,7.8 2.5,11.3q5.3,3.2 9.7-7.2q3.5-8.3 -6.7-7.6q-12,.7 -8.5,6.5" fill="none" stroke="#348034" stroke-width="2.7"></path><path d="M406,-2Q401,-4 403,-1Q426,46 397,73Q394,74 392,75Q393,74 395,72" fill="none" stroke="#348034" stroke-width="3"></path><path d="M427,45q19-3 20-2" fill="none" stroke="#348034" stroke-width="3"></path><path d="M428,53q9.4-1.1 17-2" fill="none" stroke="#348034" stroke-width="2.7"></path><path d="M469,32q-6,25 6,26q8,1 14-21q-1-2 -1-3q-1-1 -1,10q0,21 12,6q10-13 6-22q-1,0 -1,2" fill="none" stroke="#348034" stroke-width="4"></path><path d="M524,56q0-29 8-39" fill="none" stroke="#348034" stroke-width="4"></path><path d="M547,23q-7,50 2,45q4-9 6-17" fill="none" stroke="#348034" stroke-width="3"></path><path d="M535,42q18-5 19-3" fill="none" stroke="#348034" stroke-width="3"></path><path d="M561,26q7,16 5,35q-2,6 -4,11q1,0 1-2" fill="none" stroke="#348034" stroke-width="4"></path></svg>