<svg viewBox="-451 -130 386 386.5" width="386" height="386.5" version="1.1" baseProfile="full" xmlns="http://www.w3.org/2000/svg" class="js-draw--autoresize"><style id="js-draw-style-sheet">path{stroke-linecap:round;stroke-linejoin:round;}text{white-space:pre;}</style><g class="js-draw-image-background js-draw-image-background-grid js-draw-image-background-grid-25"><path d="M-65,256.5l0-386.5l-386,0l0,386.5l386,0" fill="none"></path><path d="M-451.35,-125l386.7,0m-386.7,25l386.7,0m-386.7,25l386.7,0m-386.7,25l386.7,0m-386.7,25l386.7,0m-386.7,25l386.7,0m-386.7,25l386.7,0m-386.7,25l386.7,0m-386.7,25l386.7,0m-386.7,25l386.7,0m-386.7,25l386.7,0m-386.7,25l386.7,0m-386.7,25l386.7,0m-386.7,25l386.7,0m-386.7,25l386.7,0m-386.7,25l386.7,0m-385.35-380.35l0,387.2m25-387.2l0,387.2m25-387.2l0,387.2m25-387.2l0,387.2m25-387.2l0,387.2m25-387.2l0,387.2m25-387.2l0,387.2m25-387.2l0,387.2m25-387.2l0,387.2m25-387.2l0,387.2m25-387.2l0,387.2m25-387.2l0,387.2m25-387.2l0,387.2m25-387.2l0,387.2m25-387.2l0,387.2m25-387.2l0,387.2" fill="none" stroke="#80808033" stroke-width=".7"></path></g><path d="M-65,1L-449,1L-449,199L-451,201L-451,-1L-65,-1L-65,1" fill="#ffffff"></path><path d="M-65,201l-386,0l2-2l384,0l0,2" fill="#ffffff"></path><path d="M-246,2.5Q-246,111.4 -246,200.5" fill="none" stroke="#ffffff" stroke-width="2.7"></path><path d="M-252,-.5Q-252,110.1 -252,200.5" fill="none" stroke="#ffffff" stroke-width="2.6"></path><path d="M-413,49q6-.6 11-1" fill="none" stroke="#348034" stroke-width="2.3"></path><path d="M-345,42q.6,.2 3,1" fill="none" stroke="#348034" stroke-width="2"></path><path d="M-320,48q0,.8 0,4" fill="none" stroke="#348034" stroke-width="2"></path><path d="M-358,91q-23.1,8.9 -25,7" fill="none" stroke="#348034" stroke-width="2"></path><path d="M-396,94q-4.9,1.1 -9,2" fill="none" stroke="#348034" stroke-width="2.5"></path><path d="M-395,84q.6-.2 3-1" fill="none" stroke="#348034" stroke-width="2"></path><path d="M-345,102q-.1,1.1 0,2" fill="none" stroke="#348034" stroke-width="2"></path><path d="M-401,148q-4.4-.2 -8,0" fill="none" stroke="#348034" stroke-width="2.1"></path><path d="M-411,137q.5-1.7 1-3" fill="none" stroke="#348034" stroke-width="2.1"></path><path d="M-363,118q6.6-.1 12,0" fill="none" stroke="#348034" stroke-width="2"></path><path d="M-329,155q0,.6 0,1" fill="none" stroke="#348034" stroke-width="2"></path><path d="M-395,165q1.4,0 7,0" fill="none" stroke="#348034" stroke-width="2"></path><path d="M-304,105q0-.5 0-1" fill="none" stroke="#348034" stroke-width="2.1"></path><path d="M-300,157q-.1,6.6 0,12" fill="none" stroke="#348034" stroke-width="2.1"></path><path d="M-202,195q.3-6.6 1-12" fill="none" stroke="#ffffff" stroke-width="1.8"></path><path d="M-201,156q-1.3-8.8 -2-16" fill="none" stroke="#ffffff" stroke-width="1.8"></path><path d="M-202,123q.9-6.6 2-12" fill="none" stroke="#ffffff" stroke-width="1.6"></path><path d="M-199,82q.5-3.3 1-6" fill="none" stroke="#ffffff" stroke-width="1.6"></path><path d="M-198,51q-.1-8.2 0-15" fill="none" stroke="#ffffff" stroke-width="1.7"></path><path d="M-198,26q-.8-7.1 -1-13" fill="none" stroke="#ffffff" stroke-width="1.7"></path><path d="M-250,221q-25,12 -20,13q14,1 25,1" fill="none" stroke="#348034" stroke-width="4"></path><path d="M-236,208q-1.9-5.5 -1.3-4.3q7.8,17.4 -2.8,36.5q-1.4,2.6 -3.2-.7q-2.3-4.2 4.5-9.9q1.1-.9 6.8,.4" fill="none" stroke="#348034" stroke-width="2.6"></path><path d="M-228,243q20-40 12-44q-5-2 -10,34q-3,22 4,18q3-2 5-4" fill="none" stroke="#348034" stroke-width="3"></path><path d="M-204,233q20.2,3.6 17.8,4.5q-18.8,6.5 -14.8,9.5" fill="none" stroke="#348034" stroke-width="3"></path><path d="M-250,-50q31,0 56,0q-2,0 -6,0" fill="none" stroke="#348034" stroke-width="4"></path><path d="M-201,-57q18,10 16,10q-7,4 -13,7q-1-8 2-20q0,1 1,2" fill="none" stroke="#348034" stroke-width="4"></path><path d="M-214,-87q-10,16 -4,23q6.4-4.2 12-12" fill="none" stroke="#348034" stroke-width="3"></path><path d="M-207,-99q-4,1 -3-1q0,1 -1,3q1-1 1-3q0,0 -2,2" fill="none" stroke="#348034" stroke-width="3"></path><path d="M-223,-114q15-14 16-9q3,13 5,24" fill="none" stroke="#348034" stroke-width="4"></path></svg>