<svg viewBox="-406.45 -69.85 469.95 276.3" width="469.95" height="276.3" version="1.1" baseProfile="full" xmlns="http://www.w3.org/2000/svg" class="js-draw--autoresize"><style id="js-draw-style-sheet">path{stroke-linecap:round;stroke-linejoin:round;}text{white-space:pre;}</style><g class="js-draw-image-background js-draw-image-background-grid js-draw-image-background-grid-25"><path d="M63.5,206.45l0-276.3l-469.95,1.4210854715202004e-14l0,276.3l469.95,0" fill="none"></path><path d="M-406.8,-50l470.65,0m-470.65,25l470.65,0m-470.65,25l470.65,0m-470.65,25l470.65,0m-470.65,25l470.65,0m-470.65,25l470.65,0m-470.65,25l470.65,0m-470.65,25l470.65,0m-470.65,25l470.65,0m-470.65,25l470.65,0m-470.65,25l470.65,0m-463.85-270.2l0,277m25-277l0,277m25-277l0,277m25-277l0,277m25-277l0,277m25-277l0,277m25-277l0,277m25-277l0,277m25-277l0,277m25-277l0,277m25-277l0,277m25-277l0,277m25-277l0,277m25-277l0,277m25-277l0,277m25-277l0,277m25-277l0,277m25-277l0,277m25-277l0,277" fill="none" stroke="#80808033" stroke-width=".7"></path></g><path d="M-342,96q9.6,6 20,6q11.6-1.3 21-3q11.2-2 21,21q2.5,5.9 18,4q13.3-1.7 21,6q11.1,11.1 26,9q21.4-1 39-1q.3,0 21-29q11.2-15.6 -1-40q-8.6-17.2 -54-9q-38.6,7 -64-12q-14.5-10.9 -26-8q-29.8,7.5 -39,35q-4.2,12.6 -2,17q.6,1.1 12,4q.8,.2 4-1" fill="none" stroke="#ffffff" stroke-width="1.4"></path><path d="M-104,104q-.2,.2 -1,1q-2.1,2.1 3,33q1.4,.8 3,1q.4,.1 0-2" fill="none" stroke="#ffffff" stroke-width="1"></path><path d="M-101,102q-4-7 -2-9q18.1-18.1 22,5q2.7,16 -21,16q-.4,0 0,2" fill="none" stroke="#ffffff" stroke-width=".9"></path><path d="M-69,145q-4-7 -4-12q0-21 19-21" fill="none" stroke="#ffffff" stroke-width=".9"></path><path d="M-62,143q4-5 12-9q.2-.1 1,0" fill="none" stroke="#ffffff" stroke-width=".9"></path><path d="M-62,139q5.4,3.9 10,7" fill="none" stroke="#ffffff" stroke-width=".8"></path><path d="M-43,140q-1.3,12.6 -4,14" fill="none" stroke="#ffffff" stroke-width=".8"></path><path d="M-29,127q1,5 4,7q3.9,2.6 15-14q-5.4,9.9 -16,28q-.4,.7 1,4" fill="none" stroke="#ffffff" stroke-width="1"></path><path d="M-4,115Q-2.9,117.2 -2,119Q8,139 -8,147" fill="none" stroke="#ffffff" stroke-width="1"></path><path d="M9,133Q10,131 13,130Q19,128 19,132" fill="none" stroke="#ffffff" stroke-width="1"></path><path d="M5,141Q13,139 15,140" fill="none" stroke="#ffffff" stroke-width=".9"></path><path d="M63,117q-22.3,8.6 -26,16q-2.6,5.1 6,8q.6,.2 13-6" fill="none" stroke="#ffffff" stroke-width="1"></path><path d="M57,147q4-5 5-7q-.4,7.2 -3,20" fill="none" stroke="#ffffff" stroke-width="1"></path><path d="M-248,64q-1-2 -4-2q-.4,0 -2,1" fill="none" stroke="#ffffff" stroke-width=".8"></path><path d="M-260,63q-6,3 -7,3" fill="none" stroke="#ffffff" stroke-width=".8"></path><path d="M-273,68q-9,1 -14,1" fill="none" stroke="#ffffff" stroke-width=".8"></path><path d="M-296,69q-10.7,1.3 -12,2" fill="none" stroke="#ffffff" stroke-width=".8"></path><path d="M-316,70q-1.1,.5 -2,1" fill="none" stroke="#ffffff" stroke-width=".8"></path><path d="M-325,72q-.5-.5 -1-1" fill="none" stroke="#ffffff" stroke-width=".8"></path><path d="M-337,72q.08,.08 0,.08q-.08,0 -.08-.08q0-.08 .08-.08q.08,0 .08,.08" fill="none" stroke="#ffffff" stroke-width=".8"></path><path d="M-375,-46q2,222.6 2,223" fill="none" stroke="#ffffff" stroke-width=".9"></path><path d="M-370,-47q-3-2 -5-2q0,5.9 3,13q3.4,8.2 -5,4q-4.3,.1 -8,1q3.1-1.6 9-4q1.2-.5 5-4q-.7,.7 -2,2" fill="none" stroke="#ffffff" stroke-width=".9"></path><path d="M-371,173q138.6,2.2 252,4" fill="none" stroke="#ffffff" stroke-width=".9"></path><path d="M-122,172q-.4,10.5 -1,19q-.6-7.4 -1-21q0-1.5 7,2q2.5,1.3 -2,8q-2.6,2.3 -5,4" fill="none" stroke="#ffffff" stroke-width="1.1"></path><path d="M-390,-66q0-1.1 0-2q0-1.4 -1,7q-.5,4.5 8-4q-3.6,5.4 -11,15q-.4,.5 0,3" fill="none" stroke="#ffffff" stroke-width=".9"></path><path d="M-130,198q8.8-6.1 16-11" fill="none" stroke="#ffffff" stroke-width="1"></path><path d="M-127,187q0,1.7 0,3q0,3 12,9" fill="none" stroke="#ffffff" stroke-width=".8"></path><path d="M-338,69q-5.5,0 -10,0" fill="none" stroke="#ffffff" stroke-width=".8"></path><path d="M-358,68q-3.3,0 -6,0" fill="none" stroke="#ffffff" stroke-width=".8"></path><path d="M-371,68q-6,0 -7,1" fill="none" stroke="#ffffff" stroke-width=".8"></path><path d="M-401,63q0,7 2,8q5.1,2.6 9-13q.1-.6 -14,23q-1.2,3.2 -2,6" fill="none" stroke="#ffffff" stroke-width=".9"></path><path d="M-391,74q-2,8 0,8q2,0 5-6q.7-1.5 -8-2q-.6,0 -2,2" fill="none" stroke="#ffffff" stroke-width=".8"></path><path d="M-245,60q-1,8 -1,12" fill="none" stroke="#ffffff" stroke-width=".8"></path><path d="M-246,79q0,3.3 0,6" fill="none" stroke="#ffffff" stroke-width=".8"></path><path d="M-246,91q0,1.1 0,2" fill="none" stroke="#ffffff" stroke-width=".8"></path><path d="M-246,101q0,2.2 0,4" fill="none" stroke="#ffffff" stroke-width=".8"></path><path d="M-241,159q.6,2.2 1,4" fill="none" stroke="#ffffff" stroke-width=".8"></path><path d="M-249,111q0,7.2 0,13" fill="none" stroke="#ffffff" stroke-width=".8"></path><path d="M-248,142q0,4 1,5" fill="none" stroke="#ffffff" stroke-width=".8"></path><path d="M-247,157q1,8 1,10" fill="none" stroke="#ffffff" stroke-width=".8"></path><path d="M-255,195q6.5-6.7 12-12" fill="none" stroke="#ffffff" stroke-width="1"></path><path d="M-260,186q10,8 13,11" fill="none" stroke="#ffffff" stroke-width=".8"></path><path d="M-244,195q-1.3,8.9 3,11q2.4-2.4 4-6q-1.2-1.2 -3-2" fill="none" stroke="#ffffff" stroke-width=".9"></path><path d="M-244,64q-2.7-9.3 0-8q1,.5 -2,5q-.6-.7 -1-2q1.7,.5 4,2q-1,1.6 -3,3q-.8,.6 0-5q.5-.1 1,0" fill="none" stroke="#ffffff" stroke-width=".9"></path><path d="M-242,34q4.7,16.3 6,19q4.5-6.3 8-18q.6-2 -12-2" fill="none" stroke="#ffffff" stroke-width="1.2"></path><path d="M-243,28q22.7-2.7 28,0q-2.8-1 -8-3q-.7,1.2 -1,3q.8-1.4 2-4q.4-1 5,2q-2.4,3.2 -7,6" fill="none" stroke="#ffffff" stroke-width="1.2"></path><path d="M-215,30q0,11 0,20q.9-5.9 2-17q.3-2.9 12,1q8.4,2.8 -4,9q-6,3 -8,1" fill="none" stroke="#ffffff" stroke-width="1"></path><path d="M-188,15q1,25 1,39q.5,1.1 1,2" fill="none" stroke="#ffffff" stroke-width="1.1"></path><path d="M-179,45q11.2-8.4 12-10" fill="none" stroke="#ffffff" stroke-width=".9"></path><path d="M-177,36q8,10.7 8,11" fill="none" stroke="#ffffff" stroke-width=".8"></path><path d="M-166,44q-2,4 0,7q2.6-.9 5-3q.5-.5 -3-2" fill="none" stroke="#ffffff" stroke-width=".8"></path><path d="M-157,48q-1.6,5.5 -3,10" fill="none" stroke="#ffffff" stroke-width=".8"></path><path d="M-149,39q-3,5 -2,7q3.6-2.3 7-7q-2.2,8 -8,22" fill="none" stroke="#ffffff" stroke-width=".9"></path><path d="M-142,49q-1,8 2,8q3,0 3-6q-2.2-.1 -5,1" fill="none" stroke="#ffffff" stroke-width=".8"></path><path d="M-181,138q8.3,11 15,20q.6,.9 2-5q-2.1,1.9 -5,6q-.5,.7 4-1" fill="none" stroke="#ffffff" stroke-width="1.1"></path><path d="M-186,161q14.2-1.4 12,3q-1.2,3.8 -2,7q-2.9-2.6 -6-8" fill="none" stroke="#ffffff" stroke-width="1.1"></path><path d="M-194,155q9.4,1.1 17,2q.8,.1 -4-1q2.1-1 6-2q-1.3,1.2 -4,3" fill="none" stroke="#ffffff" stroke-width="1"></path><path d="M-167,164q0,13 -1,11q-5-10 7-16q1-.5 1,8q0,3 -7,3" fill="none" stroke="#ffffff" stroke-width=".9"></path><path d="M-282,114q-21,11.1 -23,15q2.4,.5 6,0q.2,0 1,0q.7,0 -3-2q-1.3,1.6 -2,4" fill="none" stroke="#ffffff" stroke-width="1.1"></path><path d="M-322,134q2.2,10.5 4,19q3-5.2 6-15q.6-2 -9-2" fill="none" stroke="#ffffff" stroke-width="1"></path><path d="M-309,149q0,4.4 0,8q.9-3.8 2-11q2.3-1.4 5-2q-.9,1.7 -3,4" fill="none" stroke="#ffffff" stroke-width=".8"></path><path d="M-320,133q.2,0 1,0q7.5,0 7-1q-2-4 -2-3q0,2.2 0,4q0,.7 2-3q.5-.9 5,1q.9,.4 -3,4" fill="none" stroke="#ffffff" stroke-width="1.1"></path></svg>