<svg viewBox="-429 -263 773 441" width="773" height="441" version="1.1" baseProfile="full" xmlns="http://www.w3.org/2000/svg" class="js-draw--autoresize"><style id="js-draw-style-sheet">path{stroke-linecap:round;stroke-linejoin:round;}text{white-space:pre;}</style><g class="js-draw-image-background js-draw-image-background-grid js-draw-image-background-grid-25"><path d="M344,178l0-441l-773,0l0,441l773,0" fill="none"></path><path d="M-429.35,-250l773.7,0m-773.7,25l773.7,0m-773.7,25l773.7,0m-773.7,25l773.7,0m-773.7,25l773.7,0m-773.7,25l773.7,0m-773.7,25l773.7,0m-773.7,25l773.7,0m-773.7,25l773.7,0m-773.7,25l773.7,0m-773.7,25l773.7,0m-773.7,25l773.7,0m-773.7,25l773.7,0m-773.7,25l773.7,0m-773.7,25l773.7,0m-773.7,25l773.7,0m-773.7,25l773.7,0m-773.7,25l773.7,0m-769.35-438.35l0,441.7m25-441.7l0,441.7m25-441.7l0,441.7m25-441.7l0,441.7m25-441.7l0,441.7m25-441.7l0,441.7m25-441.7l0,441.7m25-441.7l0,441.7m25-441.7l0,441.7m25-441.7l0,441.7m25-441.7l0,441.7m25-441.7l0,441.7m25-441.7l0,441.7m25-441.7l0,441.7m25-441.7l0,441.7m25-441.7l0,441.7m25-441.7l0,441.7m25-441.7l0,441.7m25-441.7l0,441.7m25-441.7l0,441.7m25-441.7l0,441.7m25-441.7l0,441.7m25-441.7l0,441.7m25-441.7l0,441.7m25-441.7l0,441.7m25-441.7l0,441.7m25-441.7l0,441.7m25-441.7l0,441.7m25-441.7l0,441.7m25-441.7l0,441.7m25-441.7l0,441.7" fill="none" stroke="#80808033" stroke-width=".7"></path></g><path d="M344,-260q0,2 -2,2q-2,0 -2-2q0-2 2-2q2,0 2,2" fill="#348034"></path><path d="M344,-260q0,2 -2,2q-2,0 -2-2q0-2 2-2q2,0 2,2" fill="#348034"></path><path d="M341,-261q0,2 -2,2q-2,0 -2-2q0-2 2-2q2,0 2,2" fill="#348034"></path><path d="M-402,-196l1,346l2,0l1-346l5,0l-7-6l-7,6l5,0" fill="#ffffff"></path><text data-highp-transform="matrix(1,0,0,1,-429,-187)" style="transform: matrix(1, 0, 0, 1, -429, -187); font-family: sans-serif; font-size: 22px; fill: rgb(255, 255, 255);">z</text><path d="M145,148l-545,1l0,2l545,1l0,5l7-7l-7-7l0,5" fill="#ffffff"></path><text data-highp-transform="matrix(1,0,0,1,142,178)" style="transform: matrix(1, 0, 0, 1, 142, 178); font-family: sans-serif; font-size: 22px; fill: rgb(255, 255, 255);">x</text><path d="M-346,-9l-2-91l-4,0l-2,91l-9,0l13,13l13-13l-9,0" fill="#348034"></path><text data-highp-transform="matrix(1,0,0,1,-306,-56)" style="transform: matrix(1, 0, 0, 1, -306, -56); font-family: sans-serif; font-size: 22px; fill: rgb(255, 255, 255);">g = -g z</text><path d="M-293,-77l-14,0l0,2l14,0l0,2l3-3l-3-3l0,2" fill="#ffffff"></path><path d="M-245,-79q10.4-9.2 12-6q3.7,5.1 7,9" fill="none" stroke="#ffffff" stroke-width="2.3"></path><path d="M-195,22q8-1 15-2" fill="none" stroke="#348034" stroke-width="4"></path><path d="M-121,8Q-121,7 -119,3" fill="none" stroke="#348034" stroke-width="4"></path><path d="M-99,-49q8-30 8-30" fill="none" stroke="#348034" stroke-width="4"></path><path d="M-115,-96q-26-1 -27,1q3,2 9,2" fill="none" stroke="#348034" stroke-width="4"></path><path d="M-139,-65q-9,6 -16,11" fill="none" stroke="#348034" stroke-width="4"></path><path d="M-141,7Q-141,8 -143,10" fill="none" stroke="#348034" stroke-width="4"></path><path d="M-231,45q-3,1 -5,2" fill="none" stroke="#348034" stroke-width="4"></path><path d="M-270,58q-7,1 -13,2" fill="none" stroke="#348034" stroke-width="4"></path><path d="M-5,56Q-3,59 2,58" fill="none" stroke="#348034" stroke-width="4"></path><path d="M25,-26q-6-15 -10-28" fill="none" stroke="#348034" stroke-width="4"></path><path d="M-18,-63q-8,0 -14,1" fill="none" stroke="#348034" stroke-width="4"></path><path d="M-53,-42q-6,8 -11,15" fill="none" stroke="#348034" stroke-width="4"></path><path d="M-86,33q.4,.4 0,.4q-.4,0 -.4-.4q0-.4 .4-.4q.4,0 .4,.4" fill="none" stroke="#348034" stroke-width="4"></path><path d="M-228,-16q0,0 -2,0" fill="none" stroke="#348034" stroke-width="4"></path></svg>