<svg viewBox="-524.6 -200.5 708.2 417.2" width="708.2" height="417.2" version="1.1" baseProfile="full" xmlns="http://www.w3.org/2000/svg" class="js-draw--autoresize"><style id="js-draw-style-sheet">path{stroke-linecap:round;stroke-linejoin:round;}text{white-space:pre;}</style><g class="js-draw-image-background js-draw-image-background-grid js-draw-image-background-grid-25"><path d="M183.6,216.7l0-417.2l-708.2,0l0,417.2l708.2,0" fill="none"></path><path d="M-524.95,-200l708.9,0m-708.9,25l708.9,0m-708.9,25l708.9,0m-708.9,25l708.9,0m-708.9,25l708.9,0m-708.9,25l708.9,0m-708.9,25l708.9,0m-708.9,25l708.9,0m-708.9,25l708.9,0m-708.9,25l708.9,0m-708.9,25l708.9,0m-708.9,25l708.9,0m-708.9,25l708.9,0m-708.9,25l708.9,0m-708.9,25l708.9,0m-708.9,25l708.9,0m-708.9,25l708.9,0m-683.95-400.85l0,417.9m25-417.9l0,417.9m25-417.9l0,417.9m25-417.9l0,417.9m25-417.9l0,417.9m25-417.9l0,417.9m25-417.9l0,417.9m25-417.9l0,417.9m25-417.9l0,417.9m25-417.9l0,417.9m25-417.9l0,417.9m25-417.9l0,417.9m25-417.9l0,417.9m25-417.9l0,417.9m25-417.9l0,417.9m25-417.9l0,417.9m25-417.9l0,417.9m25-417.9l0,417.9m25-417.9l0,417.9m25-417.9l0,417.9m25-417.9l0,417.9m25-417.9l0,417.9m25-417.9l0,417.9m25-417.9l0,417.9m25-417.9l0,417.9m25-417.9l0,417.9m25-417.9l0,417.9m25-417.9l0,417.9" fill="none" stroke="#80808033" stroke-width=".7"></path></g><path d="M-400,-200q0,220 0,400" fill="none" stroke="#ffffff" stroke-width="1"></path><path d="M-397,204q2.2-20 2-20q-17,0 -21,2q3.7,7.6 12,15" fill="none" stroke="#ffffff" stroke-width="1.5"></path><path d="M-402,-121q557.5-3 558-3" fill="none" stroke="#ffffff" stroke-width="1"></path><path d="M149,-132q-2.2,14.4 -6,22q4.4-6.5 12-19q.1-.2 1,0q6.7,1.3 4,4q-7.9,4.3 -15,7q1.3-1.6 4-4" fill="none" stroke="#ffffff" stroke-width="1.2"></path><path d="M-395,196q15.2,2.5 14,5q-5.3,8.4 -10,15q4.3,0 11-2" fill="none" stroke="#ffffff" stroke-width="1.4"></path><path d="M-394,206q9-1 13-1" fill="none" stroke="#ffffff" stroke-width="1.1"></path><path d="M158,-97q13.7-10.5 25-19" fill="none" stroke="#ffffff" stroke-width="1.2"></path><path d="M165,-115q17.3,11.5 16,14" fill="none" stroke="#ffffff" stroke-width="1"></path><path d="M-486,-116q9.4,0 17,0" fill="none" stroke="#ffffff" stroke-width="1"></path><path d="M-458,-115q7.2-.4 13-1" fill="none" stroke="#ffffff" stroke-width=".9"></path><path d="M-423,-118q16-2.7 17-3" fill="none" stroke="#ffffff" stroke-width=".9"></path><path d="M-523,-134q10.5,.5 19,1q-5.5,6.4 -17,14q-3,2 1,4q8.4,4.2 13-5" fill="none" stroke="#ffffff" stroke-width="1.2"></path><path d="M-520,-126q10-1 14-1" fill="none" stroke="#ffffff" stroke-width=".9"></path><path d="M-509,-118q-1,6 1,8q3,3 11-5q7-7 -6-7q-7,0 -7,8" fill="none" stroke="#ffffff" stroke-width="1"></path><path d="M-450,-50q0,27.5 0,50" fill="none" stroke="#ffffff" stroke-width=".9"></path><path d="M-449,2Q-443,-6 -442,-8Q-441.5,-9 -454,-9Q-457,-9 -449,-1" fill="none" stroke="#ffffff" stroke-width="1.4"></path><path d="M-474,-33q-6.3,3.1 -8,10q-1.9,7.6 6,5q4.1-1.4 8-13q1.3-4 -8-4q1.4,3.2 5,7q6.6,7.1 -8,29q-1.6-1 -3-3q4.8-11.5 14-21q.7-.7 3-4" fill="none" stroke="#ffffff" stroke-width="1.2"></path><path d="M-410,47q19,3 25,3q.4,0 1,2" fill="none" stroke="#ffffff" stroke-width="1.4"></path><path d="M-436,47q12.9,1.2 12,3q-4.9,8.8 -9,16q6,.4 15-2" fill="none" stroke="#ffffff" stroke-width="1.4"></path><path d="M-437,57q9.4,0 17,0" fill="none" stroke="#ffffff" stroke-width="1"></path><path d="M-375,27q0-70.4 0-128" fill="none" stroke="#ffffff" stroke-width="1"></path><path d="M-378,-100q6,0 7,1" fill="none" stroke="#ffffff" stroke-width="1.3"></path><path d="M-377,25q8,0 9-1" fill="none" stroke="#ffffff" stroke-width="1.3"></path><path d="M-371,-61q1.2,25.7 0,28q3-4.1 8-12q1-1.6 1,14q0,5.7 10-1q.6-1 1-2" fill="none" stroke="#ffffff" stroke-width="1.3"></path><path d="M-287,-56q0,1.1 0,2" fill="none" stroke="#338034" stroke-width="1.1"></path><path d="M-192,-49q.5-1.1 1-2" fill="none" stroke="#338034" stroke-width="1.1"></path><path d="M-119,-48q-15.1,25.8 -16,26" fill="none" stroke="#338034" stroke-width="1"></path><path d="M-210,41q-8.8,.3 -16,0" fill="none" stroke="#338034" stroke-width="1"></path><path d="M-268,13q6.2,6.4 12,11" fill="none" stroke="#338034" stroke-width="1.1"></path><path d="M-196,30q10.3,1.6 19,2" fill="none" stroke="#338034" stroke-width="1"></path><path d="M-128,34q-1.1,2.7 -2,5" fill="none" stroke="#338034" stroke-width="1"></path><path d="M-84,41q-.1-1.6 0-3" fill="none" stroke="#338034" stroke-width="1"></path><path d="M-57,-15q-.2-5.5 0-10" fill="none" stroke="#338034" stroke-width="1"></path><path d="M-89,-64q-11.5,.6 -21,1" fill="none" stroke="#338034" stroke-width="1"></path><path d="M-213,-83q-1.1,.5 -2,1" fill="none" stroke="#338034" stroke-width="1.3"></path><path d="M-239,-2Q-239.5,-2.5 -240,-3" fill="none" stroke="#338034" stroke-width="1"></path><path d="M-329,63q0-.5 0-1" fill="none" stroke="#338034" stroke-width="1"></path><path d="M-136,78q.3,3.3 1,6" fill="none" stroke="#338034" stroke-width="1.1"></path><path d="M-159,155q-1.1,0 -2,0" fill="none" stroke="#338034" stroke-width="1"></path><path d="M-287,173q-1.9-5.9 -3-11" fill="none" stroke="#338034" stroke-width="1.2"></path><path d="M-297,132q-7.7-4.9 -14-9" fill="none" stroke="#338034" stroke-width="1.3"></path><path d="M-273,109q23.4,2.7 22,3" fill="none" stroke="#338034" stroke-width="1"></path><path d="M-225,115q53.4,2.8 68.5,16.1" fill="none" stroke="#338034" stroke-width="1"></path><path d="M-98,146q-.6,.5 -1,1" fill="none" stroke="#338034" stroke-width="1"></path><path d="M-40,170q-.5,0 -1,0" fill="none" stroke="#338034" stroke-width="1"></path><path d="M10,171q-.2-22.4 -10.8-31.2q-1.7-1.5 -10.2-4.8" fill="none" stroke="#338034" stroke-width="1"></path><path d="M-48,125q-9.9-.4 -18-1" fill="none" stroke="#338034" stroke-width="1"></path><path d="M-260,175q0-.5 0-1" fill="none" stroke="#338034" stroke-width="1.1"></path><path d="M-212,183q7.7,.6 14,1" fill="none" stroke="#338034" stroke-width="1"></path><path d="M-112,200q.1,.1 0,.1q-.1,0 -.1-.1q0-.1 .1-.1q.1,0 .1,.1" fill="none" stroke="#338034" stroke-width="1"></path></svg>