<svg viewBox="-476.3 -266.35 365.3 332.35" width="365.3" height="332.35" version="1.1" baseProfile="full" xmlns="http://www.w3.org/2000/svg" class="js-draw--autoresize"><style id="js-draw-style-sheet">path{stroke-linecap:round;stroke-linejoin:round;}text{white-space:pre;}</style><g class="js-draw-image-background js-draw-image-background-grid js-draw-image-background-grid-25"><path d="M-111,66l0-332.35l-365.3,0l0,332.35l365.3,0" fill="none"></path><path d="M-476.65,-250l366,0m-366,25l366,0m-366,25l366,0m-366,25l366,0m-366,25l366,0m-366,25l366,0m-366,25l366,0m-366,25l366,0m-366,25l366,0m-366,25l366,0m-366,25l366,0m-366,25l366,0m-366,25l366,0m-364.35-316.7l0,333.05m25-333.05l0,333.05m25-333.05l0,333.05m25-333.05l0,333.05m25-333.05l0,333.05m25-333.05l0,333.05m25-333.05l0,333.05m25-333.05l0,333.05m25-333.05l0,333.05m25-333.05l0,333.05m25-333.05l0,333.05m25-333.05l0,333.05m25-333.05l0,333.05m25-333.05l0,333.05m25-333.05l0,333.05" fill="none" stroke="#80808033" stroke-width=".7"></path></g><path d="M-112,-79q-2-72 -64-110q-63-34 -126,0q-62,38 -64,110q2,72 64,110q63,34 126,0q62-38 64-110" fill="none" stroke="#ffffff" stroke-width="2"></path><path d="M-233,-74q-4-1 -4-3q.9,1.4 2,4q-1.2-1 -3-3q-.1-.1 -1,0q-.4,.1 0-2" fill="none" stroke="#ffffff" stroke-width="2.4"></path><path d="M-234,-76q-4-130 -4-130" fill="none" stroke="#ffffff" stroke-width="2.6"></path><path d="M-217,-126q-4-13 -5-16q1.1,2.1 3,6q9-2.6 18-10q3.2-1.8 6-3" fill="none" stroke="#ffffff" stroke-width="2.4"></path><path d="M-244,-220q-2,11 -1,11q9,0 15,0q1-5 -2-13q-3-1 -7-1" fill="none" stroke="#348034" stroke-width="7"></path><path d="M-380,-85q-5-30 1-45q20-49 51-68q32-20 47-23q16-3 29-5" fill="none" stroke="#348034" stroke-width="6"></path><path d="M-473.1,-197.4l247.8,122.9l.6-1l-247.1-124.5l1.3-2.6l-5.8,2l1.9,5.8l1.3-2.6" fill="#ffffff"></path><path d="M-412.8,-205q2.2,13.9 2.2,19.4q-1.3-5.2 -2.8-14.9q-.7-4.5 5.5-5.6q11.1-2 11.1,5.6q0,2.7 -12.2,2.7q-.4,0 1.7,.6q13.5,3.9 16.6,17.7" fill="none" stroke="#ffffff" stroke-width="1.7"></path><path d="M-236.8,-214.9q-1.1-27.7 -2.2-50.4q2.4,1.9 5.5,6.1q.5,.7 -7.7-1.1q-2.1-.5 1.1-2.2" fill="none" stroke="#ffffff" stroke-width="2.1"></path><path d="M-225.7,-253.1q6.2,8.5 7.7,13.3q.1,.4 2.2-11.1q.2-.9 2.8-3.8q1.9-2.1 -13.8,2.2q-.2,.1 1.1,0" fill="none" stroke="#ffffff" stroke-width="1.8"></path><path d="M-210.8,-245.9q0,2.8 .6,5q.3,2.4 .5,4.4q.1-3.3 0-9.4q0-1.3 6.7,0q2.7,.5 -1.7,6.1q-1.3,1.7 -3.9,1.7" fill="none" stroke="#ffffff" stroke-width="1.7"></path><path d="M-231.3,-212.1q4,31 6.1,31q.8,0 2.8-2.8q2.7-3.7 -5.5,0q1.1,1.4 3.3,2.8" fill="none" stroke="#ffffff" stroke-width="1.7"></path><path d="M-213,-184.4q-1.7-5 -2.2-7.2q1,6.8 3.3,19.4q.1,.6 .6-2.8" fill="none" stroke="#ffffff" stroke-width="1.7"></path><path d="M-214.7,-188.3q-.5-2.2 .6-2.8q3.6-.8 6.6-1.1" fill="none" stroke="#ffffff" stroke-width="1.5"></path><path d="M-214.7,-183.3q6.5-.5 10,.5" fill="none" stroke="#ffffff" stroke-width="1.4"></path><path d="M-219.1,-191.1q-1.7-1.6 0-2.2q8.5-2.3 15.5-3.9q-.7-.8 -2.2-1.6q-.7-.4 0,3.9q.3-1.6 .6-4.5q.1-1.1 3.3,.6q-.7,1.4 -2.2,2.8" fill="none" stroke="#ffffff" stroke-width="1.7"></path><path d="M-194.2,-181.6q-2.4,11.6 .6,7.2q4.3-6.3 .5-8.4q1.4,3.5 5,8.9q1.7,2.5 1.7,12.2q0,3.8 -4.5,.5q-2-1.5 4.5-23.2q.6-2.1 1.1-3.9" fill="none" stroke="#ffffff" stroke-width="1.6"></path></svg>