<svg viewBox="-388 -229 277 295" width="277" height="295" version="1.1" baseProfile="full" xmlns="http://www.w3.org/2000/svg" class="js-draw--autoresize"><style id="js-draw-style-sheet">path{stroke-linecap:round;stroke-linejoin:round;}text{white-space:pre;}</style><g class="js-draw-image-background js-draw-image-background-grid js-draw-image-background-grid-25"><path d="M-111,66l0-295l-277,0l0,295l277,0" fill="none"></path><path d="M-388.35,-225l277.7,0m-277.7,25l277.7,0m-277.7,25l277.7,0m-277.7,25l277.7,0m-277.7,25l277.7,0m-277.7,25l277.7,0m-277.7,25l277.7,0m-277.7,25l277.7,0m-277.7,25l277.7,0m-277.7,25l277.7,0m-277.7,25l277.7,0m-277.7,25l277.7,0m-264.35-279.35l0,295.7m25-295.7l0,295.7m25-295.7l0,295.7m25-295.7l0,295.7m25-295.7l0,295.7m25-295.7l0,295.7m25-295.7l0,295.7m25-295.7l0,295.7m25-295.7l0,295.7m25-295.7l0,295.7m25-295.7l0,295.7" fill="none" stroke="#80808033" stroke-width=".7"></path></g><path d="M-112,-79q-2-72 -64-110q-63-34 -126,0q-62,38 -64,110q2,72 64,110q63,34 126,0q62-38 64-110" fill="none" stroke="#ffffff" stroke-width="2"></path><path d="M-233,-74q-4-1 -4-3q.9,1.4 2,4q-1.2-1 -3-3q-.1-.1 -1,0q-.4,.1 0-2" fill="none" stroke="#ffffff" stroke-width="2.4"></path><path d="M-234,-76q-4-130 -4-130" fill="none" stroke="#ffffff" stroke-width="2.6"></path><path d="M-217,-126q-4-13 -5-16q1.1,2.1 3,6q9-2.6 18-10q3.2-1.8 6-3" fill="none" stroke="#ffffff" stroke-width="2.4"></path><path d="M-244,-220q-2,11 -1,11q9,0 15,0q1-5 -2-13q-3-1 -7-1" fill="none" stroke="#348034" stroke-width="7"></path><path d="M-380,-85q-5-30 1-45q20-49 51-68q32-20 47-23q16-3 29-5" fill="none" stroke="#348034" stroke-width="6"></path></svg>