<svg viewBox="-263.4 -175 359.70761718750003 271.75" width="359.70761718750003" height="271.75" version="1.1" baseProfile="full" xmlns="http://www.w3.org/2000/svg" class="js-draw--autoresize"><style id="js-draw-style-sheet">path{stroke-linecap:round;stroke-linejoin:round;}text{white-space:pre;}</style><g class="js-draw-image-background js-draw-image-background-grid js-draw-image-background-grid-25"><path d="M96.3076171875,96.75l0-271.75l-359.7076171875,0l0,271.75l359.7076171875,0" fill="none"></path><path d="M-263.75,-175l360.4076171875,0m-360.4076171875,25l360.4076171875,0m-360.4076171875,25l360.4076171875,0m-360.4076171875,25l360.4076171875,0m-360.4076171875,25l360.4076171875,0m-360.4076171875,25l360.4076171875,0m-360.4076171875,25l360.4076171875,0m-360.4076171875,25l360.4076171875,0m-360.4076171875,25l360.4076171875,0m-360.4076171875,25l360.4076171875,0m-360.4076171875,25l360.4076171875,0m-346.65761718749997-250.35l0,272.45m25-272.45l0,272.45m25-272.45l0,272.45m25-272.45l0,272.45m25-272.45l0,272.45m25-272.45l0,272.45m25-272.45l0,272.45m25-272.45l0,272.45m25-272.45l0,272.45m25-272.45l0,272.45m25-272.45l0,272.45m25-272.45l0,272.45m25-272.45l0,272.45m25-272.45l0,272.45" fill="none" stroke="#80808033" stroke-width=".7"></path></g><path d="M-183,-124q-19.8-4.2 -39,1q-31.8,8.7 -36,38q-4.6,32.2 21,45q17.6,8.8 20,12q11,14.7 11,42q-.4,24.2 -1,44q-.2,5.5 14-3q9.3-5 17-9q5.8-3 10-24q2.4-29.1 3-53q0-1.5 19-11q25.5-8.5 47-14q18-4.6 18-24q0-19 -2-23q-10.8-21.6 -34-17q-23.6,4.7 -35-1q-18.9-3.4 -35-4q-5.8-.2 -29,0" fill="none" stroke="#ffffff" stroke-width="1.6"></path><path d="M-189,39q0,24.2 0,44" fill="none" stroke="#ffffff" stroke-width="1"></path><path d="M-189,89q7-6 8-8q-4.4-2.4 -11-3q-.5,4 1,9" fill="none" stroke="#ffffff" stroke-width="1.4"></path><path d="M-146,45q5.3,14.5 0,25q-5,10 -17,10q-2.7,0 -8-16q-3.2-9.6 0-8q3,1.5 3,6q-4,2.3 -9,3q2.1-3.5 7-8q.4-.4 0,3" fill="none" stroke="#ffffff" stroke-width="1.4"></path><path d="M-247,68q-1,15 1,19q4.5,9 18,0q13-8.7 13-25q0-1.2 3,5q1,2 -12,2q-1,0 4-3" fill="none" stroke="#ffffff" stroke-width="1.5"></path><path d="M-246,-101q5.5-.6 10-1" fill="none" stroke="#338034" stroke-width="1.4"></path><path d="M-229,-103q3.2-.7 6-1" fill="none" stroke="#338034" stroke-width="1.1"></path><path d="M-217,-104q16.1-.9 15-2" fill="none" stroke="#338034" stroke-width="1"></path><path d="M-191,-109q2.7-.6 5-1" fill="none" stroke="#338034" stroke-width="1"></path><path d="M-183,-111q12.5-4 18.5-.5" fill="none" stroke="#338034" stroke-width="1"></path><path d="M-154,-109q1.6-.1 3,0" fill="none" stroke="#338034" stroke-width="1"></path><path d="M-141,-107q1.1-.6 2-1" fill="none" stroke="#338034" stroke-width="1"></path><path d="M-123,-106q25,5 19-1" fill="none" stroke="#338034" stroke-width="1"></path><path d="M-97,-103q.1,.1 0,.1q-.1,0 -.1-.1q0-.1 .1-.1q.1,0 .1,.1" fill="none" stroke="#338034" stroke-width="1"></path><path d="M-93,-102q4.4,.3 8,1" fill="none" stroke="#338034" stroke-width="1"></path><path d="M-183,-120q3.8-14 3-14" fill="none" stroke="#ffffff" stroke-width="1.4"></path><path d="M-178,-118q5-12.5 5-11" fill="none" stroke="#ffffff" stroke-width="1.2"></path><path d="M-148,-157q6-1 4,0q-24,12 -26,16q-2,4 -1,4q3,0 9-2q-3.5-1.7 -10-3q-.6,2.6 0,6" fill="none" stroke="#ffffff" stroke-width="1.3"></path><text data-highp-transform="matrix(1,0,0,1,-139,-159)" style="transform: matrix(1, 0, 0, 1, -139, -159); font-family: sans-serif; font-size: 22px; fill: rgb(255, 255, 255);">foro per far entrare l'aria</text></svg>