<svg viewBox="-400.5 -100.5 501.95 301" width="501.95" height="301" version="1.1" baseProfile="full" xmlns="http://www.w3.org/2000/svg" class="js-draw--autoresize"><style id="js-draw-style-sheet">path{stroke-linecap:round;stroke-linejoin:round;}text{white-space:pre;}</style><g class="js-draw-image-background js-draw-image-background-grid js-draw-image-background-grid-25"><path d="M101.45,200.5l0-301l-501.95,0l0,301l501.95,0" fill="none"></path><path d="M-400.85,-100l502.65,0m-502.65,25l502.65,0m-502.65,25l502.65,0m-502.65,25l502.65,0m-502.65,25l502.65,0m-502.65,25l502.65,0m-502.65,25l502.65,0m-502.65,25l502.65,0m-502.65,25l502.65,0m-502.65,25l502.65,0m-502.65,25l502.65,0m-502.65,25l502.65,0m-502.65,25l502.65,0m-501.8-300.85l0,301.7m25-301.7l0,301.7m25-301.7l0,301.7m25-301.7l0,301.7m25-301.7l0,301.7m25-301.7l0,301.7m25-301.7l0,301.7m25-301.7l0,301.7m25-301.7l0,301.7m25-301.7l0,301.7m25-301.7l0,301.7m25-301.7l0,301.7m25-301.7l0,301.7m25-301.7l0,301.7m25-301.7l0,301.7m25-301.7l0,301.7m25-301.7l0,301.7m25-301.7l0,301.7m25-301.7l0,301.7m25-301.7l0,301.7m25-301.7l0,301.7" fill="none" stroke="#80808033" stroke-width=".7"></path></g><path d="M-400,-50q0,137.5 0,250" fill="none" stroke="#ffffff" stroke-width="1"></path><path d="M-400,200q275,0 500,0" fill="none" stroke="#ffffff" stroke-width="1"></path><path d="M100,200q0-137.5 0-250" fill="none" stroke="#ffffff" stroke-width="1"></path><path d="M-398,1Q-380.2,-6.4 -365.3,-2.7Q-360.5,-1.5 -323.3,-.5Q-283.3,.6 -280.9,1.6Q-262.5,5.8 -247.1,8.1Q-236.3,9.7 -221.7,4.7Q-215,3.8 -209.3,3.5Q-204.9,1.6 -201.4,-.5Q-200,-1 -199,0" fill="none" stroke="#338034" stroke-width="1.4"></path><path d="M-100,0Q-62.1,-.8 -54.6,1.2Q-14.5,4.5 18.7,4.4Q35.2,4 48.6,3.6Q52.8,4.6 56.2,5.9Q69.1,5.7 79.9,3.5Q99.9,-.5 100.5,-.5" fill="none" stroke="#338034" stroke-width="1.9"></path><path d="M-200,100q0-110 0-200" fill="none" stroke="#ffffff" stroke-width=".9"></path><path d="M-100,100q0-110 0-200" fill="none" stroke="#ffffff" stroke-width=".9"></path><path d="M-200,-100q55,0 100,0" fill="none" stroke="#ffffff" stroke-width="1"></path><path d="M-22,-67q-1,16 -1,21q0,.4 1-2" fill="none" stroke="#ffffff" stroke-width="1.1"></path><path d="M-8,-72Q-9.1,-58.3 -10,-47" fill="none" stroke="#ffffff" stroke-width="1"></path><path d="M-28,-48q15,3 26,3q.9,0 -4,2" fill="none" stroke="#ffffff" stroke-width="1.3"></path><path d="M-28,-44q.2,0 1,0q3.1,5.4 4,12q.2,1.8 14-12" fill="none" stroke="#ffffff" stroke-width="1.3"></path><path d="M-307,-71q0,13.2 0,24" fill="none" stroke="#ffffff" stroke-width="1.2"></path><path d="M-295,-75q-1.5,22 -3,22" fill="none" stroke="#ffffff" stroke-width="1"></path><path d="M-315,-51q22.9-1.4 24-2q.5-.3 0,3" fill="none" stroke="#ffffff" stroke-width="1.2"></path><path d="M-314,-47q3,2 4,5q2,6 2,9q0,6 12-14q1.7-2.8 3-5" fill="none" stroke="#ffffff" stroke-width="1.3"></path><path d="M-157,7Q-156.5,58.2 -156,100Q-155.5,102.8 -155,105" fill="none" stroke="#ffffff" stroke-width="1.4"></path><path d="M-159,-1Q-153,12.1 -154,14Q-160,16.9 -166,18Q-162.1,14.2 -154,9" fill="none" stroke="#ffffff" stroke-width="1.3"></path><path d="M-203,-68q24.9-4.4 29.6-1.1q11.9,8.3 20.8,5.5q9.8-3.1 20.7,0q7.2,2.1 17.4-1.8q4.6-.1 8.5,.4" fill="none" stroke="#338034" stroke-width="1.5"></path><path d="M-80,-61q0,28.6 0,52" fill="none" stroke="#ffffff" stroke-width="1"></path><path d="M-82,-11q4-1 6-1q-2.4,.5 -7,1q-.8,.1 4,0" fill="none" stroke="#ffffff" stroke-width="1.3"></path><path d="M-85,-62q5,1 7,1q-1.7,.9 -5,2q-1,.3 5-1" fill="none" stroke="#ffffff" stroke-width="1.3"></path><path d="M-71,-50q-2.7,17.3 -4,20q3.1-2.6 8-8q1.5,5.6 1,15q2.2-1.5 5-5" fill="none" stroke="#ffffff" stroke-width="1.3"></path><path d="M-276,-78q-1.7,14.8 -3,27" fill="none" stroke="#ffffff" stroke-width="1.3"></path><path d="M-279,-83q11.7-3.5 17,0q10.7,7.1 -3,14q-1.4,.7 -8,0" fill="none" stroke="#ffffff" stroke-width="1.1"></path><path d="M-267,-43q9.1-13 11-13q1.5,6.8 0,15" fill="none" stroke="#ffffff" stroke-width="1"></path><path d="M-269,-48q9-1 14-1" fill="none" stroke="#ffffff" stroke-width="1.1"></path><path d="M-314,25q1.2,20 4,20" fill="none" stroke="#ffffff" stroke-width="1.2"></path><path d="M-301,22q-.5,8.8 -1,16" fill="none" stroke="#ffffff" stroke-width="1.1"></path><path d="M-320,26q16,0 29,0q.6,0 -2,2" fill="none" stroke="#ffffff" stroke-width="1.2"></path><path d="M-320,26q9.6-12 12-12q5.6,5.8 9,13q.5,1.1 1,2" fill="none" stroke="#ffffff" stroke-width="1.1"></path><path d="M-293,46q1,9 1,18" fill="none" stroke="#ffffff" stroke-width="1.1"></path><path d="M-297,42q7.8-6.6 16-5q7.5,1.5 -1,10q-4,4 -12,4" fill="none" stroke="#ffffff" stroke-width="1.1"></path><path d="M-285,69q9.9-1 18-2" fill="none" stroke="#ffffff" stroke-width="1.2"></path><path d="M-279,69q0-7.7 0-14" fill="none" stroke="#ffffff" stroke-width="1.1"></path></svg>