<svg viewBox="-461.65 -50.5 399.55 254.25" width="399.55" height="254.25" version="1.1" baseProfile="full" xmlns="http://www.w3.org/2000/svg" class="js-draw--autoresize"><style id="js-draw-style-sheet">path{stroke-linecap:round;stroke-linejoin:round;}text{white-space:pre;}</style><g class="js-draw-image-background js-draw-image-background-grid js-draw-image-background-grid-25"><path d="M-62.1,203.75l0-254.25l-399.55,0l0,254.25l399.55,0" fill="none"></path><path d="M-462,-50l400.25,0m-400.25,25l400.25,0m-400.25,25l400.25,0m-400.25,25l400.25,0m-400.25,25l400.25,0m-400.25,25l400.25,0m-400.25,25l400.25,0m-400.25,25l400.25,0m-400.25,25l400.25,0m-400.25,25l400.25,0m-400.25,25l400.25,0m-388.25-250.85l0,254.95m25-254.95l0,254.95m25-254.95l0,254.95m25-254.95l0,254.95m25-254.95l0,254.95m25-254.95l0,254.95m25-254.95l0,254.95m25-254.95l0,254.95m25-254.95l0,254.95m25-254.95l0,254.95m25-254.95l0,254.95m25-254.95l0,254.95m25-254.95l0,254.95m25-254.95l0,254.95m25-254.95l0,254.95m25-254.95l0,254.95" fill="none" stroke="#80808033" stroke-width=".7"></path></g><path d="M-400,200q0-137.5 0-250" fill="none" stroke="#ffffff" stroke-width="1"></path><path d="M-400,-50q27.5,0 50,0" fill="none" stroke="#ffffff" stroke-width="1"></path><path d="M-349,-48q13.1,61.6 24,112q8,37 26,64q11,16 20,29q12.8,18.4 24,24q11.9,9.3 21,18q4,3.8 4,4" fill="none" stroke="#ffffff" stroke-width="1.5"></path><path d="M-337,-21q-.6-1.1 -1-2" fill="none" stroke="#338034" stroke-width="1"></path><path d="M-345,-25q26.1,9.6 39.7,9.1q11.2-.5 33,1.8q25.5,2.7 64.3,1.6q39.4-3.5 71.7-7.3q8.7-1.2 15.8-2.3q29.3-4.4 32.9,5.6q11.3,2.4 23.3,.4q.3-.1 1.3,.1" fill="none" stroke="#338034" stroke-width="1.8"></path><path d="M-448,174Q-451,-.8 -451,-1" fill="none" stroke="#ffffff" stroke-width="1"></path><path d="M-452,179q0-.2 0-1q0-2.3 8-8q-6.1-4.7 -17-8q3.2,8.3 12,20" fill="none" stroke="#ffffff" stroke-width="1.3"></path><path d="M-443,82q12,1.2 12,3q-4.9,8.1 -11,14q6.4,.3 17-2" fill="none" stroke="#ffffff" stroke-width="1.1"></path><path d="M-442,90q10,0 14,2" fill="none" stroke="#ffffff" stroke-width="1"></path><path d="M-377,75q94-1 94-1" fill="none" stroke="#ffffff" stroke-width="1"></path><path d="M-282,67q0,13 -1,15q-1.2-6.1 -1-17q5,.2 11,3q-2.6,6.5 -9,13q-.3,.3 2,0" fill="none" stroke="#ffffff" stroke-width="1.2"></path><path d="M-350,100q55,0 100,0" fill="none" stroke="#ffffff" stroke-width="1"></path><path d="M-257,90q1,11 1,14q.9-4.2 2-12q.5-3.5 6,2q-2.6,6.4 -8,12" fill="none" stroke="#ffffff" stroke-width="1.1"></path></svg>