<svg viewBox="-250.55 -63.74 605.5 274.44" width="605.5" height="274.44" version="1.1" baseProfile="full" xmlns="http://www.w3.org/2000/svg" class="js-draw--autoresize"><style id="js-draw-style-sheet">path{stroke-linecap:round;stroke-linejoin:round;}text{white-space:pre;}</style><g class="js-draw-image-background js-draw-image-background-grid js-draw-image-background-grid-25"><path d="M354.95,210.7l0-274.44l-605.5,7.105427357601002e-15l0,274.44l605.5,0" fill="none"></path><path d="M-250.9,-50l606.2,0m-606.2,25l606.2,0m-606.2,25l606.2,0m-606.2,25l606.2,0m-606.2,25l606.2,0m-606.2,25l606.2,0m-606.2,25l606.2,0m-606.2,25l606.2,0m-606.2,25l606.2,0m-606.2,25l606.2,0m-606.2,25l606.2,0m-605.3-264.09l0,275.14m25-275.14l0,275.14m25-275.14l0,275.14m25-275.14l0,275.14m25-275.14l0,275.14m25-275.14l0,275.14m25-275.14l0,275.14m25-275.14l0,275.14m25-275.14l0,275.14m25-275.14l0,275.14m25-275.14l0,275.14m25-275.14l0,275.14m25-275.14l0,275.14m25-275.14l0,275.14m25-275.14l0,275.14m25-275.14l0,275.14m25-275.14l0,275.14m25-275.14l0,275.14m25-275.14l0,275.14m25-275.14l0,275.14m25-275.14l0,275.14m25-275.14l0,275.14m25-275.14l0,275.14m25-275.14l0,275.14m25-275.14l0,275.14" fill="none" stroke="#80808033" stroke-width=".7"></path></g><path d="M-250,-50q0,110 0,200" fill="none" stroke="#ffffff" stroke-width="1.1"></path><path d="M-250,150q137.5,0 250,0" fill="none" stroke="#ffffff" stroke-width="1.1"></path><path d="M0,150Q0,40 0,-50" fill="none" stroke="#ffffff" stroke-width="1"></path><path d="M-247,-27q14.2-2.7 30,2.3q16.2,2.3 29.6,3.1q4.2,3 7.2,6.5q1.1,1.2 28.3-2.5q14.4-2.3 26.1-4.2q25.7-1.5 46.8-1.6q10.9,.7 19.8,1.5q38.6,3.6 38.7,3.6q21.6-7.6 21.5-7.7" fill="none" stroke="#338034" stroke-width="1.8"></path><path d="M-176,47q-2.5-7.5 1-11q12.2-12.2 29-1q6.9,7.3 12,14q2.7,3.6 20-10q2.3-1.8 5,9q6.5,26.1 -20,42q-17.9,10.7 -46-8q-3-2 -3-15q2.2-7.2 5-13q-.4-6 -2-11q-.3-1 -1-5" fill="none" stroke="#ff0000" stroke-width="1.5"></path><path d="M-238.7,-63.5q.04,.04 0,.04q-.04,0 -.04-.04q0-.04 .04-.04q.04,0 .04,.04" fill="none" stroke="#ffffff" stroke-width=".4"></path><path d="M-240,116.1q0-.9 .2-.5q1.2,2.9 3.1,16.7q.8,5.4 .6,4.7q-.1-1.2 -.1-2.1" fill="none" stroke="#338034" stroke-width=".6"></path><path d="M-238.9,117.2q7.9-1 14.4-1.9" fill="none" stroke="#338034" stroke-width=".8"></path><path d="M-235.5,125.1q5.3-.1 9.8-.3" fill="none" stroke="#338034" stroke-width=".8"></path><path d="M-168.3,75q.9-3.8 3.7-19.2q0-.3 1.2,.7q1,1.8 1.5,3.4q.4,1.2 7.5-7.2q.8-1.2 1.5-2.2q1-1.6 -2.6,13.9q-1.7,7.2 -1.2,6.1" fill="none" stroke="#ff0000" stroke-width=".6"></path><path d="M-152.5,69.7q.2,.2 1.1,1.1q.3,3.2 -.4,6.1q1.9-2.8 4.6-8.3" fill="none" stroke="#ff0000" stroke-width=".6"></path><path d="M-149.5,19.2q.03,.03 0,.03q-.03,0 -.03-.03q0-.03 .03-.03q.03,0 .03,.03" fill="none" stroke="#ff0000" stroke-width=".29"></path><path d="M220.4,65.1q.04,.04 0,.04q-.04,0 -.04-.04q0-.04 .04-.04q.04,0 .04,.04" fill="none" stroke="#ff0000" stroke-width=".4"></path><path d="M50,150q0-110 0-200" fill="none" stroke="#ffffff" stroke-width=".6"></path><path d="M300,150q-137.5,0 -250,0" fill="none" stroke="#ffffff" stroke-width=".6"></path><path d="M299.4,149.7q.6-200.5 .6-200.7" fill="none" stroke="#ffffff" stroke-width=".6"></path><path d="M52.1,-24q33.1-5.6 59-3.3q35.5,2.4 64.5,4.2q39.7,4.2 72.2,8.3q14,.2 25.6-.3q5-1 9.1-2q8.9-1.1 16.2-1.4q1-.8 1.6-1.8q-.8-.2 -2.2,0" fill="none" stroke="#338034" stroke-width="1.5"></path><path d="M59.5,109.8q0,28.3 .4,28.4q.8-2 .8-4.5" fill="none" stroke="#338034" stroke-width="1.1"></path><path d="M58.2,109.2q14-2.7 14.1-1.1q-1,1.4 -2.4,2.3" fill="none" stroke="#338034" stroke-width="1"></path><path d="M57.6,120.2q15.1-.8 15.6-.2q.3,.8 .4,1.4" fill="none" stroke="#338034" stroke-width="1.2"></path><path d="M119.6,50.9q-3.1-1.8 -3.7-3.7q-3.7-11.6 -12.3-19.6q-1.8-1.6 17.8-4.9q2.9-.5 10.5,6.1q4.9,4.2 18.4-3.1q6.6-3.6 17.2-3.6q6.7-.3 12.2-.7q3.7-.3 3.7,17.8q0,25.5 -4.3,39.3q-4.8,15.5 -11.6,17.2q-16.6,4.1 -34.4-6.8q-6.3-3.9 -8-9.2q-1.6-4.4 -3-7.9q-1.3-3.3 -1.3-19.1q0-8.6 -1.2-11" fill="none" stroke="#ff0000" stroke-width="1"></path><path d="M131.9,36.8q0,20.9 -2.5,31.3" fill="none" stroke="#ff0000" stroke-width="1"></path><path d="M131.3,38q12.9,3.5 12.2,4.9" fill="none" stroke="#ff0000" stroke-width=".8"></path><path d="M129.4,52.1q6.8,1.2 11.7,1.2q.4,0 0,1.9" fill="none" stroke="#ff0000" stroke-width=".9"></path><path d="M135.6,66.8q1.8,1.9 1.8,5.6q0,3.6 1.8,3.6q5.5-4.7 9.2-10.4" fill="none" stroke="#ff0000" stroke-width="1"></path><path d="M200,100q0-41.2 0-75" fill="none" stroke="#338034" stroke-width=".8"></path><path d="M201.2,22.7q5.8,9.5 4.8,9.5q-5.8-1 -10.5-2.4q-.3-.1 5.7-4.7q1.1-.9 0,2.5" fill="none" stroke="#338034" stroke-width="1.2"></path><path d="M211,51.5q2.4,14.3 1.9,19.6q-.1-1.3 0-3.6" fill="none" stroke="#338034" stroke-width="1"></path><path d="M211,49.7q11-8.6 15.1,.3q2.9,6.5 -9.4,7.9q-1.8-.4 -3.3-1q3.1,3.4 9.4,8.5q5.5,4.5 3.8,9.9q-.2-1.3 -.2-3.5" fill="none" stroke="#338034" stroke-width="1.1"></path><path d="M236.2,72.4q1.3,0 .9,0q-6,2.2 -10.7,4.6q3.1,1.2 8.6,1.8q-3.7,2.8 -10.9,5.9q5.9-.3 16.4-2q.1,.3 0,.7" fill="none" stroke="#338034" stroke-width="1.2"></path><path d="M-100,100q0-41.2 0-75" fill="none" stroke="#338034" stroke-width=".8"></path><path d="M-100.7,25.1q-.7-1.4 -.2-1.1q4.4,2.9 7.2,6.3q.7,.8 -19,.3q3.4-2.1 9.9-4.7q-.3,.7 -.9,1.7" fill="none" stroke="#338034" stroke-width="1.2"></path><path d="M-87.8,43.5q6.4,.3 6.2,.6" fill="none" stroke="#338034" stroke-width="1"></path><path d="M-79.2,30q.7,26.4 -2.9,31q.7-1.6 2.3-4.6" fill="none" stroke="#338034" stroke-width="1"></path><path d="M-79.2,28.8q1.9,8 5.7,8.5q4.3-4.2 6.9-9.5q.9,13 -1.5,36.2q.3-1.4 .6-3.9" fill="none" stroke="#338034" stroke-width="1"></path><path d="M-63.2,54.6q2.1,9.2 1.9,12.4q.2-1.1 .5-3.2" fill="none" stroke="#338034" stroke-width=".7"></path><path d="M-63.2,54q3.7-2 5.8-2.2" fill="none" stroke="#338034" stroke-width=".7"></path><path d="M-60.8,56.4q2.7-1 4.9-1.8" fill="none" stroke="#338034" stroke-width=".7"></path><path d="M-44.2,40.5q-4.3,9.4 -.9,7.1q7-4.6 .9-11.2q-1.3-1.4 -1.3,1.2q1.2,6.8 2.7,12.4q1.5,5.6 -3.8,16.7q.1-3.5 1.2-9.8q3.6-21.1 10.5-21.5q-.3,2.2 -2,5.1" fill="none" stroke="#338034" stroke-width=".9"></path><path d="M-100,100q0,13.8 0,25" fill="none" stroke="#338034" stroke-width=".7"></path><path d="M-98.8,124.5q3.9-5.3 3.5-5.4q-8.2-2.8 -6-.4q1.8,2.5 3.1,4.6" fill="none" stroke="#338034" stroke-width="1.1"></path><path d="M-100,76q.6-5.6 3.3-1.2q1.5,2.3 -.9,3.4q-1.4-2 -2-4.9q0,.9 .1,2.6q-.6-.6 -1.4-1.9q.4-.3 1.1-.5q.1,1.6 -.7,3.7q.1-.9 .4-2.6q-.5-.6 -1.2-1" fill="none" stroke="#338034" stroke-width="1"></path><path d="M-87.8,98.7q-.3,9.1 -.6,16.6" fill="none" stroke="#338034" stroke-width=".9"></path><path d="M-87.8,95.1q2.2,12.7 5,8.8q1.8-4.6 2.9-8.6q.2-1.1 .1,14.3q-.1,.9 -.7,13.3" fill="none" stroke="#338034" stroke-width="1"></path><path d="M-49.7,31.3q7.8,3 7.2,3q.4-.6 1.3-1.4q.2-1.2 .1-2.3q-.1,2.1 0,5.9q.3-1.8 .6-5.2q.4,.8 .9,2.2q-.7,1.8 -1.8,3.2" fill="none" stroke="#338034" stroke-width="1.1"></path><path d="M-57.1,111q-6.3,11.2 -2.3,9.9q4.3-1.4 2.9-11.8q-.5-.6 -1.1-1q-.4,4.9 1.3,12.5q1.2,5 -3.2,15.5q-2.1,5.2 -4.1-.3q-1.6-4.5 11.6-24.3" fill="none" stroke="#338034" stroke-width="1"></path><path d="M-62.6,105.5q5.9-.1 10.8-.1q-.7-.9 -2.3-2q-.2,1.3 .1,3.2q.3-1.6 .6-4.5q1.8,.6 3.8,2.2q-1.3,1.7 -3.8,3" fill="none" stroke="#338034" stroke-width="1"></path><path d="M-69.4,34.3q.06,.06 0,.06q-.06,0 -.06-.06q0-.06 .06-.06q.06,0 .06,.06" fill="none" stroke="#338034" stroke-width=".6"></path><path d="M-20.3,11.6q.06,.06 0,.06q-.06,0 -.06-.06q0-.06 .06-.06q.06,0 .06,.06" fill="none" stroke="#338034" stroke-width=".6"></path><path d="M325,50q0,27.5 0,50" fill="none" stroke="#338034" stroke-width=".8"></path><path d="M326.4,101.8q4.7-6.9 4.4-6.7q-11.6,9 -11.7,4.7q3,.2 6.7,2" fill="none" stroke="#338034" stroke-width="1.1"></path><path d="M338,71.8q-2.8,11.9 1.9,9.2q5.3-3.2 3.3-9.9q-1.1-.6 -2.3-.7q-.3,3.2 1,7.4q2.2,7.1 -7.9,17.9q-3.7,3.9 -3.7,.1q0-1.7 10.7-11.8q13.4-12.5 7.8-9.3q.1,.3 .3,.7" fill="none" stroke="#338034" stroke-width="1.1"></path><path d="M335.6,65.6q-1.2,0 -.9,0q7.1,.4 12.9,.8q-1.5-1.5 -4.5-3.5q-.1,1.9 .7,4.8q.4-1.7 .6-4.9q1.9,1.1 4.3,3.7q-2.5,2.2 -6.8,3.7" fill="none" stroke="#338034" stroke-width="1.1"></path><path d="M306.7,208q-.1,.5 -.6,2.4" fill="none" stroke="#338034" stroke-width=".6"></path></svg>