<svg viewBox="-455.8 -52 1075.8 431" width="1075.8" height="431" version="1.1" baseProfile="full" xmlns="http://www.w3.org/2000/svg" class="js-draw--autoresize"><style id="js-draw-style-sheet">path{stroke-linecap:round;stroke-linejoin:round;}text{white-space:pre;}</style><g class="js-draw-image-background js-draw-image-background-grid js-draw-image-background-grid-25"><path d="M620,379l0-431l-1075.8,0l0,431l1075.8,0" fill="none"></path><path d="M-456.15,-50l1076.5,0m-1076.5,25l1076.5,0m-1076.5,25l1076.5,0m-1076.5,25l1076.5,0m-1076.5,25l1076.5,0m-1076.5,25l1076.5,0m-1076.5,25l1076.5,0m-1076.5,25l1076.5,0m-1076.5,25l1076.5,0m-1076.5,25l1076.5,0m-1076.5,25l1076.5,0m-1076.5,25l1076.5,0m-1076.5,25l1076.5,0m-1076.5,25l1076.5,0m-1076.5,25l1076.5,0m-1076.5,25l1076.5,0m-1076.5,25l1076.5,0m-1076.5,25l1076.5,0m-1070.35-427.35l0,431.7m25-431.7l0,431.7m25-431.7l0,431.7m25-431.7l0,431.7m25-431.7l0,431.7m25-431.7l0,431.7m25-431.7l0,431.7m25-431.7l0,431.7m25-431.7l0,431.7m25-431.7l0,431.7m25-431.7l0,431.7m25-431.7l0,431.7m25-431.7l0,431.7m25-431.7l0,431.7m25-431.7l0,431.7m25-431.7l0,431.7m25-431.7l0,431.7m25-431.7l0,431.7m25-431.7l0,431.7m25-431.7l0,431.7m25-431.7l0,431.7m25-431.7l0,431.7m25-431.7l0,431.7m25-431.7l0,431.7m25-431.7l0,431.7m25-431.7l0,431.7m25-431.7l0,431.7m25-431.7l0,431.7m25-431.7l0,431.7m25-431.7l0,431.7m25-431.7l0,431.7m25-431.7l0,431.7m25-431.7l0,431.7m25-431.7l0,431.7m25-431.7l0,431.7m25-431.7l0,431.7m25-431.7l0,431.7m25-431.7l0,431.7m25-431.7l0,431.7m25-431.7l0,431.7m25-431.7l0,431.7m25-431.7l0,431.7m25-431.7l0,431.7" fill="none" stroke="#80808033" stroke-width=".7"></path></g><path d="M-451,201l2-2l448,0l0-248l-448,0l0,248l-2,2l0-252l452,0l0,252l-452,0" fill="#ffffff"></path><path d="M148,202l4-4l446,0l0-246l-446,0l0,246l-4,4l0-254l454,0l0,254l-454,0" fill="#ffffff"></path><path d="M12,70q78-8 95,1q-6-8 -18-19q-5-4 0,27q2,14 4,8q0-16 -1-29q6,3 13,10q6,5 -10,12q-7,3 -13,6" fill="none" stroke="#ffffff" stroke-width="3"></path><path d="M-228,198.5q0-136.4 0-248" fill="none" stroke="#ffffff" stroke-width="1.9"></path><path d="M-419,24q12.9-6.5 24-11" fill="none" stroke="#348034" stroke-width="2.4"></path><path d="M-340,13q-.4,1 -2,5" fill="none" stroke="#348034" stroke-width="2"></path><path d="M-343,37q-1.2,2.7 -2,5" fill="none" stroke="#348034" stroke-width="2"></path><path d="M-395,110q-1.6,0 -3,0" fill="none" stroke="#348034" stroke-width="2"></path><path d="M-410,114q.6,1 2,2" fill="none" stroke="#348034" stroke-width="2.1"></path><path d="M-371,91q8.5-11.5 8-12" fill="none" stroke="#348034" stroke-width="2"></path><path d="M-363,48q-16.2,2.1 -29.5,3.9q6.3,4 18.6,8.4q23.5,17.4 40.9,34.7" fill="none" stroke="#348034" stroke-width="2.2"></path><path d="M-330,141q-12.7,1.9 -23,4" fill="none" stroke="#348034" stroke-width="2"></path><path d="M-396,154q8.6-11.2 16-20" fill="none" stroke="#348034" stroke-width="2"></path><path d="M-316,50q10.5-26.1 17.3-11.4q3.7,25.1 3.7,46.4" fill="none" stroke="#348034" stroke-width="2.1"></path><path d="M-272,157q.5,5 1,9" fill="none" stroke="#348034" stroke-width="2.1"></path><path d="M-452,230q-2.3,28.9 11.9,47.5q7.3,9.6 35.9-3q32.2-14.5 19.2,19.5q-1,0 -2,0q-2,0 7-7q29-27 66-12q4,3 7,5q1,0 25-22q18-16 18-16" fill="none" stroke="#348034" stroke-width="3"></path><path d="M-431,307q17,41 20,43q2,1 12-22q4-8 8-15" fill="none" stroke="#348034" stroke-width="3"></path><path d="M-386,346q.8,18.1 5.4,14.1q2.1-6.2 2.6-12.1" fill="none" stroke="#348034" stroke-width="2.8"></path><path d="M-383,327q.6-.5 1-1" fill="none" stroke="#348034" stroke-width="2.1"></path><path d="M152,224q0,14 8,28q11,17 63,8q124-23 125,2q-5,8 -11,13q3-6 10-16q7-10 61-7q61,5 110,9q52,4 100-47q-3,3 -8,9" fill="none" stroke="#348034" stroke-width="4"></path><path d="M243,294q15,68 16,63q4-18 7-32q8-34 21-38q0,3 -1,6" fill="none" stroke="#348034" stroke-width="4"></path><path d="M280,365q18-34 9-52q-1-5 -3,11q-3,29 -4,53" fill="none" stroke="#348034" stroke-width="4"></path><path d="M274,361q24.1-7.9 23-9" fill="none" stroke="#348034" stroke-width="2.6"></path><path d="M187,143q6.6-.6 12-1" fill="none" stroke="#348034" stroke-width="2.2"></path><path d="M288,149q-8.6,.4 -18-9" fill="none" stroke="#348034" stroke-width="2.5"></path><path d="M228,35q-11-2 -11-8q.7-9.4 30.2-8.4q13.8,.6 36.3,18.9" fill="none" stroke="#348034" stroke-width="2.8"></path><path d="M261,85q-3.9,.5 -7,1" fill="none" stroke="#348034" stroke-width="2.1"></path><path d="M241,104q3.3,5.7 7,10" fill="none" stroke="#348034" stroke-width="2.2"></path><path d="M344,102q56.4-5.6 56-6" fill="none" stroke="#348034" stroke-width="2.2"></path><path d="M480,93q-1.6-1.6 -3-3" fill="none" stroke="#348034" stroke-width="2.2"></path><path d="M420,28q-7.2,.5 -13,1" fill="none" stroke="#348034" stroke-width="2.2"></path><path d="M382,33q6.6,3.8 12,7" fill="none" stroke="#348034" stroke-width="2"></path><path d="M458,137q1.7-6.1 4-11" fill="none" stroke="#348034" stroke-width="2.1"></path><path d="M524,40q1.6-3.9 3-7" fill="none" stroke="#348034" stroke-width="2.9"></path><path d="M494,148q-1.2,7.1 -2,13" fill="none" stroke="#348034" stroke-width="2.1"></path><path d="M343,165q-.5-8.1 11.5-29.5" fill="none" stroke="#348034" stroke-width="2.3"></path><path d="M373,119q1-4.4 2-8" fill="none" stroke="#348034" stroke-width="2"></path><path d="M438,53q5,1.1 9,2" fill="none" stroke="#348034" stroke-width="2.3"></path><path d="M429,113q-25.9,46.1 -29,43" fill="none" stroke="#348034" stroke-width="2"></path><path d="M327,37q-9.6-6.8 -11.5-13.5" fill="none" stroke="#348034" stroke-width="2.4"></path><path d="M363,54q22.9,30.4 42,55" fill="none" stroke="#348034" stroke-width="2.3"></path></svg>