<svg viewBox="-144.3 -520.3 1148.75 342.6" width="1148.75" height="342.6" version="1.1" baseProfile="full" xmlns="http://www.w3.org/2000/svg" class="js-draw--autoresize"><style id="js-draw-style-sheet">path{stroke-linecap:round;stroke-linejoin:round;}text{white-space:pre;}</style><g class="js-draw-image-background js-draw-image-background-grid js-draw-image-background-grid-25"><path d="M1004.45,-177.7l0-342.6l-1148.75,0l0,342.6l1148.75,0" fill="none"></path><path d="M-144.65,-500l1149.45,0m-1149.45,25l1149.45,0m-1149.45,25l1149.45,0m-1149.45,25l1149.45,0m-1149.45,25l1149.45,0m-1149.45,25l1149.45,0m-1149.45,25l1149.45,0m-1149.45,25l1149.45,0m-1149.45,25l1149.45,0m-1149.45,25l1149.45,0m-1149.45,25l1149.45,0m-1149.45,25l1149.45,0m-1149.45,25l1149.45,0m-1129.8-320.65l0,343.3m25-343.3l0,343.3m25-343.3l0,343.3m25-343.3l0,343.3m25-343.3l0,343.3m25-343.3l0,343.3m25-343.3l0,343.3m25-343.3l0,343.3m25-343.3l0,343.3m25-343.3l0,343.3m25-343.3l0,343.3m25-343.3l0,343.3m25-343.3l0,343.3m25-343.3l0,343.3m25-343.3l0,343.3m25-343.3l0,343.3m25-343.3l0,343.3m25-343.3l0,343.3m25-343.3l0,343.3m25-343.3l0,343.3m25-343.3l0,343.3m25-343.3l0,343.3m25-343.3l0,343.3m25-343.3l0,343.3m25-343.3l0,343.3m25-343.3l0,343.3m25-343.3l0,343.3m25-343.3l0,343.3m25-343.3l0,343.3m25-343.3l0,343.3m25-343.3l0,343.3m25-343.3l0,343.3m25-343.3l0,343.3m25-343.3l0,343.3m25-343.3l0,343.3m25-343.3l0,343.3m25-343.3l0,343.3m25-343.3l0,343.3m25-343.3l0,343.3m25-343.3l0,343.3m25-343.3l0,343.3m25-343.3l0,343.3m25-343.3l0,343.3m25-343.3l0,343.3m25-343.3l0,343.3m25-343.3l0,343.3" fill="none" stroke="#80808033" stroke-width=".7"></path></g><path d="M801,-357.6q0-132.7 -.2-132.7q-214.1,0 -214.1,.1q0,132.6 .2,132.6q117.8,0 214.1,0" fill="none" stroke="#348034" stroke-width="2.6"></path><path d="M801,-214.6q0-132.7 -.2-132.7q-214.1,0 -214.1,.1q0,132.6 .2,132.6q117.8,0 214.1,0" fill="none" stroke="#348034" stroke-width="2.6"></path><path d="M660,-407q1-3 2-6q6-17 24-43q4-6 4,54q0,1 -2,2" fill="none" stroke="#ffffff" stroke-width="3"></path><path d="M664,-417q17,0 30,0q.7,.9 1,2" fill="none" stroke="#ffffff" stroke-width="2.9"></path><path d="M673,-303q1.1,18.1 2,33" fill="none" stroke="#ffffff" stroke-width="2.4"></path><path d="M672,-306q3-4 10-6q13.6-3.9 18,7q.7,1.8 -13,14q-1,1 -6,1q5-2 15-4q19-4 15,19q-2,14 -29,10q-1,0 -2-2" fill="none" stroke="#ffffff" stroke-width="3"></path><path d="M141,-195.6q0-132.7 -.2-132.7q-214.1,0 -214.1,.1q0,132.6 .2,132.6q117.8,0 214.1,0" fill="none" stroke="#348034" stroke-width="2.6"></path><path d="M140,-361.6q0-132.7 -.2-132.7q-214.1,0 -214.1,.1q0,132.6 .2,132.6q117.8,0 214.1,0" fill="none" stroke="#348034" stroke-width="2.6"></path><path d="M-1,-411Q0,-414 1,-417Q7,-434 25,-460Q29,-466 29,-406Q29,-405 27,-404" fill="none" stroke="#ffffff" stroke-width="3"></path><path d="M3,-421Q20,-421 33,-421Q33.7,-420.1 34,-419" fill="none" stroke="#ffffff" stroke-width="2.9"></path><path d="M1003.2,-280.9q0-134.6 -.2-134.6q-169.6,0 -169.6,.2q0,134.4 .2,134.4q93.3,0 169.6,0" fill="none" stroke="#348034" stroke-width="2.5"></path><path d="M521,-351q278-2 278-2" fill="none" stroke="#ff0000" stroke-width="2.6"></path><path d="M929,-387q-29,8.4 -34,16q-19,28 11,28q18,0 24-6" fill="none" stroke="#ffffff" stroke-width="3"></path><path d="M826,-268q-16-23.2 -16-29" fill="none" stroke="#ff0000" stroke-width="2.4"></path><path d="M827,-300q-6.4-19.3 -12-35" fill="none" stroke="#ff0000" stroke-width="2.3"></path><path d="M834,-344q-15-33.8 -15-41" fill="none" stroke="#ff0000" stroke-width="2.4"></path><path d="M833,-402q-7.7-15.4 -14-28" fill="none" stroke="#ff0000" stroke-width="2.2"></path><path d="M839,-446q-8.2-13.8 -15-25" fill="none" stroke="#ff0000" stroke-width="2.2"></path><path d="M13,-284q1.1,18.1 2,33" fill="none" stroke="#ffffff" stroke-width="2.4"></path><path d="M836.37,-485.1q-32.016,0 -32.016,.3q0,284.6 .058,284.6q31.958,0 31.958-.3q.29-156.5 .29-284.5" fill="none" stroke="#ff0000" stroke-width="3"></path><path d="M12,-287q3-4 10-6q13.6-3.9 18,7q.7,1.8 -13,14q-1,1 -6,1q5-2 15-4q19-4 15,19q-2,14 -29,10q-1,0 -2-2" fill="none" stroke="#ffffff" stroke-width="3"></path><path d="M317.2,-275.9q0-134.6 -.2-134.6q-169.6,0 -169.6,.2q0,134.4 .2,134.4q93.3,0 169.6,0" fill="none" stroke="#348034" stroke-width="2.5"></path><path d="M243,-382q-29,8.4 -34,16q-19,28 11,28q18,0 24-6" fill="none" stroke="#ffffff" stroke-width="3"></path><path d="M148,-179q-2.5-339.8 -2.5-340" fill="none" stroke="#ff0000" stroke-width="2.6"></path><path d="M-75,-341q23.2-16 29-16" fill="none" stroke="#ff0000" stroke-width="2.4"></path><path d="M-43,-340q19.3-6.4 35-12" fill="none" stroke="#ff0000" stroke-width="2.3"></path><path d="M1,-333Q34.8,-348 42,-348" fill="none" stroke="#ff0000" stroke-width="2.4"></path><path d="M59,-334q15.4-7.7 28-14" fill="none" stroke="#ff0000" stroke-width="2.2"></path><path d="M103,-328q13.8-8.2 25-15" fill="none" stroke="#ff0000" stroke-width="2.2"></path><path d="M142.1,-330.63q0-32.016 -.3-32.016q-284.6,0 -284.6,.058q0,31.958 .3,31.958q156.5,.29 284.5,.29" fill="none" stroke="#ff0000" stroke-width="3"></path><path d="M407,-365q35,0 66,0" fill="none" stroke="#ffffff" stroke-width="2.4"></path><path d="M403,-350q35,0 70,0" fill="none" stroke="#ffffff" stroke-width="2.3"></path><path d="M467,-375q0,2 5,9q11,9 21,16q10,6 -10,13q-7,2 -13,4" fill="none" stroke="#ffffff" stroke-width="4"></path><path d="M415,-375q-35,4 -44,8q-4,2 19,22q8,5 14,9" fill="none" stroke="#ffffff" stroke-width="4"></path></svg>