<svg viewBox="-446.45 -104.2 567.95 366.5" width="567.95" height="366.5" version="1.1" baseProfile="full" xmlns="http://www.w3.org/2000/svg" class="js-draw--autoresize"><style id="js-draw-style-sheet">path{stroke-linecap:round;stroke-linejoin:round;}text{white-space:pre;}</style><g class="js-draw-image-background js-draw-image-background-grid js-draw-image-background-grid-25"><path d="M121.5,262.3l0-366.5l-567.95-1.4210854715202004e-14l0,366.5l567.95,0" fill="none"></path><path d="M-446.8,-100l568.65,0m-568.65,25l568.65,0m-568.65,25l568.65,0m-568.65,25l568.65,0m-568.65,25l568.65,0m-568.65,25l568.65,0m-568.65,25l568.65,0m-568.65,25l568.65,0m-568.65,25l568.65,0m-568.65,25l568.65,0m-568.65,25l568.65,0m-568.65,25l568.65,0m-568.65,25l568.65,0m-568.65,25l568.65,0m-568.65,25l568.65,0m-546.85-354.55l0,367.2m25-367.2l0,367.2m25-367.2l0,367.2m25-367.2l0,367.2m25-367.2l0,367.2m25-367.2l0,367.2m25-367.2l0,367.2m25-367.2l0,367.2m25-367.2l0,367.2m25-367.2l0,367.2m25-367.2l0,367.2m25-367.2l0,367.2m25-367.2l0,367.2m25-367.2l0,367.2m25-367.2l0,367.2m25-367.2l0,367.2m25-367.2l0,367.2m25-367.2l0,367.2m25-367.2l0,367.2m25-367.2l0,367.2m25-367.2l0,367.2m25-367.2l0,367.2" fill="none" stroke="#80808033" stroke-width=".7"></path></g><path d="M-402,-47l1,247l2,0l1-247l3,0l-5-5l-5,5l3,0" fill="#ffffff"></path><path d="M-325,187q.2-13.2 1-24" fill="none" stroke="#348034" stroke-width="2.7"></path><path d="M-323,132q-.1-7.1 0-13" fill="none" stroke="#348034" stroke-width="2.4"></path><path d="M-324,102q-.8-7.1 -1-13" fill="none" stroke="#348034" stroke-width="2.1"></path><path d="M-327,72q-.3-5.5 0-10" fill="none" stroke="#348034" stroke-width="2.1"></path><path d="M-324,53q-3-5 1-5q4,0 1,4q-1,0 -3,0q0,0 0,0" fill="none" stroke="#348034" stroke-width="3"></path><path d="M-224,82q-.8,11 -1,20" fill="none" stroke="#348034" stroke-width="2.8"></path><path d="M-223,119q1,6.6 2,12" fill="none" stroke="#348034" stroke-width="2.2"></path><path d="M-222,146q-.2,.6 -1,3" fill="none" stroke="#348034" stroke-width="2"></path><path d="M-223,184q-.1,5.5 0,10" fill="none" stroke="#348034" stroke-width="2"></path><path d="M-225,172q.9-5.5 2-10" fill="none" stroke="#348034" stroke-width="2.2"></path><path d="M-323,54q2.2-4.4 2.9-1.9q1.1,4.1 -7.5,1.2q-3.1-1 -.3-2.1q3.6,1.5 6.5,3.8q-.3-1.3 -1.2-3.5q-1.1,0 -2.3,.6q.1-.3 .3-.7q.4-1.3 .6-2.4" fill="none" stroke="#ffffff" stroke-width="2.3"></path><path d="M-228,88q-4.1-10.8 2.4-9.5q-1.2,3 -4.4,6.3q1.4-1.3 4-3.6q-.7,.2 -2,.8" fill="none" stroke="#ffffff" stroke-width="2.4"></path><path d="M-442,-48q.9,15.4 2,28" fill="none" stroke="#348034" stroke-width="2.2"></path><path d="M-445,-54q20,2 18,9q-1.3,2.5 -17.5,2.5" fill="none" stroke="#348034" stroke-width="2.9"></path><path d="M-343,218q8.7,20.9 10.7,24.4q2.3,3.6 13.3-24.4" fill="none" stroke="#348034" stroke-width="3"></path><path d="M-324,243q-2.8,14.7 1.6,12.7q3.1-5.3 4.4-10.7" fill="none" stroke="#348034" stroke-width="2.9"></path><path d="M-321,235q.6,0 1,0" fill="none" stroke="#348034" stroke-width="2.2"></path><path d="M-246,213q4,36 5,37q0,0 6-16q3-8 6-14" fill="none" stroke="#348034" stroke-width="3"></path><path d="M-227,241q-5.8,18.5 5.9,13.4q7.2-3.1 1.5-16.2q-2.2-5 -8-2.4q-1.1,5 -.4,10.2" fill="none" stroke="#348034" stroke-width="2.9"></path><path d="M-207,239q-13.3,19.4 -5,20.6q4.6-2.8 8-6.6" fill="none" stroke="#348034" stroke-width="2.9"></path><path d="M-192,97q-21.1-1.1 -23-3" fill="none" stroke="#ff0000" stroke-width="2.6"></path><path d="M-222,87q-7.1-2.9 -13-5" fill="none" stroke="#ff0000" stroke-width="2"></path><path d="M-249,84q-7.1-2.3 -13-4" fill="none" stroke="#ff0000" stroke-width="2.3"></path><path d="M-284,72q-6-1.2 -11-2" fill="none" stroke="#ff0000" stroke-width="2.1"></path><path d="M-310,58q-6-3.9 -11-7" fill="none" stroke="#ff0000" stroke-width="2"></path><path d="M-333,30q-4-7 -7-13" fill="none" stroke="#ff0000" stroke-width="2"></path><path d="M-349,-8q-3.3-8.8 -6-16" fill="none" stroke="#ff0000" stroke-width="2"></path><path d="M-306,-67q-29,33 -33,50.8q0,.1 15.2-7.7q3.9-2 -10.2-6.2q-13-3.8 -10.8,5.4q2.3,2.7 4.8,4.7" fill="none" stroke="#ff0000" stroke-width="2.7"></path><path d="M-285,-100q-12.3,.1 -16.3,13.7q-2.7,9.3 13.8,.8" fill="none" stroke="#ff0000" stroke-width="2.6"></path><path d="M-275,-100q-8.6,14.2 -.6,11.9q7.2-5.1 12.4-10.4q.4,6.6 -1.8,17.5" fill="none" stroke="#ff0000" stroke-width="2.6"></path><path d="M-259,-80q1.5-13.4 3.2-11.3q8.1-.4 15.8-3.7" fill="none" stroke="#ff0000" stroke-width="2.4"></path><path d="M-236,-103q2.2,14.9 7,12.7q2.6-4.3 4-8.7" fill="none" stroke="#ff0000" stroke-width="2.4"></path><path d="M-219,-100q10.8,7 9.9,7.5q-6.9,4.1 -12.7,7.5q-3.7,2.1 -1.2,4.8q1.5,1.7 9-6.8" fill="none" stroke="#ff0000" stroke-width="2.4"></path><path d="M-293,-65q-.2,7.7 0,14" fill="none" stroke="#ff0000" stroke-width="2.4"></path><path d="M-293,-78q.8,0 4,0" fill="none" stroke="#ff0000" stroke-width="2"></path><path d="M-275,-71q-10,4.7 -1,10.1q11.3,6.7 -2.6,11.4q-3-.1 -5.4-.5" fill="none" stroke="#ff0000" stroke-width="2.9"></path><path d="M-265,-61q-4.2,14.6 3.4,12q5.6-1.8 7.4-12.5q.9-5.4 -9.3-1" fill="none" stroke="#ff0000" stroke-width="2.6"></path><path d="M-244,-79q-7.5,36.2 .9,38.4q1.8,.5 -.7-9.9q-2.6-11.2 -9.8-10.2q5.8,.1 16.6-.3" fill="none" stroke="#ff0000" stroke-width="2.4"></path><path d="M-229,-57q10.2-3.4 5.2-5.4q-5.5-2.2 -12.9,15.6q-3.2,7.8 1.3,10.2q3.2-2.5 5.4-6.4" fill="none" stroke="#ff0000" stroke-width="2.8"></path><path d="M-220,-44q-1.4-11.7 .6-8q.4,3 1.4,5q6.2-1.1 14-6" fill="none" stroke="#ff0000" stroke-width="2.9"></path><path d="M-207,-32q-2.1-16.1 1.9-15.1q2.3,4 3.2,8.4q4.6-.3 9.6-2.9q3.1,1.1 5.7,3q2.1-.3 4-1.1q1.7,4.3 1.6,10.7" fill="none" stroke="#ff0000" stroke-width="2.8"></path><path d="M-175,-53q10.6,18.1 5.2,13q-5.6-5.1 -11.1,5.3q-3.7,7.1 9.4-2.8" fill="none" stroke="#ff0000" stroke-width="2.4"></path><path d="M-297,42q36.5,31 53.9,26.7q-.6,.5 -1.9,1.3" fill="none" stroke="#ffffff" stroke-width="3"></path><path d="M-314,69q15.3,15.3 34,19.8q6.9,.5 12.7,.5" fill="none" stroke="#ffffff" stroke-width="2.8"></path><path d="M-281,100q15-2.3 27.2-4.5q-.3-1 -1.2-2.3q-.1-19.1 4.6-35.9q-.3-.2 -.6-.3" fill="none" stroke="#ffffff" stroke-width="2.8"></path><path d="M-85,28q2.6,40.6 1,39" fill="none" stroke="#ffffff" stroke-width="2.1"></path><path d="M-94,23q31.4,5.4 30,4" fill="none" stroke="#ffffff" stroke-width="2.3"></path><path d="M-70,53q8.2,.1 15,1" fill="none" stroke="#ffffff" stroke-width="2"></path><path d="M-68,65q10.4-1.7 19-3" fill="none" stroke="#ffffff" stroke-width="2.1"></path><path d="M-25,22q-5.6,39.1 -5.9,44" fill="none" stroke="#ffffff" stroke-width="2.2"></path><path d="M-35,26q27.4,2.4 25,0" fill="none" stroke="#ffffff" stroke-width="2.1"></path><path d="M-13,71q-4.7,25.6 1.7,16.7q2.5-4.2 4.3-7.7" fill="none" stroke="#ffffff" stroke-width="2.1"></path><path d="M-11,62q6.2-5.7 5.8,1.1q-.1,.5 -2.8-.1" fill="none" stroke="#ffffff" stroke-width="2.4"></path><path d="M-174,100q5.4,.1 10,1" fill="none" stroke="#ff0000" stroke-width="2.3"></path><path d="M-153,109q5,1.1 9,2" fill="none" stroke="#ff0000" stroke-width="2"></path><path d="M-129,115q3.9,1.1 7,2" fill="none" stroke="#ff0000" stroke-width="2"></path><path d="M-101,116q3.3,1.7 6,3" fill="none" stroke="#ff0000" stroke-width="2"></path><path d="M-172,195q-.1-5.5 0-10" fill="none" stroke="#348034" stroke-width="2.3"></path><path d="M-172,164q-.3-7.7 0-14" fill="none" stroke="#348034" stroke-width="2"></path><path d="M-169,134q-.2-4.9 0-9" fill="none" stroke="#348034" stroke-width="2"></path><path d="M-177,199q.8,11.7 1.5,21.3q3.5-8.3 7.5-23.3" fill="none" stroke="#348034" stroke-width="3"></path><path d="M-168,213q-.6,33 5.4,25q4.6-6.2 -1.4-12.7q-1.6,.9 -3,2.7" fill="none" stroke="#348034" stroke-width="2.3"></path><path d="M-173,108q-.3-14.6 6.1-10.1q3.2,2.2 -4.9,5.6q-2,.8 -2.2-1.2q-.7-6.6 5.4-2.1q-.2,1 -.8,1.9q.1-1.8 .8-5q.5,1.5 .9,4.3q-2.2,0 -4.9-1.1q.7-.7 2.1-1.3q0,.8 -.5,1.9q-1-.6 -2-1.9" fill="none" stroke="#ffffff" stroke-width="2.2"></path><path d="M-371,50q-1.5,1.8 3.5,9.5" fill="none" stroke="#ff0000" stroke-width="2.5"></path><path d="M-354,79q6.3,9.3 6,9" fill="none" stroke="#ff0000" stroke-width="2"></path><path d="M-339,97q3.3,2.2 6,4" fill="none" stroke="#ff0000" stroke-width="2"></path><path d="M-313,108q13.3,9.3 13,9" fill="none" stroke="#ff0000" stroke-width="2.2"></path><path d="M-279,132q16.2,7.2 16,7" fill="none" stroke="#ff0000" stroke-width="2"></path><path d="M-239,150q3.9,1 7,2" fill="none" stroke="#ff0000" stroke-width="2"></path><path d="M-212,159q8.3,1.3 7,0" fill="none" stroke="#ff0000" stroke-width="2"></path><path d="M-169,164q15.1,4.1 15,4" fill="none" stroke="#ff0000" stroke-width="2.2"></path><path d="M-173,163q-2-4.6 2.4-3.3q4,1.2 .3,5.6q-2.1,2.5 -4.8-2q1.8-.8 4.5-.9q-.5,2.1 -2.3,4.6q-3.3,4.6 -4.3-3.5q-.5-4.4 3.8-3q-.2,1.4 -1,2.9q.4-2.2 1.4-5.9q-.7,1.9 -2,5.5" fill="none" stroke="#ffffff" stroke-width="2.3"></path><path d="M-224,84q-3.8-4.6 -.4-3.8q3.9,.9 3.9,9.9q-2.9-1.5 -6.5-5.1q-4.4-4.4 2.3-4.3q5.5,.1 .4,9.8q-1.6-1.9 -3-5.4q-2.3-6 4.6-2.3q-1.2,1.2 -3.3,2.2" fill="none" stroke="#ffffff" stroke-width="2.3"></path><path d="M-320,54q-4.7-5.2 -.2-5.2q4.5-.1 1.1,5q-2.9-1.6 -5.6-5q1.5,.3 3.9,1.3q-1.2,2.1 -3.7,4.2q.7-1.8 2.5-4.6q-1.4,0 -3.5,.7q0-1.1 .6-2.6q.9,1.1 1.7,3.2q.2,.7 -3.8,0" fill="none" stroke="#ffffff" stroke-width="1.8"></path><path d="M-226,81q8.9,32.3 12.9,37.1q15.1,21.1 27,38.9q.1,.1 10.2,7.9q1,.7 1.9,1.1" fill="none" stroke="#ffffff" stroke-width="2.8"></path><path d="M97,198l-497,1l0,2l497,1l0,3l5-5l-5-5l0,3" fill="#ffffff"></path><path d="M99,213q4,18 7,33q1,3 4,0q0-1 10-31q0,1 0,4" fill="none" stroke="#348034" stroke-width="3"></path><path d="M-93,176q.5-.8 1-1.4q-.9,2.7 -3.2,7.3q1.1-1.5 3-4.4q.1,.6 .1,1.8q-.6-.2 -1.4-.7q-.4-1.3 -.5-2.6" fill="none" stroke="#ffffff" stroke-width="2.3"></path><path d="M-142,169q4.4,2.2 8,4" fill="none" stroke="#ff0000" stroke-width="2.1"></path><path d="M-114,177q4.9-1.2 9-2" fill="none" stroke="#ff0000" stroke-width="2.1"></path><path d="M-149,149q20.2,6.9 36.8,12.2q-.8,.2 -2.3,.3" fill="none" stroke="#ffffff" stroke-width="2.7"></path><path d="M-148,175q-2.3-1.9 -4.3-3.4q8.4,.8 22.8,4.9q9.2,.5 16.7,0q.3,0 -1.2,.5" fill="none" stroke="#ffffff" stroke-width="2.2"></path><path d="M-122,182q16.4-4.1 16.3-4.3q-3.3-16.9 -4.9-31q-.8,0 -1.8,.5q-.2,1.8 .4,3.8" fill="none" stroke="#ffffff" stroke-width="2.5"></path><path d="M-95,196q.4-3.9 1-7" fill="none" stroke="#348034" stroke-width="2.8"></path><path d="M-93,186q-.1-1.6 0-3" fill="none" stroke="#348034" stroke-width="2.2"></path><path d="M-102,207q1,19 2,34q4-12 9-36" fill="none" stroke="#348034" stroke-width="3"></path><path d="M-89,254q9.6-22.6 6.3-46.4q-.8-.2 -1.8,0q-1.5,.3 -2.1,52.5q.3,.5 .6,.9" fill="none" stroke="#348034" stroke-width="2.6"></path><path d="M-93,244q31.5,3.5 31.1,3.5q-5.6-1 -6.1-1.5" fill="none" stroke="#348034" stroke-width="3"></path></svg>