<svg viewBox="-394.6 -102 510.85 370.3" width="510.85" height="370.3" version="1.1" baseProfile="full" xmlns="http://www.w3.org/2000/svg" class="js-draw--autoresize"><style id="js-draw-style-sheet">path{stroke-linecap:round;stroke-linejoin:round;}text{white-space:pre;}</style><g class="js-draw-image-background js-draw-image-background-grid js-draw-image-background-grid-25"><path d="M116.25,268.3l0-370.3l-510.85,0l0,370.3l510.85,0" fill="none"></path><path d="M-394.95,-100l511.55,0m-511.55,25l511.55,0m-511.55,25l511.55,0m-511.55,25l511.55,0m-511.55,25l511.55,0m-511.55,25l511.55,0m-511.55,25l511.55,0m-511.55,25l511.55,0m-511.55,25l511.55,0m-511.55,25l511.55,0m-511.55,25l511.55,0m-511.55,25l511.55,0m-511.55,25l511.55,0m-511.55,25l511.55,0m-511.55,25l511.55,0m-491.6-352.35l0,371m25-371l0,371m25-371l0,371m25-371l0,371m25-371l0,371m25-371l0,371m25-371l0,371m25-371l0,371m25-371l0,371m25-371l0,371m25-371l0,371m25-371l0,371m25-371l0,371m25-371l0,371m25-371l0,371m25-371l0,371m25-371l0,371m25-371l0,371m25-371l0,371m25-371l0,371" fill="none" stroke="#80808033" stroke-width=".7"></path></g><path d="M-352,-97l1,297l2,0l1-297l3,0l-5-5l-5,5l3,0" fill="#ffffff"></path><path d="M-3,198l-347,1l0,2l347,1l0,3l5-5l-5-5l0,3" fill="#ffffff"></path><path d="M-280,191q-.2-9.3 0-17" fill="none" stroke="#348034" stroke-width="2.5"></path><path d="M-280,154q-.2-10.4 0-19" fill="none" stroke="#348034" stroke-width="2.4"></path><path d="M-277,120q-.2-8.8 0-16" fill="none" stroke="#348034" stroke-width="2.4"></path><path d="M-283,81q-.8-7.1 -1-13" fill="none" stroke="#348034" stroke-width="2.4"></path><path d="M-281,43q.3-5.5 1-10" fill="none" stroke="#348034" stroke-width="2.3"></path><path d="M-276,29q-4.1-3.3 .3-5.7q5-2.8 .9,6q-3.8,8.1 -8.9-1q-2.7-4.8 6.8-4q5.6,.5 .1,3.9q-1.6,0 -2.9-.4q1.2-.6 3.5-1.1q.2-.1 -1.4-1.4q-.9-.7 -2.2-3.1" fill="none" stroke="#ffffff" stroke-width="2.5"></path><path d="M-312,-6Q-320.8,19.5 -312.9,17.5Q-311,17 -307.5,4.5" fill="none" stroke="#ffffff" stroke-width="2.6"></path><path d="M-306,-21q1.8-6.8 3.9-4.6q1.5,1.5 -2.4,2.1q-.9-.6 -1.5-1.5" fill="none" stroke="#ffffff" stroke-width="2.2"></path><path d="M-123,42q-2.3-3.8 -.1-3.1q3.6,1.4 -1.4,5.8q-2.1,1.9 -2.3-2q-.1-4.5 5.7-5.2q4.3-.5 .5,5q-1.4,0 -2.9-.5q.7,.5 2,1.3q-1.6-.7 -4.5-2.3" fill="none" stroke="#ffffff" stroke-width="2.6"></path><path d="M-125,199q.4-7.7 1-14" fill="none" stroke="#348034" stroke-width="2.3"></path><path d="M-125,148q.3-8.8 1-16" fill="none" stroke="#348034" stroke-width="2.4"></path><path d="M-122,115q-.1-3.8 0-7" fill="none" stroke="#348034" stroke-width="2.2"></path><path d="M-120,89q-.6-1.1 -1-2" fill="none" stroke="#348034" stroke-width="2"></path><path d="M-124,57q0-3.3 0-6" fill="none" stroke="#348034" stroke-width="2"></path><path d="M-273,23Q-253,11 -231,8Q-205,5 -178,15Q-152,25 -145,28Q-139,31 -134,34" fill="none" stroke="#348034" stroke-width="4"></path><path d="M-389,-95q-2.9,35.6 -.8,36.4q1.7,.7 1.3-23.9q-1.9-7.2 -4.1-13q-.6-1.6 14.2-1.8q11.4-.2 2.3,11.4q-9.1,11.7 -15.9,4.9" fill="none" stroke="#348034" stroke-width="2.8"></path><path d="M-17,214q4.4,11.9 7.2,24.3q3.8,16.7 6.8,8.7q11-37 12-38q1-1 2-2" fill="none" stroke="#348034" stroke-width="3"></path><path d="M-300,204q4,36.2 4.5,34.4q6.1-20.3 15-29.9" fill="none" stroke="#348034" stroke-width="2.8"></path><path d="M-284,241q-7,15 2,10q8.9-6.1 5-10" fill="none" stroke="#348034" stroke-width="2.9"></path><path d="M-282,228q1.1-.6 2-1" fill="none" stroke="#348034" stroke-width="2.1"></path><path d="M-144,216q10,33 12,27q4-13 7-23q2-2 4-3" fill="none" stroke="#348034" stroke-width="3"></path><path d="M-113,241q-.1-22.8 -3.8-18.3q-3.3,23.4 -1.2,44.3" fill="none" stroke="#348034" stroke-width="2.6"></path><path d="M-126,254q4.7-4.2 21.5-8.5" fill="none" stroke="#348034" stroke-width="2.7"></path><path d="M-105,37q18.2-44.1 8.3-57.4q-.7-1.1 -4.1,38.8q-2.5,30.2 -6.2,36.5" fill="none" stroke="#ffffff" stroke-width="2.3"></path><path d="M-112,24q28.4,1.9 33.6,1.4q.8,0 -3.6,1.6" fill="none" stroke="#ffffff" stroke-width="2.4"></path><path d="M-256,60q14.7-11.7 27-21" fill="none" stroke="#348034" stroke-width="2.8"></path><path d="M-260,98q30.5-27.5 48.5-33.5" fill="none" stroke="#348034" stroke-width="2.7"></path><path d="M-244,126q39-28 46.7-31.8" fill="none" stroke="#348034" stroke-width="2.5"></path><path d="M-220,159q23.8-20.9 41.5-28.5" fill="none" stroke="#348034" stroke-width="2.6"></path><path d="M-189,178q12.5-12.3 23-22" fill="none" stroke="#348034" stroke-width="2.5"></path><path d="M-184,133q27-30 78-50q25-11 35-3q-1,0 -3,0" fill="none" stroke="#348034" stroke-width="3"></path><path d="M-78,72q5.1,21.8 6.2,18.7q4-11.3 -1-22.9q4.3,1.6 10.6,6.1q3.7,2.6 -13.3,15.6" fill="none" stroke="#348034" stroke-width="2.8"></path><path d="M-28,38q-8.3,7 -8.5,24.7q3.9,21.4 8.7,38.8q3.9,14.4 -6.4,15q.7-.5 2-1" fill="none" stroke="#ffffff" stroke-width="2.9"></path><path d="M-24,2Q-20.9,8.6 -17.4,20Q-12.7,34.8 -8.7,27.9Q-3.5,13.5 -.2,1.2" fill="none" stroke="#ffffff" stroke-width="2.7"></path><path d="M0,41Q7.6,14.3 .4,11.6Q-.4,11.3 -1.2,28.7Q-1.3,32.3 -3,47" fill="none" stroke="#ffffff" stroke-width="2"></path><path d="M-8,39Q1.8,36.5 10,35" fill="none" stroke="#ffffff" stroke-width="2.1"></path><path d="M-35,125q2.6,12.8 4.7,23.3q4.6-8.3 9.2-24" fill="none" stroke="#ffffff" stroke-width="2.6"></path><path d="M-20,153q-5.4,18.5 2.5,11.4q2.2-4.4 3.5-8.4" fill="none" stroke="#ffffff" stroke-width="2.1"></path><path d="M-14,144q-.5-.5 -1-1" fill="none" stroke="#ffffff" stroke-width="1.9"></path><path d="M17,72q2.1,22 2.6,29.8q0,1.2 .1,2.1q.6-3.1 1.3-8.9" fill="none" stroke="#ffffff" stroke-width="2.1"></path><path d="M20,81q-2.7-5.4 3.6-8.1q20.4-8.6 20.5,7.5q.1,8.2 -16.7,10.4q-.8-.8 -1.4-1.8" fill="none" stroke="#ffffff" stroke-width="2.1"></path><path d="M72,52q9.6,30.3 -2.2,42.4q-4.5,4.6 -7.6-4.1q-1.6-4.3 10.3-8.8" fill="none" stroke="#ffffff" stroke-width="2.3"></path><path d="M89,56q11.2,40.1 13.9,39.9q4.2-9.7 4.4-21.2q.3-12.3 7.7-21.4q0,2.5 -1,6.7" fill="none" stroke="#ffffff" stroke-width="2.5"></path><path d="M-272,29q38,25 64,32q33,8 61-1q15-4 17-9q2,0 3,0" fill="none" stroke="#ff0000" stroke-width="4"></path><path d="M-261,164q18,16 31,24" fill="none" stroke="#ff0000" stroke-width="3"></path><path d="M-258,125q15,10.4 33.7,31.5q6.1,7 11.1,12.6" fill="none" stroke="#ff0000" stroke-width="2.6"></path><path d="M-245,92q33.7,29 61,53" fill="none" stroke="#ff0000" stroke-width="2.2"></path><path d="M-218,83q22.6,16.5 49.5,44.5" fill="none" stroke="#ff0000" stroke-width="2.2"></path><path d="M-174,76q12.6,14.1 19.5,29.5" fill="none" stroke="#ff0000" stroke-width="2"></path><path d="M-151,70q7,8.9 11.5,22.5" fill="none" stroke="#ff0000" stroke-width="2.4"></path></svg>