<svg viewBox="-377 -157.8 346.75 409.8" width="346.75" height="409.8" version="1.1" baseProfile="full" xmlns="http://www.w3.org/2000/svg" class="js-draw--autoresize"><style id="js-draw-style-sheet">path{stroke-linecap:round;stroke-linejoin:round;}text{white-space:pre;}</style><g class="js-draw-image-background js-draw-image-background-grid js-draw-image-background-grid-25"><path d="M-30.25,252l0-409.8l-346.75,0l0,409.8l346.75,0" fill="none"></path><path d="M-377.35,-150l347.45,0m-347.45,25l347.45,0m-347.45,25l347.45,0m-347.45,25l347.45,0m-347.45,25l347.45,0m-347.45,25l347.45,0m-347.45,25l347.45,0m-347.45,25l347.45,0m-347.45,25l347.45,0m-347.45,25l347.45,0m-347.45,25l347.45,0m-347.45,25l347.45,0m-347.45,25l347.45,0m-347.45,25l347.45,0m-347.45,25l347.45,0m-347.45,25l347.45,0m-347.45,25l347.45,0m-345.1-408.15l0,410.5m25-410.5l0,410.5m25-410.5l0,410.5m25-410.5l0,410.5m25-410.5l0,410.5m25-410.5l0,410.5m25-410.5l0,410.5m25-410.5l0,410.5m25-410.5l0,410.5m25-410.5l0,410.5m25-410.5l0,410.5m25-410.5l0,410.5m25-410.5l0,410.5m25-410.5l0,410.5" fill="none" stroke="#80808033" stroke-width=".7"></path></g><path d="M-298,-87l0,335l-4,4l0-339l4,0" fill="#ffffff"></path><path d="M-98,-86l0,338l-204,0l4-4l196,0l0-334l4,0" fill="#ffffff"></path><path d="M-300,50q110,0 200,0" fill="none" stroke="#ffffff" stroke-width="2.5"></path><path d="M-155.4,36q0-50.1 -.1-50.1q-86,0 -86,0q0,50.1 .1,50.1q47.3,0 86,0" fill="none" stroke="#ffffff" stroke-width="2.3"></path><path d="M-226,8Q-230.6,7.2 -220.9,1.8Q-204.2,-7.4 -209.5,17Q-211.3,25.2 -212.7,21.8Q-214.6,17.1 -198.1,5Q-188.8,-1.8 -189.2,9.8Q-189.6,21.6 -193,17.9Q-196.3,14.3 -180.9,-.4Q-176.1,-5.1 -177.1,13.8Q-177.7,24.1 -170.9,18Q-168,13.2 -166,9" fill="none" stroke="#ffffff" stroke-width="2.6"></path><path d="M-256,123q-9.1-9.8 -3.5-26q2.3-6.9 16-7.5" fill="none" stroke="#348034" stroke-width="2.7"></path><path d="M-234,118q15.2-5.9 28-10" fill="none" stroke="#348034" stroke-width="2"></path><path d="M-195,131q2.2,9.9 4,18" fill="none" stroke="#348034" stroke-width="2"></path><path d="M-234,196q0-.5 0-1" fill="none" stroke="#348034" stroke-width="2"></path><path d="M-266,186q7.3-8.5 14-15" fill="none" stroke="#348034" stroke-width="2.2"></path><path d="M-192,129q9.2-16 20-12.3q3.8,1.3 7,39.7q2,15.7 4,28.6" fill="none" stroke="#348034" stroke-width="2.1"></path><path d="M-185,202q-9.9,.5 -18,1" fill="none" stroke="#348034" stroke-width="2.2"></path><path d="M-227,175q2.7-.6 5-1" fill="none" stroke="#348034" stroke-width="2.2"></path><path d="M-191,171q3.7-15.4 7-28" fill="none" stroke="#348034" stroke-width="2"></path><path d="M-168,95q1.1,3.3 2,6" fill="none" stroke="#348034" stroke-width="2.1"></path><path d="M-152,156q1.6,7.7 3,14" fill="none" stroke="#348034" stroke-width="2"></path><path d="M-260,158q3.3-2.3 6-4" fill="none" stroke="#348034" stroke-width="2.1"></path><path d="M-206,183q1.1,3.8 2,7" fill="none" stroke="#348034" stroke-width="2.1"></path><path d="M-288,-88q8.2-.3 15,0" fill="none" stroke="#ffffff" stroke-width="1.8"></path><path d="M-247,-87q35.1-5.3 47.5-3.5" fill="none" stroke="#ffffff" stroke-width="1.9"></path><path d="M-181,-88q4.9-.2 9,0" fill="none" stroke="#ffffff" stroke-width="1.7"></path><path d="M-148,-94q1.1,1.7 2,3" fill="none" stroke="#ffffff" stroke-width="1.6"></path><path d="M-118,-91q2.8,.5 5,1" fill="none" stroke="#ffffff" stroke-width="1.6"></path><path d="M-237,-108q.7-12.6 2-23" fill="none" stroke="#ffffff" stroke-width="1.9"></path><path d="M-236,-143q.9-5.5 2-10" fill="none" stroke="#ffffff" stroke-width="1.8"></path><path d="M-227,-157q.6,0 1,0" fill="none" stroke="#ffffff" stroke-width="1.6"></path><path d="M-202,-155q17.5,2.5 17,2" fill="none" stroke="#ffffff" stroke-width="1.6"></path><path d="M-172,-152q1.1-.1 2,0" fill="none" stroke="#ffffff" stroke-width="1.6"></path><path d="M-162,-148q1.1,.5 2,1" fill="none" stroke="#ffffff" stroke-width="1.6"></path><path d="M-157,-140q-4.6,17.3 -3,20" fill="none" stroke="#ffffff" stroke-width="1.6"></path><path d="M-164,-111q.2,.2 0,.2q-.2,0 -.2-.2q0-.2 .2-.2q.2,0 .2,.2" fill="none" stroke="#ffffff" stroke-width="1.6"></path><path d="M-183,-107q-11-.2 -20,0" fill="none" stroke="#ffffff" stroke-width="1.6"></path><path d="M-212,-106q-1.6-.6 -3-1" fill="none" stroke="#ffffff" stroke-width="1.6"></path><path d="M-224,-126q21.2-15.2 19.6-.5q-2,4 -4.2,7.1q3.5-4.9 10.1-14.1q.9,1.5 1.3,4.2q4.9-3.1 10.2-9.9q1.1,8.2 -.5,22.1q3.7-2.8 8.5-8.9" fill="none" stroke="#ffffff" stroke-width="2.4"></path><path d="M-137,53q13,30 40,45q22,12 38,3q1-2 0-3q1,2 1,4" fill="none" stroke="#ffffff" stroke-width="3"></path><path d="M-55,89q1.5,14.3 3,26" fill="none" stroke="#ffffff" stroke-width="2.6"></path><path d="M-62,83q3-9.1 16.4-8q9.2,.8 4.6,14.5q-3,9 -11.6,7.7q3.9-.6 10.9-.9q10-.5 7.6,13.5q-1.1,6.2 -13.4,7.7" fill="none" stroke="#ffffff" stroke-width="2.9"></path><path d="M-311,-88q-29,15 -26,33q4,7 7,12q5,7 -7,20q-2,1 -3,1q2,1 6,3q7,3 -2,33q-8,28 9,24q2,1 4,3" fill="none" stroke="#ffffff" stroke-width="3"></path><path d="M-372,-54q-3.7,46.7 -3.7,54.2q5.8-6.7 12.8-20.3q1.9-3.6 4.2,1.3q1.4,9.6 1.3,17.8q0,6.6 6.4,4.5q2.5-3.1 4-6.5" fill="none" stroke="#ffffff" stroke-width="2.6"></path></svg>