<svg viewBox="-294.25 -101 396.75 316.8" width="396.75" height="316.8" version="1.1" baseProfile="full" xmlns="http://www.w3.org/2000/svg" class="js-draw--autoresize"><style id="js-draw-style-sheet">path{stroke-linecap:round;stroke-linejoin:round;}text{white-space:pre;}</style><g class="js-draw-image-background js-draw-image-background-grid js-draw-image-background-grid-25"><path d="M102.5,215.8l0-316.8l-396.75,0l0,316.8l396.75,0" fill="none"></path><path d="M-294.6,-100l397.45,0m-397.45,25l397.45,0m-397.45,25l397.45,0m-397.45,25l397.45,0m-397.45,25l397.45,0m-397.45,25l397.45,0m-397.45,25l397.45,0m-397.45,25l397.45,0m-397.45,25l397.45,0m-397.45,25l397.45,0m-397.45,25l397.45,0m-397.45,25l397.45,0m-397.45,25l397.45,0m-377.85-301.35l0,317.5m25-317.5l0,317.5m25-317.5l0,317.5m25-317.5l0,317.5m25-317.5l0,317.5m25-317.5l0,317.5m25-317.5l0,317.5m25-317.5l0,317.5m25-317.5l0,317.5m25-317.5l0,317.5m25-317.5l0,317.5m25-317.5l0,317.5m25-317.5l0,317.5m25-317.5l0,317.5m25-317.5l0,317.5m25-317.5l0,317.5" fill="none" stroke="#80808033" stroke-width=".7"></path></g><path d="M-251,-97l0,247l2,0l0-247l2,0l-3-4l-3,4l2,0" fill="#ffffff"></path><path d="M96,148l-346,1l0,2l346,1l0,4l6-6l-6-6l0,4" fill="#ffffff"></path><path d="M-151,150L-149,150L-149,0L-151,0L-151,150" fill="#ffffff"></path><path d="M-1,150L1,150L1,50L-1,50L-1,150" fill="#ffffff"></path><path d="M-150,0q-.9-6.4 4.7-2.7q-1.5,1.1 -4.1,1.9q-5.7,1.7 -5.5-6.3q0-4.1 5.6,2.1q3.9,4.4 -1.1,5.3q-.9-1.7 -1.2-3.9q.6,.4 1.3,1.4q-.6,.7 -1.7,1.2" fill="none" stroke="#348034" stroke-width="2.5"></path><path d="M-150,-5Q-147,-1 -134,15Q-124,27 -102,39Q-86,43 -73,46Q-48,51 -47,51Q-17,53 -10,51Q-4,49 -4,49Q-4,49 -3,51" fill="none" stroke="#348034" stroke-width="4"></path><path d="M-4,52Q1.4,46.8 .7,51.1Q0,55.3 -3.3,50.7Q-7.4,45.1 -.2,46.5Q4.8,47.4 2,52.5Q.2,55.9 -3.2,51Q-6.3,46.5 .3,48.5Q3.1,49.4 2,53.3Q.8,52.7 -.5,51.3Q.5,51.6 2.2,52.4Q1.3,51.2 -.6,49.4Q.9,49 3.3,49.2Q2.9,50.9 1.5,52.8Q-.3,53.1 -2,53" fill="none" stroke="#348034" stroke-width="2.9"></path><path d="M-151,-5q-5.8-2.3 -2.2-4.1q3.6-1.9 7.2,2.5q-3.1,.6 -7.8,0q1.3-.8 3.8-1.8q3.9-1.4 5,5.4q.6,3.6 -6,1.2q-3.2-1.2 0-2.7q5.3-2.5 4.2,1.8q-1.4,5.3 -5-2.4q1.9-.4 4.6,.1q.3,1.2 0,2.7q-1.2-1.2 -2.5-3.6q1.6,1.1 4,3.5q-1.8-.5 -4.9-1.8q.4-1.2 1.4-2.4q-.2,1.5 -1,4q-1.6-1.2 -3.2-3.7q1.1,1 2.9,2.9q-1.5,.4 -3.9,.2q1.6-.1 4.6-.2q-.7,.7 -2.1,1.4q-.2-.8 -.1-2" fill="none" stroke="#348034" stroke-width="2.6"></path><path d="M-150,-3Q-152.7,-3.4 -151.7,-3.9Q-150.1,-4 -148.7,-3.7Q-149.5,-3.6 -151,-3.5Q-152.7,-4.2 -154,-5" fill="none" stroke="#348034" stroke-width="2.3"></path><path d="M-55,42q15,8 15,8q-11,4 -19,7q-1,1 0,1" fill="none" stroke="#ff0000" stroke-width="4"></path><path d="M-121,36q-3.2-19.9 -1.9-11.9q7.9,1.9 16.9-.1q1,0 1,0" fill="none" stroke="#ff0000" stroke-width="3"></path><path d="M-291,-82q-.3,27.9 -.7,18q-.8-16.2 -.3-16.3q19.6-3.5 10.5,8.8q-5.9,2.1 -11.5,2.5" fill="none" stroke="#348034" stroke-width="2.5"></path><path d="M81,163q-1.1-1.3 -1.4-1.5q2.4,7.5 8.4,18.5q6,11 9-4q2-11 4-20" fill="none" stroke="#348034" stroke-width="3"></path><path d="M-167,155q3.6,25.1 7.9,20.1q6.8-11.1 11.6-20.8" fill="none" stroke="#348034" stroke-width="2.8"></path><path d="M-149,179q-1.4,9 1.5,6.8q1.7-3.5 2.5-6.8" fill="none" stroke="#348034" stroke-width="2.3"></path><path d="M-149,168q.8-.2 4-1" fill="none" stroke="#348034" stroke-width="2.1"></path><path d="M-21,160q3.3,19.6 5.9,35.7q5.5-11 11.1-31.7" fill="none" stroke="#348034" stroke-width="2.7"></path><path d="M-4,204Q1.1,174.9 -2,176.6Q-5.4,192.6 -3.4,208.7Q-3.2,209.9 -4.6,214.7" fill="none" stroke="#348034" stroke-width="2.2"></path><path d="M-12,202q24.8-1.1 24-2" fill="none" stroke="#348034" stroke-width="2.5"></path></svg>