<svg viewBox="-369.2 -56.1 1165.6146827564955 469.35" width="1165.6146827564955" height="469.35" version="1.1" baseProfile="full" xmlns="http://www.w3.org/2000/svg" class="js-draw--autoresize"><style id="js-draw-style-sheet">path{stroke-linecap:round;stroke-linejoin:round;}text{white-space:pre;}</style><g class="js-draw-image-background js-draw-image-background-grid js-draw-image-background-grid-25"><path d="M796.4146827564955,413.25l0-469.35l-1165.6146827564955,2.1316282072803006e-14l0,469.35l1165.6146827564955,0" fill="none"></path><path d="M-369.55,-50l1166.3146827564956,0m-1166.3146827564956,25l1166.3146827564956,0m-1166.3146827564956,25l1166.3146827564956,0m-1166.3146827564956,25l1166.3146827564956,0m-1166.3146827564956,25l1166.3146827564956,0m-1166.3146827564956,25l1166.3146827564956,0m-1166.3146827564956,25l1166.3146827564956,0m-1166.3146827564956,25l1166.3146827564956,0m-1166.3146827564956,25l1166.3146827564956,0m-1166.3146827564956,25l1166.3146827564956,0m-1166.3146827564956,25l1166.3146827564956,0m-1166.3146827564956,25l1166.3146827564956,0m-1166.3146827564956,25l1166.3146827564956,0m-1166.3146827564956,25l1166.3146827564956,0m-1166.3146827564956,25l1166.3146827564956,0m-1166.3146827564956,25l1166.3146827564956,0m-1166.3146827564956,25l1166.3146827564956,0m-1166.3146827564956,25l1166.3146827564956,0m-1166.3146827564956,25l1166.3146827564956,0m-1146.7646827564956-456.45l0,470.05m25-470.05l0,470.05m25-470.05l0,470.05m25-470.05l0,470.05m25-470.05l0,470.05m25-470.05l0,470.05m25-470.05l0,470.05m25-470.05l0,470.05m25-470.05l0,470.05m25-470.05l0,470.05m25-470.05l0,470.05m25-470.05l0,470.05m25-470.05l0,470.05m25-470.05l0,470.05m25-470.05l0,470.05m25-470.05l0,470.05m25-470.05l0,470.05m25-470.05l0,470.05m25-470.05l0,470.05m25-470.05l0,470.05m25-470.05l0,470.05m25-470.05l0,470.05m25-470.05l0,470.05m25-470.05l0,470.05m25-470.05l0,470.05m25-470.05l0,470.05m25-470.05l0,470.05m25-470.05l0,470.05m25-470.05l0,470.05m25-470.05l0,470.05m25-470.05l0,470.05m25-470.05l0,470.05m25-470.05l0,470.05m25-470.05l0,470.05m25-470.05l0,470.05m25-470.05l0,470.05m25-470.05l0,470.05m25-470.05l0,470.05m25-470.05l0,470.05m25-470.05l0,470.05m25-470.05l0,470.05m25-470.05l0,470.05m25-470.05l0,470.05m25-470.05l0,470.05m25-470.05l0,470.05m25-470.05l0,470.05" fill="none" stroke="#80808033" stroke-width=".7"></path></g><path d="M795,355.2q0-141.9 -.2-141.9q-218.6,0 -218.6,.1q0,141.8 .3,141.8q120.2,0 218.5,0" fill="none" stroke="#348034" stroke-width="2.8"></path><path d="M606,278q.5,21.5 1,39q-.4-9.8 -1-28q-.5-14 21-14q0,4.1 -2,9q-1.6,3.9 -14,7q-.4,.1 -2-1" fill="none" stroke="#ffffff" stroke-width="2.6"></path><path d="M659,293q-3,8 -4,11" fill="none" stroke="#ffffff" stroke-width="2.4"></path><path d="M571,355.2q0-141.9 -.2-141.9q-218.6,0 -218.6,.1q0,141.8 .3,141.8q120.2,0 218.5,0" fill="none" stroke="#348034" stroke-width="2.8"></path><path d="M682,254q10.2,32.2 12,41q2,9 14-28q3-9 4-9" fill="none" stroke="#ffffff" stroke-width="3"></path><path d="M382,278q.5,21.5 1,39q-.4-9.8 -1-28q-.5-14 21-14q0,4.1 -2,9q-1.6,3.9 -14,7q-.4,.1 -2-1" fill="none" stroke="#ffffff" stroke-width="2.6"></path><path d="M574,162q0,137.5 0,250" fill="none" stroke="#ff0000" stroke-width="2.5"></path><path d="M408,297q6-5 9-11q1.7-3.4 0,19" fill="none" stroke="#ffffff" stroke-width="2.4"></path><path d="M435,293q-3,8 -4,11" fill="none" stroke="#ffffff" stroke-width="2.4"></path><path d="M458,254q10.2,32.2 12,41q2,9 14-28q3-9 4-9" fill="none" stroke="#ffffff" stroke-width="3"></path><path d="M483,299q6-6 9-12q.6,8.7 -1,24" fill="none" stroke="#ffffff" stroke-width="2.8"></path><path d="M129,88.2q0-141.9 -.2-141.9q-218.6,0 -218.6,.1q0,141.8 .3,141.8q120.2,0 218.5,0" fill="none" stroke="#348034" stroke-width="2.8"></path><path d="M-60,11Q-59.5,32.5 -59,50Q-59.4,40.2 -60,22Q-60.5,8 -39,8Q-39,12.1 -41,17Q-42.6,20.9 -55,24Q-55.4,24.1 -57,23" fill="none" stroke="#ffffff" stroke-width="2.6"></path><path d="M633,295q5-4 8-4q.1,8.5 -4,19q-.6,1.5 8,0" fill="none" stroke="#ffffff" stroke-width="2.6"></path><path d="M-7,26q-3,8 -4,11" fill="none" stroke="#ffffff" stroke-width="2.4"></path><path d="M707,292q3.3-3.3 6-6q5-5 5,5q-3.6,9 -8,16q5.4-2.6 14-9" fill="none" stroke="#ffffff" stroke-width="2.8"></path><path d="M-130,87.2q0-141.9 -.2-141.9q-218.6,0 -218.6,.1q0,141.8 .3,141.8q120.2,0 218.5,0" fill="none" stroke="#348034" stroke-width="2.8"></path><path d="M16,-13q10.2,32.2 12,41q2,9 14-28q3-9 4-9" fill="none" stroke="#ffffff" stroke-width="3"></path><path d="M-319,10Q-318.5,31.5 -318,49Q-318.4,39.2 -319,21Q-319.5,7 -298,7Q-298,11.1 -300,16Q-301.6,19.9 -314,23Q-314.4,23.1 -316,22" fill="none" stroke="#ffffff" stroke-width="2.6"></path><path d="M-293,29q6-5 9-11q1.7-3.4 0,19" fill="none" stroke="#ffffff" stroke-width="2.4"></path><path d="M-266,25q-3,8 -4,11" fill="none" stroke="#ffffff" stroke-width="2.4"></path><path d="M-243,-14q10.2,32.2 12,41q2,9 14-28q3-9 4-9" fill="none" stroke="#ffffff" stroke-width="3"></path><path d="M-218,31q6-6 9-12q.6,8.7 -1,24" fill="none" stroke="#ffffff" stroke-width="2.8"></path><path d="M-33,28q5-4 8-4q.1,8.5 -4,19q-.6,1.5 8,0" fill="none" stroke="#ffffff" stroke-width="2.6"></path><path d="M41,25q3.3-3.3 6-6q5-5 5,5q-3.6,9 -8,16q5.4-2.6 14-9" fill="none" stroke="#ffffff" stroke-width="2.8"></path><path d="M320,284l-214,0l0,4l214,0l0,4l6-6l-6-6l0,4" fill="#ffffff"></path><path d="M145,212q-3.9,23.1 -7,42q-1.6,9.6 8,0q3-3 3-11" fill="none" stroke="#ffffff" stroke-width="2.8"></path><path d="M135,232q8-1 12-1" fill="none" stroke="#ffffff" stroke-width="2.4"></path><path d="M168,237q16,2 16,6q0,1 -15,12q0,0 0-1" fill="none" stroke="#ffffff" stroke-width="3"></path><path d="M224,239q-2-3 -2-6q0-15 14-10q5,5 8,10q2,3 23-8q-5,3 -14,8q-9,5 -15,22q-4,11 11,1q4-3 7-6" fill="none" stroke="#ffffff" stroke-width="3"></path><path d="M75,340.2q0-141.9 -.2-141.9q-218.6,0 -218.6,.1q0,141.8 .3,141.8q120.2,0 218.5,0" fill="none" stroke="#348034" stroke-width="2.8"></path><path d="M-114,263q.5,21.5 1,39q-.4-9.8 -1-28q-.5-14 21-14q0,4.1 -2,9q-1.6,3.9 -14,7q-.4,.1 -2-1" fill="none" stroke="#ffffff" stroke-width="2.6"></path><path d="M-149,340.2q0-141.9 -.2-141.9q-218.6,0 -218.6,.1q0,141.8 .3,141.8q120.2,0 218.5,0" fill="none" stroke="#348034" stroke-width="2.8"></path><path d="M-61,278q-3,8 -4,11" fill="none" stroke="#ffffff" stroke-width="2.4"></path><path d="M-338,263q.5,21.5 1,39q-.4-9.8 -1-28q-.5-14 21-14q0,4.1 -2,9q-1.6,3.9 -14,7q-.4,.1 -2-1" fill="none" stroke="#ffffff" stroke-width="2.6"></path><path d="M-38,239q10.2,32.2 12,41q2,9 14-28q3-9 4-9" fill="none" stroke="#ffffff" stroke-width="3"></path><path d="M-146,147q0,137.5 0,250" fill="none" stroke="#ff0000" stroke-width="2.5"></path><path d="M-312,282q6-5 9-11q1.7-3.4 0,19" fill="none" stroke="#ffffff" stroke-width="2.4"></path><path d="M-285,278q-3,8 -4,11" fill="none" stroke="#ffffff" stroke-width="2.4"></path><path d="M-262,239q10.2,32.2 12,41q2,9 14-28q3-9 4-9" fill="none" stroke="#ffffff" stroke-width="3"></path><path d="M-237,284q6-6 9-12q.6,8.7 -1,24" fill="none" stroke="#ffffff" stroke-width="2.8"></path><path d="M-87,280q5-4 8-4q.1,8.5 -4,19q-.6,1.5 8,0" fill="none" stroke="#ffffff" stroke-width="2.6"></path><path d="M-13,277q3.3-3.3 6-6q5-5 5,5q-3.6,9 -8,16q5.4-2.6 14-9" fill="none" stroke="#ffffff" stroke-width="2.8"></path><path d="M428,242q0,9.9 0,18" fill="none" stroke="#ffffff" stroke-width="2.6"></path><path d="M505,237q1,15 1,18" fill="none" stroke="#ffffff" stroke-width="2.8"></path><path d="M648,253q-1.1,9.4 -2,17" fill="none" stroke="#ffffff" stroke-width="2.4"></path><path d="M727,238q-2,17 -2,22" fill="none" stroke="#ffffff" stroke-width="3"></path><path d="M411,68q1.7,24.2 3,44q-.6-14.4 -2-41q-.4-7.2 19-12q13.5-3.4 7,16q-5.2,15.6 -22,10q-1.3-1.9 -2-4" fill="none" stroke="#ffffff" stroke-width="2.7"></path><path d="M460,33q-2.7,9.9 -5,18" fill="none" stroke="#ffffff" stroke-width="2.4"></path><path d="M467,64q33,0 42,3q1,0 1,0" fill="none" stroke="#ffffff" stroke-width="3"></path><path d="M464,82q26-1 38-1" fill="none" stroke="#ffffff" stroke-width="3"></path><path d="M463,97q30-45 30-40" fill="none" stroke="#ffffff" stroke-width="2.9"></path><path d="M528,69q1,22 1,37q-.9-9.4 -2-27q-.8-12.3 14-16q11-2.7 11,14q0,4 -11,4q-1.1,0 -4-4" fill="none" stroke="#ffffff" stroke-width="2.8"></path><path d="M609,47q4.7,26.9 6,48q8.8-11.8 19-35q1.6-3.6 8-10" fill="none" stroke="#ffffff" stroke-width="3"></path><path d="M660,30q0,9.9 0,18" fill="none" stroke="#ffffff" stroke-width="2.5"></path><path d="M671,74q.2,.2 1,1q10,2 20,1q11,2 20,4" fill="none" stroke="#ffffff" stroke-width="3"></path><path d="M673,88q6,1 36,1q0,0 -1,2" fill="none" stroke="#ffffff" stroke-width="3"></path><path d="M675,106q14-23 26-41q0,0 0,2" fill="none" stroke="#ffffff" stroke-width="3"></path><path d="M723,57q6,21 9,46q1,9 4,6q0,0 12-31q11-29 15-22" fill="none" stroke="#ffffff" stroke-width="3"></path></svg>