<svg viewBox="-249.5 -81.5 382.5 218.5" width="382.5" height="218.5" version="1.1" baseProfile="full" xmlns="http://www.w3.org/2000/svg" class="js-draw--autoresize"><style id="js-draw-style-sheet">path{stroke-linecap:round;stroke-linejoin:round;}text{white-space:pre;}</style><g class="js-draw-image-background js-draw-image-background-grid js-draw-image-background-grid-25"><path d="M133,137l0-218.5l-382.5,0l0,218.5l382.5,0" fill="none"></path><path d="M-249.85,-75l383.2,0m-383.2,25l383.2,0m-383.2,25l383.2,0m-383.2,25l383.2,0m-383.2,25l383.2,0m-383.2,25l383.2,0m-383.2,25l383.2,0m-383.2,25l383.2,0m-383.2,25l383.2,0m-358.35-206.85l0,219.2m25-219.2l0,219.2m25-219.2l0,219.2m25-219.2l0,219.2m25-219.2l0,219.2m25-219.2l0,219.2m25-219.2l0,219.2m25-219.2l0,219.2m25-219.2l0,219.2m25-219.2l0,219.2m25-219.2l0,219.2m25-219.2l0,219.2m25-219.2l0,219.2m25-219.2l0,219.2m25-219.2l0,219.2" fill="none" stroke="#80808033" stroke-width=".7"></path></g><path d="M-201,-48l0,148l2,0l0-148l3,0l-4-3l-4,3l3,0" fill="#ffffff"></path><path d="M47,99l-247,0l0,2l247,0l0,2l4-3l-4-3l0,2" fill="#ffffff"></path><path d="M-162,2Q-162,-6 -157,-3Q-153,0 -161,3Q-164,4 -164,1Q-162,0 -160,0Q-160,-1 -161,-2" fill="none" stroke="#348034" stroke-width="4"></path><path d="M-166,-39q-9,19 -4,19q4-3 6-8" fill="none" stroke="#348034" stroke-width="3"></path><path d="M-167,-53q2.8-1.1 5-2" fill="none" stroke="#348034" stroke-width="2.1"></path><path d="M-15,0Q-19,-1 -16,-3Q-12,-5 -15,1Q-16,4 -19,2Q-17,0 -15,-1Q-15,-2 -17,-3" fill="none" stroke="#348034" stroke-width="4"></path><path d="M-16,-40q15-38 8-39q-1-1 -5,43q-1,7 -1,13" fill="none" stroke="#348034" stroke-width="3"></path><path d="M-158,-1Q-83,-1 -21,-1" fill="none" stroke="#ff0000" stroke-width="5"></path><path d="M-17,68Q-17,33 -17,33Q-17,20 -17,11Q-17,6 -17,3" fill="none" stroke="#ff0000" stroke-width="4"></path><path d="M-19,70q0-5 2-4q-1,3 -4,5q1-1 3-3q0,1 0,2q-1,0 -2-2q0,0 1,0q0-2 1-3q-1,0 -2,1" fill="none" stroke="#348034" stroke-width="4"></path><path d="M-9,70q-3,7 0,10q1-1 2-4" fill="none" stroke="#348034" stroke-width="3"></path><path d="M-6,57Q-6,56.4 -6,54" fill="none" stroke="#348034" stroke-width="2.9"></path><path d="M-19,0Q-13,-3 -16,3Q-19,8 -21,0Q-19,-2 -17,-2Q-17,-1 -19,0Q-18,0 -17,-1Q-18,-1 -19,-1" fill="none" stroke="#348034" stroke-width="4"></path><path d="M-167,-3Q-160,-6 -161,-3Q-162,-4 -163,-6Q-163,-5 -162,-3Q-162,-2 -162,-1Q-162,1 -161,2Q-162,1 -162,1" fill="none" stroke="#348034" stroke-width="4"></path><path d="M13,-3Q9,-20 21,-37Q22,-38 26,-37" fill="none" stroke="#348034" stroke-width="3"></path><path d="M32,-16q2,23 2,24q-1,2 0-15q0-23 10-16q7,4 -1,13q-4,4 -7-1" fill="none" stroke="#348034" stroke-width="3"></path><path d="M53,-21q3.3,0 6,0" fill="none" stroke="#348034" stroke-width="2.6"></path><path d="M53,-14q3.9-.5 7-1" fill="none" stroke="#348034" stroke-width="2.8"></path><path d="M73,-19q-5.6,8.3 -1.4,8.1q5.9-2.6 10.4-5.7q2.4,1.9 4.1,4.9q2.5,4.3 5.6-5.2q3.3-9.1 -6.7-8.1q-2,1 -3,3" fill="none" stroke="#348034" stroke-width="3"></path><path d="M97,-23q-4,10 0,11q3,0 0,3q-3,1 -5,1" fill="none" stroke="#348034" stroke-width="3"></path><path d="M106,-39q-1,32 -1,33q1,3 3,0q1-4 1-8" fill="none" stroke="#348034" stroke-width="3"></path><path d="M101,-23q8,0 9-1" fill="none" stroke="#348034" stroke-width="3"></path><path d="M-248,-59q3,26 5,27q0-3 -1-9" fill="none" stroke="#348034" stroke-width="3"></path><path d="M-245,-54q12-4 15,2q2,5 -11,7" fill="none" stroke="#348034" stroke-width="3"></path><path d="M126,-42q-3,0 -2,5q7,23 -1,38" fill="none" stroke="#348034" stroke-width="4"></path><path d="M14,70q-2-11 2-20q1-2 9-9" fill="none" stroke="#348034" stroke-width="3"></path><path d="M31,47q9,16 9,17q5-9 6-19" fill="none" stroke="#348034" stroke-width="3"></path><path d="M54,51q3.1-1.1 5,0" fill="none" stroke="#348034" stroke-width="3"></path><path d="M54,57q4.4-.6 8-1" fill="none" stroke="#348034" stroke-width="2.5"></path><path d="M76,51q-2,12 7.2,4.4q2.7-2.2 2.8-1.8q1,11.4 6,4.4q6-9 -1-11q-2,2 -3,4" fill="none" stroke="#348034" stroke-width="3"></path><path d="M103,50q-5,2 -1,4q3,3 -5,11" fill="none" stroke="#348034" stroke-width="3"></path><path d="M108,30q4,44 6,33q0-7 -1-13" fill="none" stroke="#348034" stroke-width="3"></path><path d="M108,42q13.4-.1 13,0" fill="none" stroke="#348034" stroke-width="2.6"></path><path d="M39,117q0-2 0-2q5,9 9,16q2,4 6-12q2-7 2-7" fill="none" stroke="#348034" stroke-width="4"></path></svg>