<svg viewBox="-404.25 -115 1063.25 390.3" width="1063.25" height="390.3" version="1.1" baseProfile="full" xmlns="http://www.w3.org/2000/svg" class="js-draw--autoresize"><style id="js-draw-style-sheet">path{stroke-linecap:round;stroke-linejoin:round;}text{white-space:pre;}</style><g class="js-draw-image-background js-draw-image-background-grid js-draw-image-background-grid-25"><path d="M659,275.3l0-390.3l-1063.25,0l0,390.3l1063.25,0" fill="none"></path><path d="M-404.6,-100l1063.95,0m-1063.95,25l1063.95,0m-1063.95,25l1063.95,0m-1063.95,25l1063.95,0m-1063.95,25l1063.95,0m-1063.95,25l1063.95,0m-1063.95,25l1063.95,0m-1063.95,25l1063.95,0m-1063.95,25l1063.95,0m-1063.95,25l1063.95,0m-1063.95,25l1063.95,0m-1063.95,25l1063.95,0m-1063.95,25l1063.95,0m-1063.95,25l1063.95,0m-1063.95,25l1063.95,0m-1063.95,25l1063.95,0m-1059.35-390.35l0,391m25-391l0,391m25-391l0,391m25-391l0,391m25-391l0,391m25-391l0,391m25-391l0,391m25-391l0,391m25-391l0,391m25-391l0,391m25-391l0,391m25-391l0,391m25-391l0,391m25-391l0,391m25-391l0,391m25-391l0,391m25-391l0,391m25-391l0,391m25-391l0,391m25-391l0,391m25-391l0,391m25-391l0,391m25-391l0,391m25-391l0,391m25-391l0,391m25-391l0,391m25-391l0,391m25-391l0,391m25-391l0,391m25-391l0,391m25-391l0,391m25-391l0,391m25-391l0,391m25-391l0,391m25-391l0,391m25-391l0,391m25-391l0,391m25-391l0,391m25-391l0,391m25-391l0,391m25-391l0,391m25-391l0,391m25-391l0,391" fill="none" stroke="#80808033" stroke-width=".7"></path></g><path d="M634.5,78.9q0-183.6 -.3-183.6q-343.4,0 -343.4,.2q0,183.4 .4,183.4q188.8,0 343.3,0" fill="none" stroke="#348034" stroke-width="2.3"></path><path d="M240,-76q-10-3 -15-2q-19,3.8 -19,24q7.2,8.4 16,14q10,6 -9,31q-6,8 -17,8q-.8,0 1-4" fill="none" stroke="#ffffff" stroke-width="2.9"></path><path d="M274,-22q8,0 34,0q8,0 349,0" fill="none" stroke="#ff0000" stroke-width="4"></path><path d="M222,-14q1.2,.2 6,1q2.8,.5 10-10q.9-1.3 -3,34q.9,.7 2,1" fill="none" stroke="#ffffff" stroke-width="2.4"></path><path d="M447,-105q-2.5,21.6 -4,26" fill="none" stroke="#ffffff" stroke-width="2.2"></path><path d="M435,-108q18-6 22-4" fill="none" stroke="#ffffff" stroke-width="2"></path><path d="M454,-82q9.8-12.6 8-9q-1.7,9.2 -2,17" fill="none" stroke="#ffffff" stroke-width="2"></path><path d="M451,28q-1.7,20 -3,28q-.5,1.1 -1,2" fill="none" stroke="#ffffff" stroke-width="2.1"></path><path d="M438,26q17.6-4 27-4" fill="none" stroke="#ffffff" stroke-width="2.1"></path><path d="M73,-28q-1-2 2-5q18.3-18.3 47-6q4.6,2 7,14q.2,1.2 1-6" fill="none" stroke="#ffffff" stroke-width="2.6"></path><path d="M458,67q1-6 8-12q11-9.4 11,2q-3.6,10.1 -8,18q-2,3.7 14,1" fill="none" stroke="#ffffff" stroke-width="2.1"></path><path d="M133,-42q1,8 1,21q.9-4.5 2-13q.6-4.8 -7-1q1.7-1.5 5-4q2.2-1.7 14,0q-4.8,6.1 -15,13q-.5,.4 -1,3" fill="none" stroke="#ffffff" stroke-width="2.3"></path><path d="M36.5,81.9q0-183.6 -.3-183.6q-343.4,0 -343.4,.2q0,183.4 .4,183.4q188.8,0 343.3,0" fill="none" stroke="#348034" stroke-width="2.3"></path><path d="M-358,-73q-10-3 -15-2q-19,3.8 -19,24q7.2,8.4 16,14q10,6 -9,31q-6,8 -17,8q-.8,0 1-4" fill="none" stroke="#ffffff" stroke-width="2.9"></path><path d="M39,2q0-50 -.3-50q-349.7,0 -349.7,0q0,50 .4,50q192.3,0 349.6,0" fill="none" stroke="#ff0000" stroke-width="2.8"></path><path d="M-376,-11q1.2,.2 6,1q2.8,.5 10-10q.9-1.3 -3,34q.9,.7 2,1" fill="none" stroke="#ffffff" stroke-width="2.4"></path><path d="M-309,-32q17.3-8.2 32-14" fill="none" stroke="#ff0000" stroke-width="2"></path><path d="M-297,-6q27.1-19.4 47.5-23.5" fill="none" stroke="#ff0000" stroke-width="2"></path><path d="M-216,-10q35.4-27.1 50.5-28.5" fill="none" stroke="#ff0000" stroke-width="2.1"></path><path d="M-161,3q44.3-22.5 75.5-30.5" fill="none" stroke="#ff0000" stroke-width="2.1"></path><path d="M-82,-3q14-10.9 37.7-19.3q4.4-1.6 23.3-3.7" fill="none" stroke="#ff0000" stroke-width="2"></path><path d="M-9,-12Q6.3,-23 28.5,-32.5" fill="none" stroke="#ff0000" stroke-width="2"></path><path d="M-151,-102q-2.5,21.6 -4,26" fill="none" stroke="#ffffff" stroke-width="2.2"></path><path d="M-163,-105q18-6 22-4" fill="none" stroke="#ffffff" stroke-width="2"></path><path d="M-144,-79q9.8-12.6 8-9q-1.7,9.2 -2,17" fill="none" stroke="#ffffff" stroke-width="2"></path><path d="M-147,31q-1.7,20 -3,28q-.5,1.1 -1,2" fill="none" stroke="#ffffff" stroke-width="2.1"></path><path d="M-160,29q17.6-4 27-4" fill="none" stroke="#ffffff" stroke-width="2.1"></path><path d="M-140,70q1-6 8-12q11-9.4 11,2q-3.6,10.1 -8,18q-2,3.7 14,1" fill="none" stroke="#ffffff" stroke-width="2.1"></path><path d="M-14,208q0-16 1-23q.4-3 -1,15q8.4-2 19-9q.4,8.3 -3,21" fill="none" stroke="#ffffff" stroke-width="2.5"></path><path d="M93,140q6.4-91.1 14-119q1.8-6.6 1-5q-3.2,6.5 4,21q-5.6-.9 -14-5q-4.5-2.2 7-6q1-.3 5-1" fill="none" stroke="#ffffff" stroke-width="2.4"></path><path d="M15,195q0,8 6,14q6.3,6.3 14-9q7.5-15 -6-15q-9,0 -9,16" fill="none" stroke="#ffffff" stroke-width="2.3"></path><path d="M43,202q0-7.7 0-14q.4,3.8 1,11q3.7-.1 8-2q2-.9 4,15" fill="none" stroke="#ffffff" stroke-width="2.4"></path><path d="M95,182q-3,4 -3,6q4.1,2.3 9,3q9.5,1.3 -5,11" fill="none" stroke="#ffffff" stroke-width="2.6"></path><path d="M111,183q-2.6,20.7 0,22q.7,.4 13-16q.6,9.2 -2,25" fill="none" stroke="#ffffff" stroke-width="2.4"></path><path d="M143,185q-9.5,8.3 -13,17q-4.3,10.7 5,7q.9-.4 4-3" fill="none" stroke="#ffffff" stroke-width="2.7"></path><path d="M167,185q-12,16.8 -12,22q0,4 12-4" fill="none" stroke="#ffffff" stroke-width="2.6"></path><path d="M189,187q0,10 2,11q4.7,2.3 8-11q.2-.9 -4-2q-5.4-1.5 -9,20q-1.8,10.8 12-3" fill="none" stroke="#ffffff" stroke-width="2.8"></path><path d="M234,134q-3,8 -3,16q0,49 -10,64q-1.9-3.3 -3-9q-.2-.9 20-7q11.8-3.5 8-15q-.9-2.7 -12,25q2.2,6.6 6,12q1.1,1.6 7-7" fill="none" stroke="#ffffff" stroke-width="2.5"></path><path d="M34,253q1.1-2.2 2-4q.6-1.3 1-7q0-.7 3,2q5.8,.3 11-1q2.9,6.8 3,16" fill="none" stroke="#ffffff" stroke-width="2.6"></path><path d="M64,237q-2,12 -3,15q-.6,1.8 9-3q1.5-.8 5-7q1.4,6.9 1,19" fill="none" stroke="#ffffff" stroke-width="2.3"></path><path d="M98,215q0,24.2 0,44q0,.4 1,2" fill="none" stroke="#ffffff" stroke-width="2.2"></path><path d="M113,217q-.4,23.1 -1,42q0,.4 1,2" fill="none" stroke="#ffffff" stroke-width="2.4"></path><path d="M131,244q5.6,18 3,18q-12,0 -6,12q4.5-.9 9-4" fill="none" stroke="#ffffff" stroke-width="2.6"></path></svg>