<svg viewBox="-337 -121 405 349.85" width="405" height="349.85" version="1.1" baseProfile="full" xmlns="http://www.w3.org/2000/svg" class="js-draw--autoresize"><style id="js-draw-style-sheet">path{stroke-linecap:round;stroke-linejoin:round;}text{white-space:pre;}</style><g class="js-draw-image-background js-draw-image-background-grid js-draw-image-background-grid-25"><path d="M68,228.85l0-349.85l-405,0l0,349.85l405,0" fill="none"></path><path d="M-337.35,-100l405.7,0m-405.7,25l405.7,0m-405.7,25l405.7,0m-405.7,25l405.7,0m-405.7,25l405.7,0m-405.7,25l405.7,0m-405.7,25l405.7,0m-405.7,25l405.7,0m-405.7,25l405.7,0m-405.7,25l405.7,0m-405.7,25l405.7,0m-405.7,25l405.7,0m-405.7,25l405.7,0m-405.7,25l405.7,0m-393.35-346.35l0,350.55m25-350.55l0,350.55m25-350.55l0,350.55m25-350.55l0,350.55m25-350.55l0,350.55m25-350.55l0,350.55m25-350.55l0,350.55m25-350.55l0,350.55m25-350.55l0,350.55m25-350.55l0,350.55m25-350.55l0,350.55m25-350.55l0,350.55m25-350.55l0,350.55m25-350.55l0,350.55m25-350.55l0,350.55m25-350.55l0,350.55" fill="none" stroke="#80808033" stroke-width=".7"></path></g><path d="M-301,-97l0,247l2,0l0-247l3,0l-4-4l-4,4l3,0" fill="#ffffff"></path><path d="M48,149l-348,0l0,2l348,0l0,1l3-2l-3-2l0,1" fill="#ffffff"></path><path d="M-201,136l0,14l2,0l0-14l-2,0" fill="#ffffff"></path><path d="M-201,111l0,14l2,0l0-14l-2,0" fill="#ffffff"></path><path d="M-201,85l0,15l2,0l0-15l-2,0" fill="#ffffff"></path><path d="M-201,61l0,14l2,0l0-14l-2,0" fill="#ffffff"></path><path d="M-201,37l0,14l2,0l0-14l-2,0" fill="#ffffff"></path><path d="M-201,20l0,6l2,0l0-6l-2,0" fill="#ffffff"></path><path d="M-201,-2L-201,10L-199,10L-199,-2L-201,-2" fill="#ffffff"></path><path d="M-201,-20l0,7l2,0l0-7l-2,0" fill="#ffffff"></path><path d="M-296,114q60-7 79-22q7-5 13-10q1-1 1-3q1,0 1,2" fill="none" stroke="#348034" stroke-width="4"></path><path d="M-199,-21q37-9 87-35q45-25 48-27q3-1 5-2" fill="none" stroke="#348034" stroke-width="4"></path><path d="M-241,176q0,20 -2,31" fill="none" stroke="#348034" stroke-width="3"></path><path d="M-248,170q12,1 22,1" fill="none" stroke="#348034" stroke-width="3"></path><path d="M-225,195q7-1 12-1" fill="none" stroke="#348034" stroke-width="3"></path><path d="M-222,203q6-1.2 11-2" fill="none" stroke="#348034" stroke-width="2.7"></path><path d="M-182,171q2,26 1,36" fill="none" stroke="#348034" stroke-width="3"></path><path d="M-192,166q23-1 23,0" fill="none" stroke="#348034" stroke-width="4"></path><path d="M-151,212q-1,12.6 -1.7,15.6" fill="none" stroke="#348034" stroke-width="2.5"></path><path d="M-153,209q4.3-10.7 14.5-4.7q5.9,3.5 -5.4,8.1q-4.7,2 -7.1-.4" fill="none" stroke="#348034" stroke-width="2.7"></path><path d="M-157,193q22,2 21,2" fill="none" stroke="#348034" stroke-width="4"></path><path d="M-335,-105q9,24 9,22q12-36 8-26q0,2 1,3" fill="none" stroke="#348034" stroke-width="4"></path><path d="M50,166q-1,16 -1,29" fill="none" stroke="#348034" stroke-width="4"></path><path d="M39,163q14,0 26,0q1,0 -2,1" fill="none" stroke="#348034" stroke-width="4"></path></svg>