<svg viewBox="-387.15 -97.2 289.15 349.2" width="289.15" height="349.2" version="1.1" baseProfile="full" xmlns="http://www.w3.org/2000/svg" class="js-draw--autoresize"><style id="js-draw-style-sheet">path{stroke-linecap:round;stroke-linejoin:round;}text{white-space:pre;}</style><g class="js-draw-image-background js-draw-image-background-grid js-draw-image-background-grid-25"><path d="M-98,252l0-349.2l-289.15-1.4210854715202004e-14l0,349.2l289.15,0" fill="none"></path><path d="M-387.5,-75l289.85,0m-289.85,25l289.85,0m-289.85,25l289.85,0m-289.85,25l289.85,0m-289.85,25l289.85,0m-289.85,25l289.85,0m-289.85,25l289.85,0m-289.85,25l289.85,0m-289.85,25l289.85,0m-289.85,25l289.85,0m-289.85,25l289.85,0m-289.85,25l289.85,0m-289.85,25l289.85,0m-289.85,25l289.85,0m-277.35-347.55l0,349.9m25-349.9l0,349.9m25-349.9l0,349.9m25-349.9l0,349.9m25-349.9l0,349.9m25-349.9l0,349.9m25-349.9l0,349.9m25-349.9l0,349.9m25-349.9l0,349.9m25-349.9l0,349.9m25-349.9l0,349.9m25-349.9l0,349.9" fill="none" stroke="#80808033" stroke-width=".7"></path></g><path d="M-298,-87l0,335l-4,4l0-339l4,0" fill="#ffffff"></path><path d="M-98,-86l0,338l-204,0l4-4l196,0l0-334l4,0" fill="#ffffff"></path><path d="M-300,50q110,0 200,0" fill="none" stroke="#ffffff" stroke-width="2.5"></path><path d="M-256,123q-9.1-9.8 -3.5-26q2.3-6.9 16-7.5" fill="none" stroke="#348034" stroke-width="2.7"></path><path d="M-234,118q15.2-5.9 28-10" fill="none" stroke="#348034" stroke-width="2"></path><path d="M-195,131q2.2,9.9 4,18" fill="none" stroke="#348034" stroke-width="2"></path><path d="M-234,196q0-.5 0-1" fill="none" stroke="#348034" stroke-width="2"></path><path d="M-266,186q7.3-8.5 14-15" fill="none" stroke="#348034" stroke-width="2.2"></path><path d="M-192,129q9.2-16 20-12.3q3.8,1.3 7,39.7q2,15.7 4,28.6" fill="none" stroke="#348034" stroke-width="2.1"></path><path d="M-185,202q-9.9,.5 -18,1" fill="none" stroke="#348034" stroke-width="2.2"></path><path d="M-227,175q2.7-.6 5-1" fill="none" stroke="#348034" stroke-width="2.2"></path><path d="M-191,171q3.7-15.4 7-28" fill="none" stroke="#348034" stroke-width="2"></path><path d="M-168,95q1.1,3.3 2,6" fill="none" stroke="#348034" stroke-width="2.1"></path><path d="M-152,156q1.6,7.7 3,14" fill="none" stroke="#348034" stroke-width="2"></path><path d="M-260,158q3.3-2.3 6-4" fill="none" stroke="#348034" stroke-width="2.1"></path><path d="M-206,183q1.1,3.8 2,7" fill="none" stroke="#348034" stroke-width="2.1"></path><path d="M-301,-40q10.4-.4 19,0" fill="none" stroke="#ffffff" stroke-width="1.6"></path><path d="M-255,-38q8.8,.3 16,1" fill="none" stroke="#ffffff" stroke-width="1.6"></path><path d="M-227,-37q6-1.2 11-2" fill="none" stroke="#ffffff" stroke-width="1.6"></path><path d="M-185,-43q13.1,3.1 13,3" fill="none" stroke="#ffffff" stroke-width="1.6"></path><path d="M-144,-40q18.7-1.1 34-2q.5,.8 .7,1.8q1.5,0 3.3-.8" fill="none" stroke="#ffffff" stroke-width="1.6"></path><path d="M-315,-41q-17.2,4.7 -14.2,19.8q5.2,7.5 10.8,13q4.5,4.3 -8.5,16.5q-.4,.4 -.7,.6q1.6,1.1 4.4,1.7q4,.9 -.6,25.7q-1.7,8.8 7.7,10.5q.7,.1 3.1-1.8" fill="none" stroke="#ffffff" stroke-width="2.5"></path><path d="M-386,-18q-.1,40.4 6.1,42q6.6-3.5 11.6-8.6q5.8-6 12.6,6.1q2,6.3 3.2,11.6q6-2.6 12.5-9.1" fill="none" stroke="#ffffff" stroke-width="2.1"></path><path d="M-238,-94q-2.1,15.1 -3.7,27.5q.5-.9 1.1-2.7q1.6-4.8 10.6,1.8q8.3,6.2 -3.1,18.9q-6.9,7.6 -10.1,2.3q-2.4-3.9 9.9-5.2q15.8-1.6 5.1,24.8q-6.2,15.5 -16,13.3q-6.2-1.4 6-9.8q10.8-7.3 12.9,10.8q2.1,18 -16.4,25.6q-9.7,3.9 -2.9-8.9q7.3-13.9 21-3.6q9.1,6.9 -6.3,23.7q-6.8,7.4 -9.3-1q.4-.2 .9-.3q3.1-.3 .7,26.5q.2-.9 .6-2.7" fill="none" stroke="#ffffff" stroke-width="2.4"></path><path d="M-152,-96q-.8,10.4 -1.5,18.9q-.4,5.4 8.6-4q5.6-5.7 -5.1-4.5q-15,1.7 -9.9,12.5q5.6,3.9 11.3,6.2q7.7,3 8.2-6.4q.4-5.2 -12.1-1q-6.3,2 -2.6,13.1q1.6,4.7 4.9,2.6q.5-.2 1-.3q0,0 -2.3,11.7q-.5,2.2 -.5,2.2" fill="none" stroke="#ffffff" stroke-width="2.4"></path></svg>