<svg viewBox="-454 -175.35 616 446.2" width="616" height="446.2" version="1.1" baseProfile="full" xmlns="http://www.w3.org/2000/svg" class="js-draw--autoresize"><style id="js-draw-style-sheet">path{stroke-linecap:round;stroke-linejoin:round;}text{white-space:pre;}</style><g class="js-draw-image-background js-draw-image-background-grid js-draw-image-background-grid-25"><path d="M162,270.85l0-446.2l-616,2.842170943040401e-14l0,446.2l616,0" fill="none"></path><path d="M-454.35,-175l616.7,0m-616.7,25l616.7,0m-616.7,25l616.7,0m-616.7,25l616.7,0m-616.7,25l616.7,0m-616.7,25l616.7,0m-616.7,25l616.7,0m-616.7,25l616.7,0m-616.7,25l616.7,0m-616.7,25l616.7,0m-616.7,25l616.7,0m-616.7,25l616.7,0m-616.7,25l616.7,0m-616.7,25l616.7,0m-616.7,25l616.7,0m-616.7,25l616.7,0m-616.7,25l616.7,0m-616.7,25l616.7,0m-612.35-425.7l0,446.9m25-446.9l0,446.9m25-446.9l0,446.9m25-446.9l0,446.9m25-446.9l0,446.9m25-446.9l0,446.9m25-446.9l0,446.9m25-446.9l0,446.9m25-446.9l0,446.9m25-446.9l0,446.9m25-446.9l0,446.9m25-446.9l0,446.9m25-446.9l0,446.9m25-446.9l0,446.9m25-446.9l0,446.9m25-446.9l0,446.9m25-446.9l0,446.9m25-446.9l0,446.9m25-446.9l0,446.9m25-446.9l0,446.9m25-446.9l0,446.9m25-446.9l0,446.9m25-446.9l0,446.9m25-446.9l0,446.9m25-446.9l0,446.9" fill="none" stroke="#80808033" stroke-width=".7"></path></g><path d="M-291,-102l420,0l0,4l-420,0l0-4" fill="#ffffff"></path><path d="M-291,248l1,0l401,0l0,4l-402,0l0-4" fill="#ffffff"></path><path d="M-293,-52l1,0l413,0l0,4l-414,0l0-4" fill="#ffffff"></path><path d="M-286,198l1,0l398,0l0,4l-399,0l0-4" fill="#ffffff"></path><path d="M-51,201l2-2l48,0l0-248l-48,0l0,248l-2,2l0-252l52,0l0,252l-52,0" fill="#ffffff"></path><path d="M64,-51q15.6-19 29-34" fill="none" stroke="#ffffff" stroke-width="1.8"></path><path d="M-2,-56Q13.9,-72 27,-85" fill="none" stroke="#ffffff" stroke-width="1.8"></path><path d="M-71,-54q11.9-13.4 22-24" fill="none" stroke="#ffffff" stroke-width="1.8"></path><path d="M-145,-57q7.4-9.2 32.5-27.5" fill="none" stroke="#ffffff" stroke-width="1.8"></path><path d="M-187,-63q15.3-15.5 28-28" fill="none" stroke="#ffffff" stroke-width="1.9"></path><path d="M-238,-62q12.4-9.1 23-16" fill="none" stroke="#ffffff" stroke-width="1.9"></path><path d="M-293,-47q16.4-15 30-27" fill="none" stroke="#ffffff" stroke-width="1.8"></path><path d="M-233,238q7.7-4.1 33.8-14.6q27.5-11.1 27.2-11.4" fill="none" stroke="#ffffff" stroke-width="1.9"></path><path d="M-168,242q45.9-21.1 42-25" fill="none" stroke="#ffffff" stroke-width="2.3"></path><path d="M-103,238q29.8-21.7 65.5-36.5" fill="none" stroke="#ffffff" stroke-width="2.4"></path><path d="M-20,236q41.7-18.7 75.5-34.5" fill="none" stroke="#ffffff" stroke-width="2.2"></path><path d="M49,250q55.4-29.6 55-30" fill="none" stroke="#ffffff" stroke-width="2.2"></path><path d="M-35,191q14.8-23.7 27-43" fill="none" stroke="#ffffff" stroke-width="2.2"></path><path d="M-51,153q39.9-47.1 39-48" fill="none" stroke="#ffffff" stroke-width="2.1"></path><path d="M-48,117q41.3-49.7 38-53" fill="none" stroke="#ffffff" stroke-width="2"></path><path d="M-39,70q27-41 26-42" fill="none" stroke="#ffffff" stroke-width="2.1"></path><path d="M-39,22q2-4.6 9.8-14.6q8.3-10.1 15.2-18.4" fill="none" stroke="#ffffff" stroke-width="2"></path><path d="M-39,-10q11.9-11.2 22-20" fill="none" stroke="#ffffff" stroke-width="1.9"></path><path d="M-240,9Q-242.4,7.5 -241.8,7.3Q-235.4,6.7 -230,7" fill="none" stroke="#348034" stroke-width="2.7"></path><path d="M-146,-9Q-143.6,-9.3 -143.1,-8.9Q-143.8,-7.9 -145,-7" fill="none" stroke="#348034" stroke-width="2.5"></path><path d="M-164,43q-1.4,7.6 -2,14" fill="none" stroke="#348034" stroke-width="2.8"></path><path d="M-243,77q-1,0 -2,0" fill="none" stroke="#348034" stroke-width="4"></path><path d="M-222,76q0-.5 0-1" fill="none" stroke="#348034" stroke-width="2"></path><path d="M-181,35q2.1-2.1 7.5,.5" fill="none" stroke="#348034" stroke-width="2"></path><path d="M-198,118q-1.1,1 -2,2" fill="none" stroke="#348034" stroke-width="2"></path><path d="M-250,146q2.5,.1 7,1" fill="none" stroke="#348034" stroke-width="2.2"></path><path d="M-148,151q-2.3,7.1 -4,13" fill="none" stroke="#348034" stroke-width="2.4"></path><path d="M-179,105q-10.3,2.6 -15.5,2.4q-.9,0 .5-4.4" fill="none" stroke="#348034" stroke-width="2.6"></path><path d="M-141,158q-3.9,5.5 -7,10" fill="none" stroke="#348034" stroke-width="2.1"></path><path d="M-120,82q-2.9-5 -.5-10.5" fill="none" stroke="#348034" stroke-width="2.6"></path><path d="M-98,140q1.7,1.7 3,3" fill="none" stroke="#348034" stroke-width="2.7"></path><path d="M-137,111q.6,.6 1,1" fill="none" stroke="#348034" stroke-width="2.1"></path><path d="M30,72q105-13 130-8q-6,1 -17,1" fill="none" stroke="#348034" stroke-width="4"></path><path d="M28,68q18-17 18-17q0,1 -1,44q-5-3 -12-11q-5-6 -12-6q2,1 6,1" fill="none" stroke="#348034" stroke-width="4"></path><path d="M87,10Q92,27 96,41" fill="none" stroke="#348034" stroke-width="3"></path><path d="M82,10Q105,2 122,0" fill="none" stroke="#348034" stroke-width="3"></path><path d="M89,26q20-5 37-8" fill="none" stroke="#348034" stroke-width="3"></path><path d="M69,-12q31-4 57-8q-2-5 -8-10q0,6 3,17q0-7 -1-19q5,2 11,7q-4,8 -13,13q1,1 2,2" fill="none" stroke="#348034" stroke-width="4"></path><path d="M-300,-174q3.5,443.4 3.5,443.5" fill="none" stroke="#ff0000" stroke-width="2.7"></path><path d="M-454,202l4-4l146,0l0-296l-146,0l0,296l-4,4l0-304l154,0l0,304l-154,0" fill="#ffffff"></path><path d="M-379,-1Q-377,82 -378,94Q-378,88 -378,77" fill="none" stroke="#348034" stroke-width="4"></path><path d="M-398,-3Q-341,-3 -332,0Q-334,0 -337,-1" fill="none" stroke="#348034" stroke-width="4"></path></svg>