<svg viewBox="-372.1 -87.6 800.5 425.85" width="800.5" height="425.85" version="1.1" baseProfile="full" xmlns="http://www.w3.org/2000/svg" class="js-draw--autoresize"><style id="js-draw-style-sheet">path{stroke-linecap:round;stroke-linejoin:round;}text{white-space:pre;}</style><g class="js-draw-image-background js-draw-image-background-grid js-draw-image-background-grid-25"><path d="M428.4,338.25l0-425.85l-800.5,1.4210854715202004e-14l0,425.85l800.5,0" fill="none"></path><path d="M-372.45,-75l801.2,0m-801.2,25l801.2,0m-801.2,25l801.2,0m-801.2,25l801.2,0m-801.2,25l801.2,0m-801.2,25l801.2,0m-801.2,25l801.2,0m-801.2,25l801.2,0m-801.2,25l801.2,0m-801.2,25l801.2,0m-801.2,25l801.2,0m-801.2,25l801.2,0m-801.2,25l801.2,0m-801.2,25l801.2,0m-801.2,25l801.2,0m-801.2,25l801.2,0m-801.2,25l801.2,0m-778.75-412.95l0,426.55m25-426.55l0,426.55m25-426.55l0,426.55m25-426.55l0,426.55m25-426.55l0,426.55m25-426.55l0,426.55m25-426.55l0,426.55m25-426.55l0,426.55m25-426.55l0,426.55m25-426.55l0,426.55m25-426.55l0,426.55m25-426.55l0,426.55m25-426.55l0,426.55m25-426.55l0,426.55m25-426.55l0,426.55m25-426.55l0,426.55m25-426.55l0,426.55m25-426.55l0,426.55m25-426.55l0,426.55m25-426.55l0,426.55m25-426.55l0,426.55m25-426.55l0,426.55m25-426.55l0,426.55m25-426.55l0,426.55m25-426.55l0,426.55m25-426.55l0,426.55m25-426.55l0,426.55m25-426.55l0,426.55m25-426.55l0,426.55m25-426.55l0,426.55m25-426.55l0,426.55m25-426.55l0,426.55" fill="none" stroke="#80808033" stroke-width=".7"></path></g><path d="M41.7,289.9q0-131 -.2-131q-183.1,0 -183.1,.2q0,130.8 .1,130.8q100.5,.1 183.5,.1" fill="none" stroke="#348034" stroke-width="3"></path><path d="M-174.3,289.9q0-131 -.2-131q-183.1,0 -183.1,.2q0,130.8 .1,130.8q100.5,.1 183.5,.1" fill="none" stroke="#348034" stroke-width="3"></path><path d="M-295,206q0,.2 0,1q0,2 16-14q2-2 2,17q0,1 0,7" fill="none" stroke="#ffffff" stroke-width="3"></path><path d="M-70,201q7-7 15-10q1.8-.7 9,4q1,0 -15,16q-2,2 15,2q1,0 5-1" fill="none" stroke="#ffffff" stroke-width="3"></path><path d="M-314,22q7-5 8-7q.2,5 -1,14" fill="none" stroke="#ffffff" stroke-width="2.5"></path><path d="M-280,273q-5,8 -6,9" fill="none" stroke="#ffffff" stroke-width="2.6"></path><path d="M-255,244q7,22 10,28q0,1 14-33" fill="none" stroke="#ffffff" stroke-width="3"></path><path d="M-232,273q5-3 7-3q3,0 0,14q0,0 0,1" fill="none" stroke="#ffffff" stroke-width="3"></path><path d="M-83,268q5-1 5,2q-2.2,4 -5,7q2.6-.8 7-3" fill="none" stroke="#ffffff" stroke-width="2.7"></path><path d="M-135.8,336.8q0-237.6 -.1-237.6q-39.2,0 -39.2,.2q0,237.4 0,237.4q21.6,0 39.3,0" fill="none" stroke="#ff0000" stroke-width="2.9"></path><path d="M-55,267q-4.7,11 -7,11" fill="none" stroke="#ffffff" stroke-width="2.8"></path><path d="M-37,250q7,18 12,28q5-10 8-29q0,0 2,0" fill="none" stroke="#ffffff" stroke-width="3"></path><path d="M-14,272q8-2 10-2q1,0 -9,20q-1.7,3.3 11-3" fill="none" stroke="#ffffff" stroke-width="2.8"></path><path d="M28.7,44.9q0-131 -.2-131q-183.1,0 -183.1,.2q0,130.8 .1,130.8q100.5,.1 183.5,.1" fill="none" stroke="#348034" stroke-width="3"></path><path d="M-187.3,44.9q0-131 -.2-131q-183.1,0 -183.1,.2q0,130.8 .1,130.8q100.5,.1 183.5,.1" fill="none" stroke="#348034" stroke-width="3"></path><path d="M-308,-39q0,.2 0,1q0,2 16-14q2-2 2,17q0,1 0,7" fill="none" stroke="#ffffff" stroke-width="3"></path><path d="M-83,-44q7-7 15-10q1.8-.7 9,4q1,0 -15,16q-2,2 15,2q1,0 5-1" fill="none" stroke="#ffffff" stroke-width="3"></path><path d="M-293,28q-5,8 -6,9" fill="none" stroke="#ffffff" stroke-width="2.6"></path><path d="M-268,-1Q-261,21 -258,27Q-258,28 -244,-6" fill="none" stroke="#ffffff" stroke-width="3"></path><path d="M-245,28q5-3 7-3q3,0 0,14q0,0 0,1" fill="none" stroke="#ffffff" stroke-width="3"></path><path d="M-96,23q5-1 5,2q-2.2,4 -5,7q2.6-.8 7-3" fill="none" stroke="#ffffff" stroke-width="2.7"></path><path d="M-68,22q-4.7,11 -7,11" fill="none" stroke="#ffffff" stroke-width="2.8"></path><path d="M-50,5Q-43,23 -38,33Q-33,23 -30,4Q-30,4 -28,4" fill="none" stroke="#ffffff" stroke-width="3"></path><path d="M-27,27q8-2 10-2q1,0 -9,20q-1.7,3.3 11-3" fill="none" stroke="#ffffff" stroke-width="2.8"></path><path d="M-175,132q13.8-10.6 30.1-18.2" fill="none" stroke="#ff0000" stroke-width="2.3"></path><path d="M-180,172q21.2-19 28.5-22" fill="none" stroke="#ff0000" stroke-width="2.5"></path><path d="M-174,211q15.8-14.4 29-26" fill="none" stroke="#ff0000" stroke-width="2.1"></path><path d="M-170,255q12.9-18.4 21.4-26.3" fill="none" stroke="#ff0000" stroke-width="2.3"></path><path d="M-165,295q9.7-10.7 18-19" fill="none" stroke="#ff0000" stroke-width="2.2"></path><path d="M-163,327q9.3-11.6 17-21" fill="none" stroke="#ff0000" stroke-width="2.4"></path><path d="M-310,264q8,0 10-4q.5,.3 1,1q.5,9 -1,17" fill="none" stroke="#ffffff" stroke-width="2.7"></path><path d="M73,215q4,29 8,52q1,5 3-8q3-17 21-44q-2,2 -6,5" fill="none" stroke="#ffffff" stroke-width="3"></path><path d="M69,237q18,0 21,3" fill="none" stroke="#ffffff" stroke-width="2.8"></path><path d="M119,256q-1.1,20.9 -2,38q0,.6 2-2" fill="none" stroke="#ffffff" stroke-width="2.8"></path><path d="M121,256q8-6 10-6q13.5,0 15,1q11.1,7.4 -8,17q-6,3 -8-1" fill="none" stroke="#ffffff" stroke-width="2.4"></path><path d="M148,277q5,0 8-3q.8-.8 3-5q-.4,7.2 -3,20" fill="none" stroke="#ffffff" stroke-width="2.5"></path><path d="M188,269q-6,12 -7,13" fill="none" stroke="#ffffff" stroke-width="2.2"></path><path d="M219,256q-1.3,26.4 -3,48q0,.4 1-2" fill="none" stroke="#ffffff" stroke-width="2.6"></path><path d="M220,257q10-8 15-9q12.2-2.4 15,6q1.7,5.1 -18,15q-1.4,.7 -8,0q-.6-.1 2-2" fill="none" stroke="#ffffff" stroke-width="2.6"></path><path d="M247,276q3-4 7-5q10.8-2.7 2,9q-10.5,14 -3,14q6,0 14-2" fill="none" stroke="#ffffff" stroke-width="2.8"></path><path d="M282,278q-5.5,9.3 -10,17" fill="none" stroke="#ffffff" stroke-width="2.6"></path><path d="M313,239q10,28 13,40q1,5 28-48" fill="none" stroke="#ffffff" stroke-width="3"></path><path d="M345,282q7-8 8-6q.2,.3 -5,21" fill="none" stroke="#ffffff" stroke-width="2.5"></path><path d="M370,281q-7,19.8 -7,21" fill="none" stroke="#ffffff" stroke-width="2.5"></path><path d="M384,235q7,42 9,50q2,6 9-9q3-5 13-47q0-.2 0-1" fill="none" stroke="#ffffff" stroke-width="3"></path><path d="M414,276q7-3 9-2q4,2 -6,17q-6.7,10 7,10q1.7-.9 3-2" fill="none" stroke="#ffffff" stroke-width="2.8"></path><path d="M-340,19Q-341,35 -341,40Q-340.5,29.9 -340,11Q-339.9,7 -327,7Q-315.2,7 -323,20Q-328.5,29.2 -339,24" fill="none" stroke="#ffffff" stroke-width="2.5"></path><path d="M-125,5Q-122,12 -122,21Q-122,22.6 -123,29Q-123.8,20.9 -124,6Q-124.1,.5 -106,5Q-99.7,6.6 -106,16Q-107.8,18.7 -122,16" fill="none" stroke="#ffffff" stroke-width="2.5"></path><path d="M-110,237q0,20.4 0,37q.9-11.9 2-34q.1-2 18-5q13.1-2.2 5,14q-2.5,5 -18,5" fill="none" stroke="#ffffff" stroke-width="2.7"></path><path d="M-341,252q4,24 4,25q-.4-7.3 -1-21q0-.8 0-4q.1-9.3 14-1q-.5,7.5 -4,15q-1.1,2.4 -13-1" fill="none" stroke="#ffffff" stroke-width="2.7"></path></svg>