<svg viewBox="-345.1 -229.8 652.5 432.25" width="652.5" height="432.25" version="1.1" baseProfile="full" xmlns="http://www.w3.org/2000/svg" class="js-draw--autoresize"><style id="js-draw-style-sheet">path{stroke-linecap:round;stroke-linejoin:round;}text{white-space:pre;}</style><g class="js-draw-image-background js-draw-image-background-grid js-draw-image-background-grid-25"><path d="M307.4,202.45l0-432.25l-652.5,0l0,432.25l652.5,0" fill="none"></path><path d="M-345.45,-225l653.2,0m-653.2,25l653.2,0m-653.2,25l653.2,0m-653.2,25l653.2,0m-653.2,25l653.2,0m-653.2,25l653.2,0m-653.2,25l653.2,0m-653.2,25l653.2,0m-653.2,25l653.2,0m-653.2,25l653.2,0m-653.2,25l653.2,0m-653.2,25l653.2,0m-653.2,25l653.2,0m-653.2,25l653.2,0m-653.2,25l653.2,0m-653.2,25l653.2,0m-653.2,25l653.2,0m-653.2,25l653.2,0m-632.75-430.15l0,432.95m25-432.95l0,432.95m25-432.95l0,432.95m25-432.95l0,432.95m25-432.95l0,432.95m25-432.95l0,432.95m25-432.95l0,432.95m25-432.95l0,432.95m25-432.95l0,432.95m25-432.95l0,432.95m25-432.95l0,432.95m25-432.95l0,432.95m25-432.95l0,432.95m25-432.95l0,432.95m25-432.95l0,432.95m25-432.95l0,432.95m25-432.95l0,432.95m25-432.95l0,432.95m25-432.95l0,432.95m25-432.95l0,432.95m25-432.95l0,432.95m25-432.95l0,432.95m25-432.95l0,432.95m25-432.95l0,432.95m25-432.95l0,432.95m25-432.95l0,432.95" fill="none" stroke="#80808033" stroke-width=".7"></path></g><path d="M-302,-147l1,297l2,0l1-297l3,0l-5-5l-5,5l3,0" fill="#ffffff"></path><path d="M47,148l-347,1l0,2l347,1l0,3l5-5l-5-5l0,3" fill="#ffffff"></path><path d="M-300,147q51-31 82-68q36-43 48-98q12-52 13-63q-1-15 -2-27q0,0 1,0" fill="none" stroke="#348034" stroke-width="5"></path><path d="M-175,0q-1-3 -1-3q0,0 0,0q2,0 4,0q-1,2 -4,3q1-2 3-5q1,1 2,3q-3,1 -6,0q1-2 3-5q2,2 2,4q2,4 -4,3q-5,0 1-6q4.5-4.5 6.7,1.3q1.7,4.4 -7.9,3.7q-7.4-.5 -1.6-5.8q5-4.6 8.2,4.9q1.6,4.9 -5,3.1q-3.9-1 -.3-6.6q3.4-5.2 4.3,2.4q.6,4.9 -5,3.2q-5.4-1.7 .8-4.5q1.4,1 2.4,2.4q-2.1-.3 -5.3-1.6q.9,.3 2.6,.9q-.2,.8 -.9,1.6" fill="none" stroke="#348034" stroke-width="2.9"></path><path d="M-174,-1q38-8 58-22q33-21 47-51q4-7 8-12" fill="none" stroke="#348034" stroke-width="4"></path><path d="M-275,-38q-15,9 -5,9q9,0 4,5q-4,0 -7-1" fill="none" stroke="#348034" stroke-width="3"></path><path d="M-266,-31q-2.9,12.9 5.8,5.7q10.7-8.8 .7-10.4q-4.3,2.4 -7.5,5.7" fill="none" stroke="#348034" stroke-width="2.6"></path><path d="M-252,-48q2.1,12.7 4,23" fill="none" stroke="#348034" stroke-width="2.8"></path><path d="M-244,-26q0,1.1 0,2" fill="none" stroke="#348034" stroke-width="2"></path><path d="M-243,-39q1.1-1.1 2-2" fill="none" stroke="#348034" stroke-width="2.7"></path><path d="M-237,-48q6.7,27.6 2.4,27.5q-3-.1 -1.4-7.2q1.4-1.4 3-2.3" fill="none" stroke="#348034" stroke-width="2.4"></path><path d="M-224,-24q1.1-8.4 8.9-4.1q5.9,3.2 -4.1,5q-1.8,.3 -4.8-2.9" fill="none" stroke="#348034" stroke-width="2.3"></path><path d="M-153,-73q1,13.2 2,24" fill="none" stroke="#348034" stroke-width="2.7"></path><path d="M-147,-53q.1,2.7 0,5" fill="none" stroke="#348034" stroke-width="2"></path><path d="M-146,-63q.4,.4 2,2" fill="none" stroke="#348034" stroke-width="2"></path><path d="M-138,-54q-4.8,9.5 -1.3,8.5q5.1-1.4 4.9-13.2q0-1.8 -2.5,15.3q-.1,4.1 -.1,7.4" fill="none" stroke="#348034" stroke-width="2.8"></path><path d="M-130,-54q.8,9.9 3.7,6q3.3-4.4 3.3-6" fill="none" stroke="#348034" stroke-width="2.3"></path><path d="M-124,-55q.3,11.1 0,11" fill="none" stroke="#348034" stroke-width="2.6"></path><path d="M-120,-55q0,4.4 0,8" fill="none" stroke="#348034" stroke-width="2.1"></path><path d="M-119,-62q.6,0 1,0" fill="none" stroke="#348034" stroke-width="2"></path><path d="M-114,-76q8.9,35.1 -.3,32.1q-6.2-2.1 4.3-10.1" fill="none" stroke="#348034" stroke-width="2.6"></path><path d="M-105,-47q6.8-6.2 9.3-1.9q3.5,5.7 -4.4,8.4q-5.3,1.7 -5.2-4.6q1-1.7 2.3-2.9" fill="none" stroke="#348034" stroke-width="2.3"></path><path d="M-159,44q-1,10.8 5.1,7q7.8-4.9 2.9-12.2q-1.9,.4 -3.7,1.5q1.8,5.3 6.2,10.3q6,6.8 -4,18.3q-5.4,6.2 -13.9-1.1q.3-2 1.4-3.8" fill="none" stroke="#348034" stroke-width="2.9"></path><path d="M-137,46q5-5.8 7.7,2.7q1.5,4.6 -4.2,2.8q-5.3-1.7 -6.3,4.6q3.4-.1 7.8-2.1" fill="none" stroke="#348034" stroke-width="2.7"></path><path d="M-118,40q-6.3,8 -1.1,10.8q3.1,2.2 -4.9,6.2" fill="none" stroke="#348034" stroke-width="3"></path><path d="M-342,-156q-.1,11 0,20" fill="none" stroke="#348034" stroke-width="2.5"></path><path d="M-344,-156q15.7-6.2 15.6,.4q-5.7,2.9 -12.6,3.6" fill="none" stroke="#348034" stroke-width="2.2"></path><path d="M49,171q1.6,16.5 3,30" fill="none" stroke="#348034" stroke-width="2.9"></path><path d="M39,171q14-1 25-2" fill="none" stroke="#348034" stroke-width="3"></path><path d="M-202,-2Q-201.4,6.8 -201,14" fill="none" stroke="#348034" stroke-width="2.1"></path><path d="M-207,-8q20.7-7.8 16.8,2.2q-2.4,6.2 -7.8,4.8" fill="none" stroke="#348034" stroke-width="2.6"></path><path d="M-196,10Q-187,7 -191,12Q-193,14 -195,15Q-193,17 -188,17Q-191,20 -196,22" fill="none" stroke="#348034" stroke-width="3"></path><path d="M-151,-28q48,0 88,0" fill="none" stroke="#ff0000" stroke-width="4"></path><path d="M-61,-86q.1,8.8 0,16" fill="none" stroke="#ff0000" stroke-width="2.2"></path><path d="M-61,-52q-.1,8.2 0,15" fill="none" stroke="#ff0000" stroke-width="2"></path><path d="M-62,-10Q-61.3,-1.2 -61,6" fill="none" stroke="#ff0000" stroke-width="2"></path><path d="M-63,14q.5,7.7 1,14" fill="none" stroke="#ff0000" stroke-width="2.2"></path><path d="M-60,47q-.4,5.5 -1,10" fill="none" stroke="#ff0000" stroke-width="2"></path><path d="M-61,76q-.2,10.8 0,11" fill="none" stroke="#ff0000" stroke-width="2.4"></path><path d="M-61,100q.6,5.5 1,10" fill="none" stroke="#ff0000" stroke-width="2.2"></path><path d="M-61,127q.5,9.4 1,9" fill="none" stroke="#ff0000" stroke-width="2"></path><path d="M-60,149q.5-2.8 1-5" fill="none" stroke="#ff0000" stroke-width="2.2"></path><path d="M-58,-80q-5-3 -3-5q0,2 -1,5q0-2 1-4q0,1 1,2q0-1 0-4q1,0 2,2q0-1 -2-3q0,1 0,4" fill="none" stroke="#ff0000" stroke-width="3"></path><path d="M-48,-113q-1,18.6 -1.9,33.8" fill="none" stroke="#ff0000" stroke-width="2.9"></path><path d="M-53,-114q8.5-6.2 20.5-3.4q13.5,3.4 7.5,13.4q-6.9,2 -14,2" fill="none" stroke="#ff0000" stroke-width="2.9"></path><path d="M-30,-82q-8,6 -3,8q5-2 9-4" fill="none" stroke="#ff0000" stroke-width="3"></path><path d="M-76,-86q10.5-1 9,0" fill="none" stroke="#ff0000" stroke-width="2.5"></path><path d="M-94,-86q4.4,1 8,2" fill="none" stroke="#ff0000" stroke-width="2.5"></path><path d="M-117,-86q3.2-.3 6,0" fill="none" stroke="#ff0000" stroke-width="2.3"></path><path d="M-136,-87q5,.4 9,1" fill="none" stroke="#ff0000" stroke-width="3"></path><path d="M-158,-84q6.8-1.5 8-1" fill="none" stroke="#ff0000" stroke-width="2.7"></path><path d="M-177,-85q3.3,1.1 6,2" fill="none" stroke="#ff0000" stroke-width="2.5"></path><path d="M-204,-83q3.8,0 7,0" fill="none" stroke="#ff0000" stroke-width="2.3"></path><path d="M-231,-83q3.8,1.2 7,2" fill="none" stroke="#ff0000" stroke-width="2.6"></path><path d="M-254,-85q7.9,1.5 8,1" fill="none" stroke="#ff0000" stroke-width="2.7"></path><path d="M-277,-83q4.9-.1 9,0" fill="none" stroke="#ff0000" stroke-width="2.4"></path><path d="M-297,-82q2.7,0 5,0" fill="none" stroke="#ff0000" stroke-width="2.3"></path><path d="M-61,-130q-24.3,11.8 -32.3,35.3q-8,23.7 15.8,47.8q19.7,20 71.9-29.7q29.1-27.6 10.8-55.3q-12.4-18.7 -64.5,1.1q-12.8,7.6 -22.7,14.8" fill="none" stroke="#ffffff" stroke-width="2"></path><path d="M10,-105Q84.2,-160.6 99.4,-172.2Q111.1,-180 121,-186" fill="none" stroke="#ffffff" stroke-width="1.8"></path><path d="M12,-109q57.6,42.2 81,83.9q1.3,2.9 2.3,5.3q2.8-.4 5.7-2.2" fill="none" stroke="#ffffff" stroke-width="1.8"></path><path d="M56,-86q2.7,.6 5,1" fill="none" stroke="#348034" stroke-width="2"></path><path d="M68,-85q1.6-.6 3-1" fill="none" stroke="#348034" stroke-width="2"></path><path d="M76,-86q4.8-2.6 8-2" fill="none" stroke="#348034" stroke-width="2"></path><path d="M90,-91q102-47 132-85q3-4 3-4" fill="none" stroke="#348034" stroke-width="3"></path><path d="M224,-181q0,0 1,0q0,0 -1,0q.6-.3 1.4-.1q.5,0 -1.4-1.9" fill="none" stroke="#ff0000" stroke-width="2.9"></path><path d="M239,-190q-1.1,13.2 -2,24" fill="none" stroke="#ff0000" stroke-width="2.5"></path><path d="M239,-193q10.7-2.8 15.4,2.5q5.7,6.5 -7.9,8.9q-3.6-.5 -6.5-1.4" fill="none" stroke="#ff0000" stroke-width="2.3"></path><path d="M255,-169q-7.3,4.1 -6,7.4q2.5-.6 5-2.4" fill="none" stroke="#ff0000" stroke-width="2.5"></path><path d="M226,-183q3.4,3.6 -1.5,4.5q-.2-1.6 .5-3.7q-.1,.6 -.2,1.9q-.9-.1 -1.8-.7" fill="none" stroke="#ff0000" stroke-width="2.5"></path><path d="M105,-128q56,0 102,0" fill="none" stroke="#ff0000" stroke-width="3"></path><path d="M208,-128q2.6,1.2 1.5,1.5q-1.3-1.4 -2.1-3.3q-.3,1 -.4,2.8" fill="none" stroke="#ffffff" stroke-width="1.9"></path><path d="M97,-125q4.1-2.1 3.3-2.8q.6-.7 1.6-1.2q-.8,.9 -2.4,2.4q-.2,.2 -.5-1.4" fill="none" stroke="#ffffff" stroke-width="1.9"></path><path d="M211,-127q38.8-17.8 62.7-42.7q32.4-33.8 18.5-53q-4.1-5.8 -52.3-2.9q-41.1,2.3 -107.9,48q-18.1,12.3 -33,37.9q-3.8,6.5 -2.1,5.3q5.5-4.2 5.3-4.2q-3.7-3.5 -6.6-6.4q-.4,3 .4,8" fill="none" stroke="#ffffff" stroke-width="2.6"></path><path d="M-108,1q0-62 0-82q0-1 0-2" fill="none" stroke="#ff0000" stroke-width="3"></path><path d="M-172,-5q-36-40 -38-66q-1-25 -1-26q0,1 0,2" fill="none" stroke="#80347d" stroke-width="5"></path><path d="M-219,-107q-2-3 -4-11" fill="none" stroke="#80347d" stroke-width="3"></path><path d="M-225,-135q-1-7 -1-13" fill="none" stroke="#80347d" stroke-width="3"></path><path d="M-231,-163q0-5 0-5" fill="none" stroke="#80347d" stroke-width="3"></path><path d="M-160,-118q.2-7.6 2-9" fill="none" stroke="#348034" stroke-width="3"></path><path d="M-153,-141q-.1-10.1 0-10" fill="none" stroke="#348034" stroke-width="2.7"></path><path d="M-152,-156q-.5-5.5 -1-10" fill="none" stroke="#348034" stroke-width="2.8"></path></svg>