<svg viewBox="-508.5 -167.5 869.2 519.65" width="869.2" height="519.65" version="1.1" baseProfile="full" xmlns="http://www.w3.org/2000/svg" class="js-draw--autoresize"><style id="js-draw-style-sheet">path{stroke-linecap:round;stroke-linejoin:round;}text{white-space:pre;}</style><g class="js-draw-image-background js-draw-image-background-grid js-draw-image-background-grid-25"><path d="M360.7,352.15l0-519.65l-869.2,0l0,519.65l869.2,0" fill="none"></path><path d="M-508.85,-150l869.9,0m-869.9,25l869.9,0m-869.9,25l869.9,0m-869.9,25l869.9,0m-869.9,25l869.9,0m-869.9,25l869.9,0m-869.9,25l869.9,0m-869.9,25l869.9,0m-869.9,25l869.9,0m-869.9,25l869.9,0m-869.9,25l869.9,0m-869.9,25l869.9,0m-869.9,25l869.9,0m-869.9,25l869.9,0m-869.9,25l869.9,0m-869.9,25l869.9,0m-869.9,25l869.9,0m-869.9,25l869.9,0m-869.9,25l869.9,0m-869.9,25l869.9,0m-869.9,25l869.9,0m-861.05-517.85l0,520.35m25-520.35l0,520.35m25-520.35l0,520.35m25-520.35l0,520.35m25-520.35l0,520.35m25-520.35l0,520.35m25-520.35l0,520.35m25-520.35l0,520.35m25-520.35l0,520.35m25-520.35l0,520.35m25-520.35l0,520.35m25-520.35l0,520.35m25-520.35l0,520.35m25-520.35l0,520.35m25-520.35l0,520.35m25-520.35l0,520.35m25-520.35l0,520.35m25-520.35l0,520.35m25-520.35l0,520.35m25-520.35l0,520.35m25-520.35l0,520.35m25-520.35l0,520.35m25-520.35l0,520.35m25-520.35l0,520.35m25-520.35l0,520.35m25-520.35l0,520.35m25-520.35l0,520.35m25-520.35l0,520.35m25-520.35l0,520.35m25-520.35l0,520.35m25-520.35l0,520.35m25-520.35l0,520.35m25-520.35l0,520.35m25-520.35l0,520.35m25-520.35l0,520.35" fill="none" stroke="#80808033" stroke-width=".7"></path></g><path d="M-451,-147l0,397l2,0l0-397l3,0l-4-4l-4,4l3,0" fill="#ffffff"></path><path d="M144,247l-594,1l0,2l594,1l0,4l9-6l-9-6l0,4" fill="#ffffff"></path><path d="M-505,247q10,1 19,2q-5,7 -15,14q-4,3 3,3q11,0 11-4" fill="none" stroke="#ffffff" stroke-width="3"></path><path d="M-507,258q9.9,0 18,0" fill="none" stroke="#ffffff" stroke-width="3"></path><path d="M-485,257q6.1,0 11,0" fill="none" stroke="#ffffff" stroke-width="2.7"></path><path d="M-483,262q7-1 10-1" fill="none" stroke="#ffffff" stroke-width="3"></path><path d="M-456,262q0-6 -3-9q-4-4.5 -8,0q-3,3 -3,9q0,6 3,9q4,4.5 8,0q3-3 3-9" fill="none" stroke="#ffffff" stroke-width="2"></path><path d="M-405,-40q-5,8 -5,13q0,5.5 11,0q9.7-4.9 6-16q-1-2 -10-2q-3,0 7,5q19,10 -1,45q-7,13 -10-4q-1-6 25-41q4-5 6-12" fill="none" stroke="#ffffff" stroke-width="3"></path><path d="M-417,-67q20-1 37-2q1,0 -5-5q-1-1 0,3q0,1 0,3q0,2 2-9q0-1 5,2q-3,5 -10,9" fill="none" stroke="#ffffff" stroke-width="3"></path><path d="M-357,-30q11-1.5 20-3" fill="none" stroke="#ffffff" stroke-width="2.8"></path><path d="M-359,-21q15-1 20-1" fill="none" stroke="#ffffff" stroke-width="2.4"></path><path d="M-327,-27q5.5,0 10,0" fill="none" stroke="#ffffff" stroke-width="2.4"></path><path d="M-289,-41q-9,9 -9,14q0,11 14-3q11-11 0-11q-2,0 3,11q3,7 -9,36q-1,2 -3-11q-2-9 31-36" fill="none" stroke="#ffffff" stroke-width="3"></path><path d="M-245,-38q14,1 26,2q2,0 -12,11q-12,9 -12,10q-1,2 13,0q7-1 11-5" fill="none" stroke="#ffffff" stroke-width="3"></path><path d="M-245,-24q11-1 18-1" fill="none" stroke="#ffffff" stroke-width="2.7"></path><path d="M-242,-53q16-6 19-5q4,2 8,15q1,1 1,2" fill="none" stroke="#ffffff" stroke-width="3"></path><path d="M-489,-156q16,2 21,2q-5,8 -16,17q-8,7 1,7q12,0 12-6" fill="none" stroke="#ffffff" stroke-width="3"></path><path d="M-494,-143q15,1 25,1" fill="none" stroke="#ffffff" stroke-width="2.8"></path><path d="M-403,-139q-1,11 3,13q6,3 11-7q1-2 1-4q0,5 0,15q0,1 7,1q6,0 11-15q2-7 -5-3" fill="none" stroke="#ffffff" stroke-width="3"></path><path d="M-403,-158q22-1 36-1q-2-3 -6-6q-1-1 -1,12q2-3 5-8q1-1 7,2q-4,4 -11,7" fill="none" stroke="#ffffff" stroke-width="3"></path><path d="M-354,-138q12,1 17,1" fill="none" stroke="#ffffff" stroke-width="2.9"></path><path d="M-356,-128q12,1 18,1" fill="none" stroke="#ffffff" stroke-width="3"></path><path d="M-317,-141q-1,17 3,19q8,4 15-10q1-3 2-5q1,4 1,12q0,8 10-2q4-4 4-14q0-1 -3,0" fill="none" stroke="#ffffff" stroke-width="4"></path><path d="M-264,-142q12,0 21-1q-5,8 -17,19q-2,2 14,2q2,0 6-5" fill="none" stroke="#ffffff" stroke-width="3"></path><path d="M-261,-132q18-1 20-3" fill="none" stroke="#ffffff" stroke-width="3"></path><path d="M-266,-153q12-10 13-8q4,6 7,11" fill="none" stroke="#ffffff" stroke-width="3"></path><path d="M-126,-119q8-8 9-1q2,6 -9,0q2-2 7-5" fill="none" stroke="#348034" stroke-width="5"></path><path d="M-32,-120q3-3 6-5q-2,1 -5,2" fill="none" stroke="#348034" stroke-width="6"></path><path d="M-113,-38q-1-9 0-7q0,4 -2,7q2-1 6-3" fill="none" stroke="#348034" stroke-width="5"></path><path d="M-28,-28q0,1 0,2q-3,2 -6,2" fill="none" stroke="#348034" stroke-width="6"></path><path d="M-68,-76q4-9 4-6q0,1 -3,3" fill="none" stroke="#348034" stroke-width="6"></path><path d="M51,-61q6-5 6,2q-1,1 -2,2" fill="none" stroke="#348034" stroke-width="7"></path><path d="M-307,127q0-40 0-40q-50,0 -50,0q0,40 0,40q27,0 50,0" fill="none" stroke="#348034" stroke-width="6"></path><path d="M49,25q0,11 -5,16q-1-1 -2-3" fill="none" stroke="#348034" stroke-width="6"></path><path d="M-334,111q.5,30.3 1,55" fill="none" stroke="#ffffff" stroke-width="2.5"></path><path d="M-334,172q5-10 3-9q-1,1 -7,0q1,3 3,7" fill="none" stroke="#ffffff" stroke-width="3"></path><path d="M-324,172q-6,8 -6,15q0,6 10-2q8-6 1-13q-1-1 -4-1q1,6 5,14q7,13 -6,26q-7,7 -7-4q0-9 16-25" fill="none" stroke="#ffffff" stroke-width="3"></path><path d="M-326,162q14-3 13-5q-1-1 -3-5q-1-2 0,9q1-3 3-8q0-1 4,0q2,0 -7,9" fill="none" stroke="#ffffff" stroke-width="3"></path><path d="M-290,177q-4,8 -3,11q3,9 19-7q10-10 -10-10q-8,0 -8,14q0,3.7 13,13q5.2,3.8 -5,14q-5,5 -5,0" fill="none" stroke="#ffffff" stroke-width="2.8"></path><path d="M-252,160q4.2,19.8 2,31q-.4,2 -8,2q2-4 7-9" fill="none" stroke="#ffffff" stroke-width="2.7"></path><path d="M-247,161q1.3,5 8,25q.3,.8 4,0q6-14 6-29" fill="none" stroke="#ffffff" stroke-width="3"></path><path d="M-331,109q21.5,.6 39,1" fill="none" stroke="#ffffff" stroke-width="2.5"></path><path d="M-295,102q0,2 0,12q0-3 1-9q0,0 0-1q0-1 4,1q1,0 -5,6" fill="none" stroke="#ffffff" stroke-width="3"></path><path d="M-270,82q1,26 2,27" fill="none" stroke="#ffffff" stroke-width="4"></path><path d="M-270,81q15-2.3 15-1" fill="none" stroke="#ffffff" stroke-width="3"></path><path d="M-273,91q10,1 17,1" fill="none" stroke="#ffffff" stroke-width="2.8"></path><path d="M-272,67q12,0 21,0q1,0 -4-6q-1-1 -1,10q2-3 4-8q1,1 2,3q-2,2 -4,3" fill="none" stroke="#ffffff" stroke-width="3"></path><path d="M-251,94q6,1 11,1" fill="none" stroke="#ffffff" stroke-width="2.9"></path><path d="M-250,104q7.2-1 13-2" fill="none" stroke="#ffffff" stroke-width="2.6"></path><path d="M-250,105q-8,1 -9,3q-3,7 9,7q1,0 3-1" fill="none" stroke="#ffffff" stroke-width="3"></path><path d="M-213,89q-2,3 -2,6q0,6 11,6q6.7,0 11-17q2-7 -15,1q-9,5 -6,25q0,0 10,7q7,5 -5,17q-1,1 -2,1" fill="none" stroke="#ffffff" stroke-width="3"></path><path d="M-191,102q-2.4,10.8 0,12q7,3.5 7-13q0-1.1 -5,2" fill="none" stroke="#ffffff" stroke-width="2.4"></path><path d="M-159,60q6,15 6,23q0,32.7 -14,28q-11.7-3.9 2-13" fill="none" stroke="#ffffff" stroke-width="2.7"></path><path d="M-142,64q8,32 15,58q2-2 4-7q5-24 8-44q0,0 -1,0" fill="none" stroke="#ffffff" stroke-width="3"></path><path d="M-101,98q-3.2,8.5 -1,15q1.8,5.3 16-9q4.7-4.7 2-10q-1,4.7 -1,13q0,9 9,5q8-4 8-17" fill="none" stroke="#ffffff" stroke-width="3"></path><path d="M-69,83q9-4 12-4q5,0 -3,12q-4,6 7,6" fill="none" stroke="#ffffff" stroke-width="2.9"></path><path d="M-43,99q3,0 5-4q3-6 6-11q1,2 1,5q0,4 12,4q-5,9 -18,21q-5,5 3,9q2,1 15-8" fill="none" stroke="#ffffff" stroke-width="4"></path><path d="M17,99q6-6 8-11q0-1 2-6q0,2 0,6q4,2 10,3q-4,10 -15,21q-10,10 2,13q7,2 16-10" fill="none" stroke="#ffffff" stroke-width="4"></path><path d="M17,74q5-2 9-8q5-8 8-2q3,7 5,12q0,0 0,2" fill="none" stroke="#ffffff" stroke-width="3"></path><path d="M136,265q0,.4 0,2q0,9 10-11q1-1 4,6q1,3 14,7q1,0 -5,3q-16,7 -21,22q-4,11 22-6" fill="none" stroke="#ffffff" stroke-width="3"></path><path d="M-330,110q-22-22.5 -40-41" fill="none" stroke="#ffffff" stroke-width="2.6"></path><path d="M-370,64q12,1 11,3q-4,8 -13,8q-2,0 0-8" fill="none" stroke="#ffffff" stroke-width="3"></path><path d="M-397,38q5,24 8,15q3-9 6-17q-6-1 -15,1" fill="none" stroke="#ffffff" stroke-width="4"></path><path d="M-383,25l-17,1l0,2l17,1l0,4l6-6l-6-6l0,4" fill="#ffffff"></path><path d="M-381,52q0,7.7 0,14q.9-6.3 2-18q.2-2 10-2q1.1,0 2,5q-5.6,2.7 -13,3" fill="none" stroke="#ffffff" stroke-width="2.6"></path><path d="M155,-45q5,24 8,43q5-10 11-29q0-1 9-14q1-1 -20-4q-2,0 -8,1q2,1 5,3" fill="none" stroke="#ffffff" stroke-width="3"></path><path d="M150,-66q11,1 38,1q-2-4 -7-9q-2,5 -2,14q0,2 5-10q1-2 7,1q-5,4 -13,7" fill="none" stroke="#ffffff" stroke-width="4"></path><path d="M184,-4q-.4-1 -2-5q-.2,6.1 1,17q0,2 -2,10q-2,7 2-25q2-19 13-15q5,2 5,16q0,5 -12,5q-1,0 -2-3" fill="none" stroke="#ffffff" stroke-width="3"></path><path d="M225,-26q15-3 16-2" fill="none" stroke="#ffffff" stroke-width="3"></path><path d="M221,-18q14-2 16-2" fill="none" stroke="#ffffff" stroke-width="2.7"></path><path d="M278,-33q-11,12.1 -11,16q0,6.5 14-4q11-8 11-18q0-6 -25,13q-5,3 -1,16q3,6 7,10q4,5 -14,34q-8,13 -8,5" fill="none" stroke="#ffffff" stroke-width="3"></path><path d="M318,-28q-4,1 -7,7q-5.5,11 2,11q10.5-7.2 18-16q5.3-6.2 -6-10q-4.5-1.5 3,11q12.8,21.2 -21,55q-.9,.9 -6-2q-3.3-1.9 18-31q4.8-6.5 40-30q.3-.2 0-2" fill="none" stroke="#ffffff" stroke-width="2.8"></path><path d="M318,-49q13.8-.4 25-1q-2-1.4 -6-3q-.2-.1 0-1q.3-1.4 1,7q1-4 2-11q4,2 9,6q-4,4 -12,7q-1,.4 5-1" fill="none" stroke="#ffffff" stroke-width="2.9"></path><path d="M-450,250q10,10 50,50" fill="none" stroke="#ffffff" stroke-width="2.4"></path><path d="M-449,253q9,3 11,4q.5,.3 -9,5q-1,.5 -1-8" fill="none" stroke="#ffffff" stroke-width="2.7"></path><path d="M-397,298q1,13 1,20q0-8.7 0-25q0-8.5 13-2q.9,2.5 1,5q0,.6 -13,8q-.5,.3 -3-1" fill="none" stroke="#ffffff" stroke-width="2.9"></path><path d="M-382,313q-2,3 0,5q4,4 8-5q2-3 -6-3q-.4,0 -1,2" fill="none" stroke="#ffffff" stroke-width="2.9"></path><path d="M-449,244q-4,0 -3,0q13-12 81-90q41-48 69-178q1-4 4-29q-1-3 -2-6" fill="none" stroke="#ff00003f" stroke-width="4"></path><path d="M-452,311q9.8-7.8 18-14" fill="none" stroke="#ff00003f" stroke-width="2.6"></path><path d="M-414,279q6.6-8.3 12-15" fill="none" stroke="#ff00003f" stroke-width="2.6"></path><path d="M-389,254q22.4-18.2 23-21" fill="none" stroke="#ff00003f" stroke-width="2.6"></path><path d="M-344,217q5.5-6.6 10-12" fill="none" stroke="#ff00003f" stroke-width="2.2"></path><path d="M-319,183q4.9-11 9-20" fill="none" stroke="#ff00003f" stroke-width="2.3"></path><path d="M-302,144q2.1-7.2 4-13" fill="none" stroke="#ff00003f" stroke-width="2"></path><path d="M-290,112q3-35.5 9.1-53.5" fill="none" stroke="#ff00003f" stroke-width="2.1"></path><path d="M-277,47q1.9-7.7 4-18" fill="none" stroke="#ff00003f" stroke-width="2"></path><path d="M-270,3Q-270,-.3 -270,-3" fill="none" stroke="#ff00003f" stroke-width="2"></path><path d="M-263,-46q.6-5.5 1-10" fill="none" stroke="#ff00003f" stroke-width="2"></path><path d="M-423,351q18.8-11.2 19-12" fill="none" stroke="#ff00003f" stroke-width="2.3"></path><path d="M-378,323q13-10.8 13-11" fill="none" stroke="#ff00003f" stroke-width="2"></path><path d="M-346,296q3.8-4.4 7-8" fill="none" stroke="#ff00003f" stroke-width="2"></path><path d="M-314,254q7.1-9.9 13-18" fill="none" stroke="#ff00003f" stroke-width="2"></path><path d="M-279,207q4.9-7.7 9-14" fill="none" stroke="#ff00003f" stroke-width="2"></path><path d="M-258,159q.8-13.1 1-14" fill="none" stroke="#ff00003f" stroke-width="2"></path><path d="M-248,125q4.1-15.7 5-20" fill="none" stroke="#ff00003f" stroke-width="2"></path><path d="M-241,90q3-30.6 4-37" fill="none" stroke="#ff00003f" stroke-width="2"></path><path d="M-235,34q1.6-8.3 3-15" fill="none" stroke="#ff00003f" stroke-width="2"></path><path d="M-233,-3q0-4.4 0-8" fill="none" stroke="#ff00003f" stroke-width="2"></path><path d="M-228,-29q3-12 4-15" fill="none" stroke="#ff00003f" stroke-width="3"></path><path d="M-456,246q40-24 54-42q23-30 42-54q4-6 15-28q4-14 7-26q18-45 34-80q5-21 7-39q4-21 8-38q4-17 9-22q0,1 -1,3" fill="none" stroke="#ff0000" stroke-width="4"></path><path d="M-450,305q8.8-4.9 16-9" fill="none" stroke="#ff0000" stroke-width="2.3"></path><path d="M-411,282q6.6-4.9 12-9" fill="none" stroke="#ff0000" stroke-width="2.6"></path><path d="M-388,261q11.1-9.8 20-18" fill="none" stroke="#ff0000" stroke-width="2.8"></path><path d="M-353,228q8.4-8.6 15-16" fill="none" stroke="#ff0000" stroke-width="2.7"></path><path d="M-329,194q2.8-6 5-11" fill="none" stroke="#ff0000" stroke-width="2.5"></path><path d="M-305,158q4.9-16.4 5-16" fill="none" stroke="#ff0000" stroke-width="2.5"></path><path d="M-281,111q2.4-24.3 4-19" fill="none" stroke="#ff0000" stroke-width="2.2"></path><path d="M-267,63q3.7-19.9 4-19" fill="none" stroke="#ff0000" stroke-width="2.3"></path><path d="M-254,9Q-254,3.5 -254,-1" fill="none" stroke="#ff0000" stroke-width="2"></path><path d="M-247,-28q1.7-9.3 3-17" fill="none" stroke="#ff0000" stroke-width="2"></path><path d="M-420,348q10-4.7 18-9" fill="none" stroke="#ff0000" stroke-width="2.5"></path><path d="M-381,319q6.2-3.5 11-7" fill="none" stroke="#ff0000" stroke-width="2.3"></path><path d="M-351,296q3.9-5.5 7-10" fill="none" stroke="#ff0000" stroke-width="2.3"></path><path d="M-328,268q6.7-8.2 12-15" fill="none" stroke="#ff0000" stroke-width="2.2"></path><path d="M-302,234q5.5-7.7 10-14" fill="none" stroke="#ff0000" stroke-width="2.3"></path><path d="M-280,204q3.2-9.4 6-17" fill="none" stroke="#ff0000" stroke-width="2.3"></path><path d="M-263,168q5-18.7 9-34" fill="none" stroke="#ff0000" stroke-width="2.4"></path><path d="M-240,109q.2-34.2 3-25" fill="none" stroke="#ff0000" stroke-width="2"></path><path d="M-232,68q.6-4.4 1-8" fill="none" stroke="#ff0000" stroke-width="2"></path><path d="M-225,41q1.1-7.1 2-13" fill="none" stroke="#ff0000" stroke-width="2"></path><path d="M-221,11Q-218.2,4.4 -216,-1" fill="none" stroke="#ff0000" stroke-width="2"></path><path d="M-212,-33q.6-3.3 1-6" fill="none" stroke="#ff0000" stroke-width="2"></path></svg>