<svg viewBox="-522.65 -58.9 692 185.05" width="692" height="185.05" version="1.1" baseProfile="full" xmlns="http://www.w3.org/2000/svg" class="js-draw--autoresize"><style id="js-draw-style-sheet">path{stroke-linecap:round;stroke-linejoin:round;}text{white-space:pre;}</style><g class="js-draw-image-background js-draw-image-background-grid js-draw-image-background-grid-25"><path d="M169.35,126.15l0-185.05l-692,0l0,185.05l692,0" fill="none"></path><path d="M-523,-50l692.7,0m-692.7,25l692.7,0m-692.7,25l692.7,0m-692.7,25l692.7,0m-692.7,25l692.7,0m-692.7,25l692.7,0m-692.7,25l692.7,0m-692.7,25l692.7,0m-669.7-184.25l0,185.75m25-185.75l0,185.75m25-185.75l0,185.75m25-185.75l0,185.75m25-185.75l0,185.75m25-185.75l0,185.75m25-185.75l0,185.75m25-185.75l0,185.75m25-185.75l0,185.75m25-185.75l0,185.75m25-185.75l0,185.75m25-185.75l0,185.75m25-185.75l0,185.75m25-185.75l0,185.75m25-185.75l0,185.75m25-185.75l0,185.75m25-185.75l0,185.75m25-185.75l0,185.75m25-185.75l0,185.75m25-185.75l0,185.75m25-185.75l0,185.75m25-185.75l0,185.75m25-185.75l0,185.75m25-185.75l0,185.75m25-185.75l0,185.75m25-185.75l0,185.75m25-185.75l0,185.75" fill="none" stroke="#80808033" stroke-width=".7"></path></g><path d="M-522,122q675.7,3.5 676.5,3.5" fill="none" stroke="#338034" stroke-width="1.3"></path><path d="M-407,114q-66.7-4.1 -58.6-24.5q9.1-22.8 17.1-27.7q27.2-16.7 39.5-48.1q16.9-43.2 9.1-46.7q-2.9-1.3 15.6-7.5q31.8-10.7 38,4.4q2.6,6.4 -6.6,31.6q-7,19.3 -3.9,31.2q2.8,10.9 35.1,27.9q20.9,11 13.1,29.4q-5.5,13 -47.4,22.7q-9.3,.8 -17.1,.9q-6.4,.6 -11.7,1.4q-27.9,4.3 -32.2,0" fill="none" stroke="#338034" stroke-width="2"></path><path d="M-171,107q-51.3,2.4 -63-6.7q-11.2-8.7 5.5-34q3.5-5.3 22.9-14q23-10.3 13.6-24.9q-26.4-41.2 -10.9-66.5q2.7-4.5 23.1-13.1q13.7-5.7 35.3-.7q19.1,2.2 34.9,3.1q3.2,.2 14.6,12.2q13.1,13.9 -25.7,35.6q-47.8,26.8 -31.8,46.7q14.9,9.6 28.5,15.7q7.6,3.4 13.7,14.8q2.3,4.3 -5.4,12.8q-.5,.5 -18.3,7.4q-11.5,3.9 -21,7q-11.6,2.5 -21.2,4.1q-4.5,.8 -5.8-.5" fill="none" stroke="#338034" stroke-width="2"></path><path d="M19,-32Q16.2,-33.7 15.6,-30.8Q3.6,24.3 3.5,48.7Q4.5,69.6 5.8,86.6Q6.8,100.4 46.6,105.4Q76.3,102.8 100.6,98.2Q118.9,94.7 127.7,77.7Q135.3,63.1 140.9,12.4Q142.1,-2.2 143,-14.1Q144.8,-20.1 146.8,-24.9Q146.1,-24.3 145,-23" fill="none" stroke="#338034" stroke-width="1.9"></path><path d="M-317,61q15-14 21-20q1-1 1,10q0,7 -7-7q2.3-3.5 6-6" fill="none" stroke="#ffffff" stroke-width="1.4"></path><path d="M-452,64q-13-14 -22-23q-2-2 11-2q-1.4,5 -6,11q-1,1.3 -1-12" fill="none" stroke="#ffffff" stroke-width="1.4"></path><path d="M-445,-46q7.9-.7 16,2q3.3,1.1 6,2" fill="none" stroke="#ffffff" stroke-width=".8"></path><path d="M-395,-36q8,3 9,3" fill="none" stroke="#ffffff" stroke-width=".8"></path><path d="M-373,-35q20.9-1.1 38-2q.6,0 3,1" fill="none" stroke="#ffffff" stroke-width=".8"></path><path d="M-321,-34q1,.2 5,1" fill="none" stroke="#ffffff" stroke-width=".8"></path><path d="M-311,-32q.6-.2 3-1" fill="none" stroke="#ffffff" stroke-width=".8"></path><path d="M-300,-32q.6,0 1,0" fill="none" stroke="#ffffff" stroke-width=".8"></path><path d="M-291,-32q.8-.4 4-2" fill="none" stroke="#ffffff" stroke-width=".8"></path><path d="M-271,-34q9,1 10,1" fill="none" stroke="#ffffff" stroke-width=".8"></path><path d="M-237,-32q3.9,0 7,0" fill="none" stroke="#ffffff" stroke-width=".8"></path><path d="M-218,-30q2.2,0 4,0" fill="none" stroke="#ffffff" stroke-width=".8"></path><path d="M-201,-30q.6,0 1,0" fill="none" stroke="#ffffff" stroke-width=".8"></path><path d="M-185,-31q22.8-1 39,3q.4,.1 2,0" fill="none" stroke="#ffffff" stroke-width=".8"></path><path d="M-120,-23q6.6,0 12,0" fill="none" stroke="#ffffff" stroke-width=".8"></path><path d="M-97,-24q15-1 20-2" fill="none" stroke="#ffffff" stroke-width=".8"></path><path d="M-57,-25q4.4,0 8,0" fill="none" stroke="#ffffff" stroke-width=".8"></path><path d="M-32,-27q25.3-4 39-4" fill="none" stroke="#ffffff" stroke-width=".8"></path><path d="M57,-27q20.9-1.7 38-3q.4,0 2-1" fill="none" stroke="#ffffff" stroke-width=".8"></path><path d="M115,-31q.6-.5 1-1" fill="none" stroke="#ffffff" stroke-width=".8"></path><path d="M126,-35q26.1-3.5 27-3q8,4 13,4" fill="none" stroke="#ffffff" stroke-width=".8"></path><path d="M123,82q34-2 35-2q10.5,0 9-3q-3-6 -3-9q-.9,6.6 -2,19q-.3,3.2 0-16q2.3,.8 5,3q-2.2,5.3 -7,10" fill="none" stroke="#ffffff" stroke-width="1.7"></path><path d="M9,78q-23.1-.5 -42-1" fill="none" stroke="#ffffff" stroke-width="1"></path><path d="M-37,86q3.9-8.2 7-15q-.3,5 -2,14q-1.4-1.3 -3-4" fill="none" stroke="#ffffff" stroke-width="1.2"></path></svg>