<svg viewBox="-61.7 -8.4 165.9 133.1" width="165.9" height="133.1" version="1.1" baseProfile="full" xmlns="http://www.w3.org/2000/svg" class="js-draw--autoresize"><style id="js-draw-style-sheet">path{stroke-linecap:round;stroke-linejoin:round;}text{white-space:pre;}</style><path d="M104.2,124.7L104.2,-8.4L-61.7,-8.4L-61.7,124.7L104.2,124.7" fill="#ffffff" class="js-draw-image-background"></path><path d="M-37.8,85.7q-3.3-53.6 0-47q1.9,3.9 -3.2,3.9q-2.2-.7 -3.9-1.6q1.7-.9 4.7-1.5" fill="none" stroke="#803380" stroke-width="2.1"></path><path d="M-35.5,81q-3.9,.8 -2.3,2.3q14.8,15 26.6,27.5q4,5.1 7.1,9.4q-1.8-3.3 -5.5-9.4q-.6-1 -4.7,5.5q3.1,.7 7.8,0" fill="none" stroke="#803380" stroke-width="2.1"></path><path d="M-36.3,85.7q-12.1,19 -21.9,34.5q-2.2,3.4 4.7,0q1.9-1 -5.5-4.7q-1.4,2.8 -1.6,7" fill="none" stroke="#803380" stroke-width="2.2"></path><path d="M-32.4,1.8Q-37.8,3.6 -37.8,9.7Q-37.8,23.8 -12.8,23.8Q12.6,23.8 18.6,31.6Q27.5,43.1 42.1,41Q53.7,39.3 62.5,48.1Q71.4,57 73.4,63Q81.3,55.7 89.1,41Q103.1,14.6 86.8,5Q75,-2 48.4,7.3Q36.2,11.5 21.7,-.5Q14.2,-3.6 7.6,-5.2Q-.7,-7.3 -11.2,-3.6Q-20.2,-2 -27.7,-1.3Q-29.4,-.5 -30.8,.3" fill="none" stroke="#803380" stroke-width="2.2"></path></svg>