<svg viewBox="-360.5 -166.15 832.7 413.15" width="832.7" height="413.15" version="1.1" baseProfile="full" xmlns="http://www.w3.org/2000/svg" class="js-draw--autoresize"><style id="js-draw-style-sheet">path{stroke-linecap:round;stroke-linejoin:round;}text{white-space:pre;}</style><g class="js-draw-image-background js-draw-image-background-grid js-draw-image-background-grid-25"><path d="M472.2,247l0-413.15l-832.7,0l0,413.15l832.7,0" fill="none"></path><path d="M-360.85,-150l833.4,0m-833.4,25l833.4,0m-833.4,25l833.4,0m-833.4,25l833.4,0m-833.4,25l833.4,0m-833.4,25l833.4,0m-833.4,25l833.4,0m-833.4,25l833.4,0m-833.4,25l833.4,0m-833.4,25l833.4,0m-833.4,25l833.4,0m-833.4,25l833.4,0m-833.4,25l833.4,0m-833.4,25l833.4,0m-833.4,25l833.4,0m-833.4,25l833.4,0m-822.55-391.5l0,413.85m25-413.85l0,413.85m25-413.85l0,413.85m25-413.85l0,413.85m25-413.85l0,413.85m25-413.85l0,413.85m25-413.85l0,413.85m25-413.85l0,413.85m25-413.85l0,413.85m25-413.85l0,413.85m25-413.85l0,413.85m25-413.85l0,413.85m25-413.85l0,413.85m25-413.85l0,413.85m25-413.85l0,413.85m25-413.85l0,413.85m25-413.85l0,413.85m25-413.85l0,413.85m25-413.85l0,413.85m25-413.85l0,413.85m25-413.85l0,413.85m25-413.85l0,413.85m25-413.85l0,413.85m25-413.85l0,413.85m25-413.85l0,413.85m25-413.85l0,413.85m25-413.85l0,413.85m25-413.85l0,413.85m25-413.85l0,413.85m25-413.85l0,413.85m25-413.85l0,413.85m25-413.85l0,413.85m25-413.85l0,413.85" fill="none" stroke="#80808033" stroke-width=".7"></path></g><path d="M-252,-147l1,347l2,0l1-347l3,0l-5-5l-5,5l3,0" fill="#ffffff"></path><path d="M-247,27q6,0 12,0" fill="none" stroke="#348034" stroke-width="2.9"></path><path d="M-224,27q6,0 12,0" fill="none" stroke="#348034" stroke-width="2.9"></path><path d="M-200,27q6,0 12,0" fill="none" stroke="#348034" stroke-width="2.9"></path><path d="M-178,27q6,0 12,0" fill="none" stroke="#348034" stroke-width="2.9"></path><path d="M-79,27q1,0 2,0" fill="none" stroke="#348034" stroke-width="2.9"></path><path d="M-64,27q4,0 8,0" fill="none" stroke="#348034" stroke-width="2.9"></path><path d="M-45,27q9,0 17,0" fill="none" stroke="#348034" stroke-width="2.9"></path><path d="M-16,27q14,0 26,0" fill="none" stroke="#348034" stroke-width="2.9"></path><path d="M24,27q4,0 7,0" fill="none" stroke="#348034" stroke-width="2.9"></path><path d="M45,27q8,0 16,0" fill="none" stroke="#348034" stroke-width="2.9"></path><path d="M73,28q6,0 11,0" fill="none" stroke="#348034" stroke-width="2.9"></path><path d="M97,28q3,0 6,0" fill="none" stroke="#348034" stroke-width="2.9"></path><path d="M116,28q15,1 16,1" fill="none" stroke="#348034" stroke-width="2.9"></path><path d="M-114,27q3,0 5,0" fill="none" stroke="#348034" stroke-width="2.9"></path><path d="M-153,27q4,0 7,0" fill="none" stroke="#348034" stroke-width="2.9"></path><path d="M-135,27q4,0 8,0" fill="none" stroke="#348034" stroke-width="2.9"></path><path d="M296,198l-546,1l0,2l546,1l0,4l6-6l-6-6l0,4" fill="#ffffff"></path><path d="M290,224q10,21 13,21q10-15 14-33" fill="none" stroke="#348034" stroke-width="4"></path><path d="M-294,-147q1.5,9.4 3,17" fill="none" stroke="#348034" stroke-width="2.4"></path><path d="M-295,-153q12.4-11.9 18.2-3q4,6 -13.7,8.5" fill="none" stroke="#348034" stroke-width="2.5"></path><path d="M-357,31q-2,9 2,24" fill="none" stroke="#348034" stroke-width="3"></path><path d="M-358,29q12.9-8.4 15.3,.7q-6,6.4 -14.3,10.3" fill="none" stroke="#348034" stroke-width="2.3"></path><path d="M-333,25q6-.1 11,0" fill="none" stroke="#348034" stroke-width="2.3"></path><path d="M-332,31q6-.2 11,0" fill="none" stroke="#348034" stroke-width="2.4"></path><path d="M-312,23q3.1,13.8 6,25" fill="none" stroke="#348034" stroke-width="2.7"></path><path d="M-313,24q8.5-8.8 15.2-3.1q6,5 -5.4,9.1q-1.5,.1 -2.8,0" fill="none" stroke="#348034" stroke-width="2.6"></path><path d="M-322,13q13,0 24,0q.6,.2 -2,3" fill="none" stroke="#348034" stroke-width="3"></path><path d="M-222,-60q3.7,35.8 7,65.1q-.3,40.3 -2.5,73.4q-1.1,16.2 9,26.1q7.5,7.4 27.5-19.8q14.2-25.6 24.6-47.2q9.9-20.5 35.9-34.5q3.4-1.8 21.7-5.7q2.7-.5 36.4,4q27.6,3.6 45.7,15.2q29.6,16.8 54.2,29.9q16.4,9.3 29.7,17q15.8,8.5 28.8,15.5q17,11 31,21" fill="none" stroke="#ff0000" stroke-width="3"></path><path d="M-214,75q21.6-35.7 21.5-23q.2,13.7 .5,25" fill="none" stroke="#ff0000" stroke-width="2.8"></path><path d="M-214,69q8.8-.3 16,0" fill="none" stroke="#ff0000" stroke-width="2"></path><path d="M-189,77q6.4-5.5 6.4-4.9q.6,13.9 -1.4,11.9" fill="none" stroke="#ff0000" stroke-width="2.1"></path><path d="M310,29q.2,.2 0,.2q-.2,0 -.2-.2q0-.2 .2-.2q.2,0 .2,.2" fill="none" stroke="#ff0000" stroke-width="2"></path><path d="M471,-69q.2,.2 0,.2q-.2,0 -.2-.2q0-.2 .2-.2q.2,0 .2,.2" fill="none" stroke="#ff0000" stroke-width="2"></path><path d="M-111,23Q-106,14 -103,7Q-102,6 -97,23Q-98,24 -98,25" fill="none" stroke="#ff0000" stroke-width="3"></path><path d="M-109,19q3,0 6,0" fill="none" stroke="#ff0000" stroke-width="3"></path><path d="M-94,22q8-6 6-2q-2,7 -1,6q5-2 9-3" fill="none" stroke="#ff0000" stroke-width="3"></path></svg>