<svg viewBox="-256 -68.05 358 224.05" width="358" height="224.05" version="1.1" baseProfile="full" xmlns="http://www.w3.org/2000/svg" class="js-draw--autoresize"><style id="js-draw-style-sheet">path{stroke-linecap:round;stroke-linejoin:round;}text{white-space:pre;}</style><g class="js-draw-image-background js-draw-image-background-grid js-draw-image-background-grid-25"><path d="M102,156l0-224.05l-358,1.4210854715202004e-14l0,224.05l358,0" fill="none"></path><path d="M-256.35,-50l358.7,0m-358.7,25l358.7,0m-358.7,25l358.7,0m-358.7,25l358.7,0m-358.7,25l358.7,0m-358.7,25l358.7,0m-358.7,25l358.7,0m-358.7,25l358.7,0m-358.7,25l358.7,0m-352.35-218.4l0,224.75m25-224.75l0,224.75m25-224.75l0,224.75m25-224.75l0,224.75m25-224.75l0,224.75m25-224.75l0,224.75m25-224.75l0,224.75m25-224.75l0,224.75m25-224.75l0,224.75m25-224.75l0,224.75m25-224.75l0,224.75m25-224.75l0,224.75m25-224.75l0,224.75m25-224.75l0,224.75m25-224.75l0,224.75" fill="none" stroke="#80808033" stroke-width=".7"></path></g><path d="M-252,-46l1,196l2,0l1-196l4,0l-6-6l-6,6l4,0" fill="#ffffff"></path><path d="M96,148l-346,1l0,2l346,1l0,4l6-6l-6-6l0,4" fill="#ffffff"></path><path d="M-164,-28q-2,11 -6,5q-3-7 6-3q4,1 -4,6q0-1 -1-2q2,0 4,0q-1,1 -4,1q-1,0 -2,0q0-1 1-2" fill="none" stroke="#348034" stroke-width="4"></path><path d="M-166,-24q4,11 15,28q15,22 49,43q6,4 12,7q0,0 0,1" fill="none" stroke="#ff0000" stroke-width="4"></path><path d="M-167,-20q-4,1 -3-1q1,0 3,2q-1,0 -3-1q2-1 5-3q-1,0 -4,0q0-1 0-1q2-3 3-1q-1,1 -3,2" fill="none" stroke="#348034" stroke-width="4"></path><path d="M-84,57q-4,4 -4,0q1-7 6-4q4,4 -3,7q-5,2 -3-4q1-3 6-2q-1,2 -4,3q-4,3 -3-1q3,0 6,1" fill="none" stroke="#348034" stroke-width="3"></path><path d="M-190,-49q-3,19.6 -.3,17.2q2.2-4.3 3.3-8.2" fill="none" stroke="#348034" stroke-width="2.8"></path><path d="M-191,-66q1.1-.5 2-1" fill="none" stroke="#348034" stroke-width="2.1"></path><path d="M-85,-13q-29.5,16.3 -33.1,28.2q2.9-2.1 7-6.7q-3.5-2.1 -9.3-3.1q-1.1,3.7 -.6,8.6" fill="none" stroke="#ffffff" stroke-width="2.4"></path><path d="M-64,-33q-9.8,.5 -7.2,7.5q3.5,0 7.2-1.5" fill="none" stroke="#ffffff" stroke-width="2.6"></path><path d="M-54,-34q-7.4,13 -.4,10.3q3.7-3.9 6.1-7.9q-.8,2.8 -2.7,7.6" fill="none" stroke="#ffffff" stroke-width="2.4"></path><path d="M-41,-23q-2.2-5.8 -2.6-3.8q5.1-.2 11.6-3.2" fill="none" stroke="#ffffff" stroke-width="2.3"></path><path d="M-26,-30q4.3,5.5 7.8,.6q1.2-2 2.2-3.6" fill="none" stroke="#ffffff" stroke-width="2.4"></path><path d="M-13,-30q5.2-2.2 5.7,3.4q-3.5,3.1 -8,5q-1.9,.7 -1.1,3.5q.4,1.3 5.4-3.9" fill="none" stroke="#ffffff" stroke-width="2.2"></path><path d="M-65,-4Q-65.7,1.5 -66,6" fill="none" stroke="#ffffff" stroke-width="2.4"></path><path d="M-65,-13q.4-.1 1,0" fill="none" stroke="#ffffff" stroke-width="2"></path><path d="M-55,-8Q-60.2,-.2 -55.6,1.5Q-52.2,2.7 -56.8,7.8Q-58.4,8.1 -60,8" fill="none" stroke="#ffffff" stroke-width="2.5"></path><path d="M-46,0Q-48.7,12.7 -44.1,9.3Q-35.9,3.2 -43,-1.6Q-44.3,-2.5 -48,4" fill="none" stroke="#ffffff" stroke-width="2.1"></path><path d="M-25,-16q-4.1,32.2 1.5,25.4q1.7-5 2.5-9.4" fill="none" stroke="#ffffff" stroke-width="1.9"></path><path d="M-30,-4Q-24.5,-5.7 -20,-7" fill="none" stroke="#ffffff" stroke-width="1.9"></path><path d="M-16,1Q-6.8,.7 -10.7,-2.7Q-13.7,-5.2 -18.7,8.3Q-20.4,12.8 -17.8,15.2Q-14.5,12.6 -12,8" fill="none" stroke="#ffffff" stroke-width="2.1"></path><path d="M-6,14Q-5,.1 -5.8,3.2Q-7,8.1 5.6,2" fill="none" stroke="#ffffff" stroke-width="2.3"></path><path d="M3,18Q4.3,6.6 4,7.7Q2.5,14.2 9.6,11.2Q12.1,14.1 13.4,18.4Q16.5,17 19.8,13.6Q24.7,8.5 19.4,22.8" fill="none" stroke="#ffffff" stroke-width="2.3"></path><path d="M29,10Q34.6,21.7 32.1,19.5Q26.4,14.2 23.5,24.1Q22.6,26.9 31.7,21.2" fill="none" stroke="#ffffff" stroke-width="2.2"></path><path d="M-67,71q-3,1 -3,1q16-7 19-33q1-5 -4-1q-4,2 -9,27q-2,11 0,19" fill="none" stroke="#348034" stroke-width="4"></path><path d="M-71,67q27,12 25,3" fill="none" stroke="#348034" stroke-width="4"></path></svg>