<svg viewBox="-205 -115.5 666.5 470.5" width="666.5" height="470.5" version="1.1" baseProfile="full" xmlns="http://www.w3.org/2000/svg" class="js-draw--autoresize"><style id="js-draw-style-sheet">path{stroke-linecap:round;stroke-linejoin:round;}text{white-space:pre;}</style><g class="js-draw-image-background js-draw-image-background-grid js-draw-image-background-grid-25"><path d="M461.5,355l0-470.5l-666.5,0l0,470.5l666.5,0" fill="none"></path><path d="M-205.35,-100l667.2,0m-667.2,25l667.2,0m-667.2,25l667.2,0m-667.2,25l667.2,0m-667.2,25l667.2,0m-667.2,25l667.2,0m-667.2,25l667.2,0m-667.2,25l667.2,0m-667.2,25l667.2,0m-667.2,25l667.2,0m-667.2,25l667.2,0m-667.2,25l667.2,0m-667.2,25l667.2,0m-667.2,25l667.2,0m-667.2,25l667.2,0m-667.2,25l667.2,0m-667.2,25l667.2,0m-667.2,25l667.2,0m-667.2,25l667.2,0m-661.85-465.85l0,471.2m25-471.2l0,471.2m25-471.2l0,471.2m25-471.2l0,471.2m25-471.2l0,471.2m25-471.2l0,471.2m25-471.2l0,471.2m25-471.2l0,471.2m25-471.2l0,471.2m25-471.2l0,471.2m25-471.2l0,471.2m25-471.2l0,471.2m25-471.2l0,471.2m25-471.2l0,471.2m25-471.2l0,471.2m25-471.2l0,471.2m25-471.2l0,471.2m25-471.2l0,471.2m25-471.2l0,471.2m25-471.2l0,471.2m25-471.2l0,471.2m25-471.2l0,471.2m25-471.2l0,471.2m25-471.2l0,471.2m25-471.2l0,471.2m25-471.2l0,471.2m25-471.2l0,471.2" fill="none" stroke="#80808033" stroke-width=".7"></path></g><path d="M-202,-96l1,246l2,0l1-246l3,0l-5-6l-5,6l3,0" fill="#ffffff"></path><path d="M46,148l-246,1l0,2l246,1l0,3l6-5l-6-5l0,3" fill="#ffffff"></path><path d="M-151,1Q-153,-6 -148,-5Q-145,-4 -150,1Q-153,5 -153,-2Q-153,-5 -150,-3Q-149,-2 -149,-1Q-148,-3 -148,-5Q-150,-4 -152,-2Q-153,-2 -151,-3" fill="none" stroke="#348034" stroke-width="3"></path><path d="M-160,-25q-9,26 -2,23q6-6 9-12" fill="none" stroke="#348034" stroke-width="3"></path><path d="M-152,-40q1-.7 2-1.2q-1,.4 -3,1.2" fill="none" stroke="#348034" stroke-width="2.7"></path><path d="M-131,-6Q-113,-9 -84,0Q-54,9 -45,38Q-42,45 -47,42Q-49,41 -47,39" fill="none" stroke="#ff0000" stroke-width="4"></path><path d="M-136,5Q-111,8 -88,20Q-63,33 -63,54Q-63,52 -63,50" fill="none" stroke="#ff0000" stroke-width="4"></path><path d="M-78,47q17,14 31,26q-1-2 -3-4q-1-2 13-25q8-10 14-18q-1,1 -2,3" fill="none" stroke="#ff0000" stroke-width="4"></path><path d="M-48,82q.4-2.3 1.4-1.1q3.1,4.2 -2.8,3.8q.4-1.2 1.4-2.6q-.1,.9 -.6,2.3q.5-1 1.4-2.9q-.1,1.2 -.7,3.4q.7-.6 1.6-1.9q-.7,.3 -1.7,1" fill="none" stroke="#348034" stroke-width="2.4"></path><path d="M-31,89q10-3 15-21q4-14 0-19q-3-5 -1,48q1,4 1,7" fill="none" stroke="#348034" stroke-width="3"></path><path d="M-29,82q19.2,2.1 29.2-.8" fill="none" stroke="#348034" stroke-width="2.8"></path><path d="M204,-94l1,246l2,0l1-246l4,0l-6-6l-6,6l4,0" fill="#ffffff"></path><path d="M403,150l-197,1l0,2l197,1l0,3l5-5l-5-5l0,3" fill="#ffffff"></path><path d="M239,-9q-8,0 -1-5q3-3 3,4q0,5 -4,2q-4-4 4-5q-1,1 -3,2q-1,1 -2-2" fill="none" stroke="#348034" stroke-width="4"></path><path d="M243,-51q-3,19 2,14q4-6 7-12" fill="none" stroke="#348034" stroke-width="3"></path><path d="M249,-70q2.2-2.2 4-4" fill="none" stroke="#348034" stroke-width="2.6"></path><path d="M249,-9q1.2-.8 2.2-1.5q-.5,.1 -1.2,.5" fill="none" stroke="#348034" stroke-width="2.4"></path><path d="M259,-3Q260.4,-5.1 261,-5" fill="none" stroke="#348034" stroke-width="2.4"></path><path d="M273,0Q273,0 273,1" fill="none" stroke="#348034" stroke-width="3"></path><path d="M282,9Q283.3,6.6 283.1,7.5Q283.1,8.3 283,9" fill="none" stroke="#348034" stroke-width="2.6"></path><path d="M314,-103q-7.4,14.5 -.1,14.8q5.1,.1 6.5-12.2q.4-3.6 -1.4-3.1q-4.6,15.9 -3,33.5" fill="none" stroke="#348034" stroke-width="2.9"></path><path d="M326,-100q-4,18 3,12q6-8 10-15q0,7 -3,20" fill="none" stroke="#348034" stroke-width="3"></path><path d="M346,-99q7.1,10.4 2.2,9q-6.3-1.8 -7.1,6.9q4.3-1.1 9.9-4.9" fill="none" stroke="#348034" stroke-width="2.9"></path><path d="M360,-102q-5,6 -1,8q7,4 -4,9" fill="none" stroke="#348034" stroke-width="3"></path><path d="M369,-93q-.1,3.8 0,7" fill="none" stroke="#348034" stroke-width="2.8"></path><path d="M372,-104q.6-.5 1-1" fill="none" stroke="#348034" stroke-width="2.2"></path><path d="M379,-90q4.4,0 8,0" fill="none" stroke="#348034" stroke-width="2.8"></path><path d="M396,-101q-4.1,8.3 .6,11.1q7.7,4.5 -5.6,8.1" fill="none" stroke="#348034" stroke-width="2.8"></path><path d="M409,-114q-6,37 -1,33q1.8-6 2-12" fill="none" stroke="#348034" stroke-width="3"></path><path d="M402,-100q4.4,.6 8,1" fill="none" stroke="#348034" stroke-width="2.4"></path><path d="M415,-94q6.1-.1 3.8,3.3q-6.3,8.9 -.9,6.6" fill="none" stroke="#348034" stroke-width="2.7"></path><path d="M433,-109q-1.7,1.9 -3.4,17.3q-1.3,11.5 .5,12.7q2.1,1.6 1.9-13" fill="none" stroke="#348034" stroke-width="2.9"></path><path d="M426,-98q3.8,1.1 7,2" fill="none" stroke="#348034" stroke-width="2.3"></path><path d="M438,-85q-.5,4.4 -1,8" fill="none" stroke="#348034" stroke-width="2.7"></path><path d="M441,-97q1.1-1.6 2-3" fill="none" stroke="#348034" stroke-width="2.4"></path><path d="M447,-90q-6,10 -6,13q2-1 5-4" fill="none" stroke="#348034" stroke-width="3"></path><path d="M458,-89q2,13 -3,12q-3,0 -3,4q1,0 3,0" fill="none" stroke="#348034" stroke-width="3"></path><path d="M244,-14q18.4,8.6 27,16.6q13,10.4 24,17.4q1,1 14,20q3,5 3,5" fill="none" stroke="#ff0000" stroke-width="3"></path><path d="M251,-10q.5-.4 .9-.8q-1.2-.2 -3.2,0q.4,.4 1.3,.8" fill="none" stroke="#348034" stroke-width="2.7"></path><path d="M256,-6Q261,-7 259,-3Q259,-4 259,-5" fill="none" stroke="#348034" stroke-width="3"></path><path d="M268,-1Q271.2,1.3 271.2,1.2Q271,1 270,1" fill="none" stroke="#348034" stroke-width="3"></path><path d="M278,9Q278.1,9.4 278.2,10.1Q278.4,12.4 277,12.1Q277.5,10.7 279,9" fill="none" stroke="#348034" stroke-width="2.6"></path><path d="M316,50q2.8-5 3.8-2q1.9,6 -3.3,2.8q-3.5-1.8 .5-6.8q1,2 1,5q-1.4-1.8 -3-5" fill="none" stroke="#348034" stroke-width="3"></path><path d="M324,64Q334,59 341,44Q349,26 340,12Q337,6 336,19Q336,51 336,78" fill="none" stroke="#348034" stroke-width="3"></path><path d="M329,47q7,7 17,7q11-1 6-5" fill="none" stroke="#348034" stroke-width="4"></path><path d="M-52,204l1,146l2,0l1-146l3,0l-5-6l-5,6l3,0" fill="#ffffff"></path><path d="M97,348l-147,1l0,2l147,1l0,3l5-5l-5-5l0,3" fill="#ffffff"></path><path d="M-11,232q-3,1 -2-1q1,0 3,1q-2,1 -6,2q1-1 3-3q0,0 -2,1" fill="none" stroke="#348034" stroke-width="4"></path><path d="M-30,205q-6,20 -1,16q2-4 4-7" fill="none" stroke="#348034" stroke-width="4"></path><path d="M-27,192q0-2 0-3" fill="none" stroke="#348034" stroke-width="3"></path><path d="M-18,202q14,0 14,0" fill="none" stroke="#348034" stroke-width="4"></path><path d="M-19,207q15-1 15-1" fill="none" stroke="#348034" stroke-width="4"></path><path d="M-21,212q16,1 16,0" fill="none" stroke="#348034" stroke-width="5"></path><path d="M9,212Q20,198 19,177Q19,168 14,173Q9,177 10,216Q11,228 11,228" fill="none" stroke="#348034" stroke-width="4"></path><path d="M3,206Q20,209 25,205" fill="none" stroke="#348034" stroke-width="4"></path><path d="M-11,232q-10,13 -11,34q-2,39 27,47q43,12 65-47q11-30 -12-42q-7-4 -41,0q-12,2 -23,4q1-4 5-9q2,6 2,15q-5-1 -11-4" fill="none" stroke="#ff0000" stroke-width="5"></path><path d="M-14,230q-1,5 -3,4q-1-1 2-6q2-2 3,4q2,10 -6,6q-6-4 2-8q2-1 4,6q1,6 -5,4q-7-3 0-9q3-3 6,4q2,5 -4,3q-6-1 -1-7q4-3 4,3q1,4 -4,2q-4-1 2-3q6-3 3,3q-1,3 -4-1q-3-4 2-4q4,0 2,6q-1,0 -3,0q2-1 5-3q-1,1 -3,2q-1-2 -2-5q2,0 3,1q-1,0 -4,0q0,0 0,1" fill="none" stroke="#348034" stroke-width="3"></path></svg>