<svg viewBox="-302 -111 981 427.5" width="981" height="427.5" version="1.1" baseProfile="full" xmlns="http://www.w3.org/2000/svg" class="js-draw--autoresize"><style id="js-draw-style-sheet">path{stroke-linecap:round;stroke-linejoin:round;}text{white-space:pre;}</style><g class="js-draw-image-background js-draw-image-background-grid js-draw-image-background-grid-25"><path d="M679,316.5l0-427.5l-981,0l0,427.5l981,0" fill="none"></path><path d="M-302.35,-100l981.7,0m-981.7,25l981.7,0m-981.7,25l981.7,0m-981.7,25l981.7,0m-981.7,25l981.7,0m-981.7,25l981.7,0m-981.7,25l981.7,0m-981.7,25l981.7,0m-981.7,25l981.7,0m-981.7,25l981.7,0m-981.7,25l981.7,0m-981.7,25l981.7,0m-981.7,25l981.7,0m-981.7,25l981.7,0m-981.7,25l981.7,0m-981.7,25l981.7,0m-981.7,25l981.7,0m-979.35-411.35l0,428.2m25-428.2l0,428.2m25-428.2l0,428.2m25-428.2l0,428.2m25-428.2l0,428.2m25-428.2l0,428.2m25-428.2l0,428.2m25-428.2l0,428.2m25-428.2l0,428.2m25-428.2l0,428.2m25-428.2l0,428.2m25-428.2l0,428.2m25-428.2l0,428.2m25-428.2l0,428.2m25-428.2l0,428.2m25-428.2l0,428.2m25-428.2l0,428.2m25-428.2l0,428.2m25-428.2l0,428.2m25-428.2l0,428.2m25-428.2l0,428.2m25-428.2l0,428.2m25-428.2l0,428.2m25-428.2l0,428.2m25-428.2l0,428.2m25-428.2l0,428.2m25-428.2l0,428.2m25-428.2l0,428.2m25-428.2l0,428.2m25-428.2l0,428.2m25-428.2l0,428.2m25-428.2l0,428.2m25-428.2l0,428.2m25-428.2l0,428.2m25-428.2l0,428.2m25-428.2l0,428.2m25-428.2l0,428.2m25-428.2l0,428.2m25-428.2l0,428.2m25-428.2l0,428.2" fill="none" stroke="#80808033" stroke-width=".7"></path></g><path d="M275,143l4-4l396,0l0-246l-396,0l0,246l-4,4l0-254l404,0l0,254l-404,0" fill="#ffffff"></path><path d="M326,-58l2,0l0-2l-2,0l0,2l0-2l2,0l0,2l-2,0" fill="#ffffff"></path><path d="M326,92l2-2l298,0l0-148l-298,0l0,148l-2,2l0-152l302,0l0,152l-302,0" fill="#ffffff"></path><path d="M323,-74q34.8-19.4 40-17" fill="none" stroke="#ffffff" stroke-width="1.7"></path><path d="M358,-68q23-10.6 42-19" fill="none" stroke="#ffffff" stroke-width="1.8"></path><path d="M406,-75q49.9-17.8 46-13" fill="none" stroke="#ffffff" stroke-width="1.8"></path><path d="M476,-79q28.5-6.4 52-11" fill="none" stroke="#ffffff" stroke-width="1.8"></path><path d="M543,-73q59.3-18.4 59-19" fill="none" stroke="#ffffff" stroke-width="1.9"></path><path d="M620,-79q39.6-9.4 39-10" fill="none" stroke="#ffffff" stroke-width="2"></path><path d="M639,-47q21.5-14 22-11" fill="none" stroke="#ffffff" stroke-width="1.9"></path><path d="M641,-10q3.4-3.4 16-13" fill="none" stroke="#ffffff" stroke-width="1.9"></path><path d="M643,47q19.2-20.5 21-18" fill="none" stroke="#ffffff" stroke-width="2"></path><path d="M650,81q7-8.9 13-16" fill="none" stroke="#ffffff" stroke-width="1.8"></path><path d="M646,107q7.1-7.2 13-13" fill="none" stroke="#ffffff" stroke-width="1.7"></path><path d="M593,129q-1.3-16.6 10.3-24.5" fill="none" stroke="#ffffff" stroke-width="2.4"></path><path d="M528,134q10-8.7 18-16" fill="none" stroke="#ffffff" stroke-width="1.8"></path><path d="M485,132q37-25.7 25-20" fill="none" stroke="#ffffff" stroke-width="1.7"></path><path d="M430,129q20.8-13.6 21-15" fill="none" stroke="#ffffff" stroke-width="1.8"></path><path d="M376,127q30-22 24-21" fill="none" stroke="#ffffff" stroke-width="1.9"></path><path d="M340,127q12.7-16.8 14-22" fill="none" stroke="#ffffff" stroke-width="1.8"></path><path d="M306,111q7.6-8.9 14-16" fill="none" stroke="#ffffff" stroke-width="1.7"></path><path d="M290,98q7.2-13.7 13-25" fill="none" stroke="#ffffff" stroke-width="1.7"></path><path d="M290,59q13.3-21.9 24-40" fill="none" stroke="#ffffff" stroke-width="1.6"></path><path d="M293,10q9.2-16.6 17-30" fill="none" stroke="#ffffff" stroke-width="1.6"></path><path d="M290,-14q20.6-25.6 19-26" fill="none" stroke="#ffffff" stroke-width="1.6"></path><path d="M290,-51q19-25.6 23-21" fill="none" stroke="#ffffff" stroke-width="1.6"></path><path d="M289,-75q3.5-13.6 13.6-18.1" fill="none" stroke="#ffffff" stroke-width="1.7"></path><path d="M349,-26q6.6,0 12,0" fill="none" stroke="#348034" stroke-width="2.4"></path><path d="M398,-29q2.7-3.3 5-6" fill="none" stroke="#348034" stroke-width="2.1"></path><path d="M426,-37q.2,.2 0,.2q-.2,0 -.2-.2q0-.2 .2-.2q.2,0 .2,.2" fill="none" stroke="#348034" stroke-width="2"></path><path d="M380,1Q381.1,2.7 382,4" fill="none" stroke="#348034" stroke-width="2.1"></path><path d="M387,26q-2.8,.5 -5,1" fill="none" stroke="#348034" stroke-width="2.3"></path><path d="M356,8Q358.2,5.2 360,3" fill="none" stroke="#348034" stroke-width="2"></path><path d="M387,-10Q392.5,-2.9 396,1" fill="none" stroke="#348034" stroke-width="2"></path><path d="M415,12q-1.7,4.4 -3,8" fill="none" stroke="#348034" stroke-width="2"></path><path d="M355,55q2.7-.1 5,0" fill="none" stroke="#348034" stroke-width="2"></path><path d="M438,-20q0-2.1 3-.8" fill="none" stroke="#348034" stroke-width="2.4"></path><path d="M140,4Q141,3 146,3Q188,5 222,6Q219,7 215,7" fill="none" stroke="#ff0000" stroke-width="5"></path><path d="M135,26q41,0 75-1q-2,0 -4,0" fill="none" stroke="#ff0000" stroke-width="5"></path><path d="M220,-1Q217,-2 218,-2Q235,10 251,18Q243,26 227,33Q220,38 214,43Q215,43 218,42" fill="none" stroke="#ff0000" stroke-width="5"></path><path d="M-302,152l4-4l396,0l0-246l-396,0l0,246l-4,4l0-254l404,0l0,254l-404,0" fill="#ffffff"></path><path d="M-251,-49l2,0l0-2l-2,0l0,2l0-2l2,0l0,2l-2,0" fill="#ffffff"></path><path d="M-251,101l2-2l298,0l0-148l-298,0l0,148l-2,2l0-152l302,0l0,152l-302,0" fill="#ffffff"></path><path d="M-254,-65q34.8-19.4 40-17" fill="none" stroke="#ffffff" stroke-width="1.7"></path><path d="M-219,-59q23-10.6 42-19" fill="none" stroke="#ffffff" stroke-width="1.8"></path><path d="M-171,-66q49.9-17.8 46-13" fill="none" stroke="#ffffff" stroke-width="1.8"></path><path d="M-101,-70q28.5-6.4 52-11" fill="none" stroke="#ffffff" stroke-width="1.8"></path><path d="M-34,-64q59.3-18.4 59-19" fill="none" stroke="#ffffff" stroke-width="1.9"></path><path d="M43,-70q39.6-9.4 39-10" fill="none" stroke="#ffffff" stroke-width="2"></path><path d="M62,-38q21.5-14 22-11" fill="none" stroke="#ffffff" stroke-width="1.9"></path><path d="M64,-1q3.4-3.4 16-13" fill="none" stroke="#ffffff" stroke-width="1.9"></path><path d="M66,56q19.2-20.5 21-18" fill="none" stroke="#ffffff" stroke-width="2"></path><path d="M73,90q7-8.9 13-16" fill="none" stroke="#ffffff" stroke-width="1.8"></path><path d="M69,116q7.1-7.2 13-13" fill="none" stroke="#ffffff" stroke-width="1.7"></path><path d="M16,138q-1.3-16.6 10.3-24.5" fill="none" stroke="#ffffff" stroke-width="2.4"></path><path d="M-49,143q10-8.7 18-16" fill="none" stroke="#ffffff" stroke-width="1.8"></path><path d="M-92,141q37-25.7 25-20" fill="none" stroke="#ffffff" stroke-width="1.7"></path><path d="M-147,138q20.8-13.6 21-15" fill="none" stroke="#ffffff" stroke-width="1.8"></path><path d="M-201,136q30-22 24-21" fill="none" stroke="#ffffff" stroke-width="1.9"></path><path d="M-237,136q12.7-16.8 14-22" fill="none" stroke="#ffffff" stroke-width="1.8"></path><path d="M-271,120q7.6-8.9 14-16" fill="none" stroke="#ffffff" stroke-width="1.7"></path><path d="M-287,107q7.2-13.7 13-25" fill="none" stroke="#ffffff" stroke-width="1.7"></path><path d="M-287,68q13.3-21.9 24-40" fill="none" stroke="#ffffff" stroke-width="1.6"></path><path d="M-284,19q9.2-16.6 17-30" fill="none" stroke="#ffffff" stroke-width="1.6"></path><path d="M-287,-5q20.6-25.6 19-26" fill="none" stroke="#ffffff" stroke-width="1.6"></path><path d="M-287,-42q19-25.6 23-21" fill="none" stroke="#ffffff" stroke-width="1.6"></path><path d="M-288,-66q3.5-13.6 13.6-18.1" fill="none" stroke="#ffffff" stroke-width="1.7"></path><path d="M-100,100q0-82.5 0-150" fill="none" stroke="#ffffff" stroke-width="1.9"></path><path d="M-228,-17q6.6,0 12,0" fill="none" stroke="#348034" stroke-width="2.4"></path><path d="M-179,-20q2.7-3.3 5-6" fill="none" stroke="#348034" stroke-width="2.1"></path><path d="M-151,-28q.2,.2 0,.2q-.2,0 -.2-.2q0-.2 .2-.2q.2,0 .2,.2" fill="none" stroke="#348034" stroke-width="2"></path><path d="M-197,10Q-195.9,11.7 -195,13" fill="none" stroke="#348034" stroke-width="2.1"></path><path d="M-190,35q-2.8,.5 -5,1" fill="none" stroke="#348034" stroke-width="2.3"></path><path d="M-221,17q2.2-2.8 4-5" fill="none" stroke="#348034" stroke-width="2"></path><path d="M-190,-1Q-184.5,6.1 -181,10" fill="none" stroke="#348034" stroke-width="2"></path><path d="M-162,21q-1.7,4.4 -3,8" fill="none" stroke="#348034" stroke-width="2"></path><path d="M-222,64q2.7-.1 5,0" fill="none" stroke="#348034" stroke-width="2"></path><path d="M-161,54q.8-.2 4-1" fill="none" stroke="#348034" stroke-width="2"></path><path d="M-139,-11q0-2.1 3-.8" fill="none" stroke="#348034" stroke-width="2.4"></path><path d="M-133,52q.4,.4 2,2" fill="none" stroke="#348034" stroke-width="2"></path><path d="M-230,60q10,28 9,27q-1-6 15-29q0,1 0,3" fill="none" stroke="#348034" stroke-width="4"></path><path d="M-207,82q-4,10 0,8q4-4 6-7" fill="none" stroke="#348034" stroke-width="3"></path><path d="M-204,74q2.2-1.4 2.2-1.4q-.3,1.2 -1.2,2.4" fill="none" stroke="#348034" stroke-width="2.9"></path><path d="M455,28q1.1-2.2 2-4" fill="none" stroke="#348034" stroke-width="2.3"></path><path d="M493,-19q.8-.2 4-1" fill="none" stroke="#348034" stroke-width="2"></path><path d="M528,-26q1.9,5.6 4,10" fill="none" stroke="#348034" stroke-width="2.1"></path><path d="M536,24q-4.4,7.1 -8,13" fill="none" stroke="#348034" stroke-width="2.1"></path><path d="M450,42q-1.9,3.8 4.6,7.9" fill="none" stroke="#348034" stroke-width="2"></path><path d="M520,38q4.4,2.7 8,5" fill="none" stroke="#348034" stroke-width="2"></path><path d="M549,11Q548.4,7.2 548,4" fill="none" stroke="#348034" stroke-width="2"></path><path d="M469,27q20.9-7 38-13" fill="none" stroke="#348034" stroke-width="2.1"></path><path d="M537,41q-4.6,19.8 -2,19" fill="none" stroke="#348034" stroke-width="2.3"></path><path d="M576,-21q1.1,0 2,0" fill="none" stroke="#348034" stroke-width="2"></path><path d="M565,33q-2.7,5 -5,9" fill="none" stroke="#348034" stroke-width="2"></path><path d="M476,64q0-1.1 0-2" fill="none" stroke="#348034" stroke-width="2.2"></path><path d="M471,62q7.7,1.1 14,2" fill="none" stroke="#348034" stroke-width="2"></path><path d="M355,44q15,35 15,32q10-26 20-46q-2,2 -5,5" fill="none" stroke="#348034" stroke-width="4"></path><path d="M385,77q15-32 6-42q-3-3 -3,30q0,15 -1,19" fill="none" stroke="#348034" stroke-width="3"></path><path d="M381,65q12,8 21,5q2-1 3-2" fill="none" stroke="#348034" stroke-width="3"></path><path d="M441,196q-3,7 -2,6q23-26 15-53q-2-6 -8,0q-1,3 -3,44q0,22 2,26" fill="none" stroke="#348034" stroke-width="4"></path><path d="M434,191q-1,2 6,5q39,12 38-1q-1,0 -3,0" fill="none" stroke="#348034" stroke-width="3"></path><path d="M-141,191q-11,24 2,19q1-1 5-7" fill="none" stroke="#348034" stroke-width="4"></path><path d="M-140,180q2-9 3-7q-1,3 -3,5" fill="none" stroke="#348034" stroke-width="4"></path><path d="M-241,249q-1,23 1,35" fill="none" stroke="#348034" stroke-width="4"></path><path d="M-253,241q14,2 25,3" fill="none" stroke="#348034" stroke-width="3"></path><path d="M-222,284q-4,15 2,10q3-5 5-10" fill="none" stroke="#348034" stroke-width="4"></path><path d="M-222,270q1-2 3-1" fill="none" stroke="#348034" stroke-width="3"></path><path d="M378,254q0,19 0,35" fill="none" stroke="#348034" stroke-width="4"></path><path d="M361,254q11,1 21,1q8.9,0 16,0" fill="none" stroke="#348034" stroke-width="2.9"></path><path d="M391,301q12-19 12-33q1-14 -6-5q-3.7,27.5 -1,52" fill="none" stroke="#348034" stroke-width="3"></path><path d="M389,297q25-2.1 25-3" fill="none" stroke="#348034" stroke-width="2.7"></path></svg>