<svg viewBox="-455.9 -213.95 1013.35 584.15" width="1013.35" height="584.15" version="1.1" baseProfile="full" xmlns="http://www.w3.org/2000/svg" class="js-draw--autoresize"><style id="js-draw-style-sheet">path{stroke-linecap:round;stroke-linejoin:round;}text{white-space:pre;}</style><g class="js-draw-image-background js-draw-image-background-grid js-draw-image-background-grid-25"><path d="M557.45,370.2l0-584.15l-1013.35,0l0,584.15l1013.35,0" fill="none"></path><path d="M-456.25,-200l1014.05,0m-1014.05,25l1014.05,0m-1014.05,25l1014.05,0m-1014.05,25l1014.05,0m-1014.05,25l1014.05,0m-1014.05,25l1014.05,0m-1014.05,25l1014.05,0m-1014.05,25l1014.05,0m-1014.05,25l1014.05,0m-1014.05,25l1014.05,0m-1014.05,25l1014.05,0m-1014.05,25l1014.05,0m-1014.05,25l1014.05,0m-1014.05,25l1014.05,0m-1014.05,25l1014.05,0m-1014.05,25l1014.05,0m-1014.05,25l1014.05,0m-1014.05,25l1014.05,0m-1014.05,25l1014.05,0m-1014.05,25l1014.05,0m-1014.05,25l1014.05,0m-1014.05,25l1014.05,0m-1014.05,25l1014.05,0m-1007.8-564.3l0,584.85m25-584.85l0,584.85m25-584.85l0,584.85m25-584.85l0,584.85m25-584.85l0,584.85m25-584.85l0,584.85m25-584.85l0,584.85m25-584.85l0,584.85m25-584.85l0,584.85m25-584.85l0,584.85m25-584.85l0,584.85m25-584.85l0,584.85m25-584.85l0,584.85m25-584.85l0,584.85m25-584.85l0,584.85m25-584.85l0,584.85m25-584.85l0,584.85m25-584.85l0,584.85m25-584.85l0,584.85m25-584.85l0,584.85m25-584.85l0,584.85m25-584.85l0,584.85m25-584.85l0,584.85m25-584.85l0,584.85m25-584.85l0,584.85m25-584.85l0,584.85m25-584.85l0,584.85m25-584.85l0,584.85m25-584.85l0,584.85m25-584.85l0,584.85m25-584.85l0,584.85m25-584.85l0,584.85m25-584.85l0,584.85m25-584.85l0,584.85m25-584.85l0,584.85m25-584.85l0,584.85m25-584.85l0,584.85m25-584.85l0,584.85m25-584.85l0,584.85m25-584.85l0,584.85m25-584.85l0,584.85" fill="none" stroke="#80808033" stroke-width=".7"></path></g><path d="M-252,195q-92-49 -134-101q-56-67 -25-114q12-18 142-67q103-32 188-56q58-25 105-48q23-12 66,0q26,8 48,99q16,66 56,181q16,48 5,52q-2,1 -44,28q-74,47 -128,66q-75,25 -144,8q-35-7 -63-11q-14-2 -33-17q-2-1 -26-12q-18-8 -32-14q-3,0 -6,0" fill="none" stroke="#ffffff" stroke-width="4"></path><path d="M-139,4q14,48 25,87q5,17 10,7q5-18 8-34q5-26 39-79q-2,2 -5,6q0,2 1,4" fill="none" stroke="#348034" stroke-width="4"></path><path d="M-252,162q0,9.5 .6,24.6" fill="none" stroke="#348034" stroke-width="2.4"></path><path d="M-255,153q13.6-5.6 19.2,0q4.8,4.9 -4.3,14.1q-6.8,7 -10.9,2.9" fill="none" stroke="#348034" stroke-width="3"></path><path d="M-93,-166q9.7-6.3 18-11" fill="none" stroke="#ffffff" stroke-width="2"></path><path d="M-38,-191q4.2-2.5 8-4" fill="none" stroke="#ffffff" stroke-width="1.6"></path><path d="M-17,-202q5.4-2.4 10-4" fill="none" stroke="#ffffff" stroke-width="1.6"></path><path d="M11,-208q6.5-1.9 12-3" fill="none" stroke="#ffffff" stroke-width="1.6"></path><path d="M47,-213q7.7,.4 14,1" fill="none" stroke="#ffffff" stroke-width="1.9"></path><path d="M89,-200q6.6,1.3 12,3" fill="none" stroke="#ffffff" stroke-width="1.8"></path><path d="M126,-179q2.4,9.4 5,17" fill="none" stroke="#ffffff" stroke-width="1.8"></path><path d="M144,-132q2.6,7.7 5,14" fill="none" stroke="#ffffff" stroke-width="1.6"></path><path d="M167,-74q1.9,7.2 4,13" fill="none" stroke="#ffffff" stroke-width="1.7"></path><path d="M183,-6Q183.5,-3.2 184,-1" fill="none" stroke="#ffffff" stroke-width="1.6"></path><path d="M195,51q3.8,8.8 7,16" fill="none" stroke="#ffffff" stroke-width="1.7"></path><path d="M216,104q3.1,9.4 6,17" fill="none" stroke="#ffffff" stroke-width="1.6"></path><path d="M223,156q-5.7,13.1 -10,24" fill="none" stroke="#ffffff" stroke-width="1.8"></path><path d="M184,193q-4.4,2.7 -8,5" fill="none" stroke="#ffffff" stroke-width="1.6"></path><path d="M139,218q-5,1.9 -9,4" fill="none" stroke="#ffffff" stroke-width="1.6"></path><path d="M83,241q-6.7,3.1 -12,6" fill="none" stroke="#ffffff" stroke-width="1.6"></path><path d="M40,257q-11.6,1.9 -21,4" fill="none" stroke="#ffffff" stroke-width="1.6"></path><path d="M-16,276q-21.5,7.6 -39,14" fill="none" stroke="#ffffff" stroke-width="1.8"></path><path d="M-97,285q-8-2.6 -34.5-3.5" fill="none" stroke="#ffffff" stroke-width="1.9"></path><path d="M-172,277q-11-4.5 -20-8" fill="none" stroke="#ffffff" stroke-width="1.6"></path><path d="M-231,244q-22.4,1.6 -24,0" fill="none" stroke="#ffffff" stroke-width="1.8"></path><path d="M-309,223q-2.9-1.9 -6-5" fill="none" stroke="#ffffff" stroke-width="1.7"></path><path d="M-341,199q-15.5-11.5 -18-14" fill="none" stroke="#ffffff" stroke-width="1.6"></path><path d="M-370,170q-8.8-7.7 -16-14" fill="none" stroke="#ffffff" stroke-width="1.9"></path><path d="M-398,138q-10-10.9 -18-20" fill="none" stroke="#ffffff" stroke-width="1.6"></path><path d="M-424,107q-6.7-10.4 -12-19" fill="none" stroke="#ffffff" stroke-width="1.6"></path><path d="M-445,64q-3-9.3 -5-17" fill="none" stroke="#ffffff" stroke-width="1.6"></path><path d="M-453,27Q-455.1,17.7 -453.5,7.5" fill="none" stroke="#ffffff" stroke-width="1.6"></path><path d="M-449,-4q1.9-4 4-7" fill="none" stroke="#ffffff" stroke-width="1.6"></path><path d="M-435,-20q1-1.7 2-3" fill="none" stroke="#ffffff" stroke-width="1.6"></path><path d="M-422,-39q3.1-4.5 6-8" fill="none" stroke="#ffffff" stroke-width="1.6"></path><path d="M-403,-52q2.2-1.7 4-3" fill="none" stroke="#ffffff" stroke-width="1.6"></path><path d="M-381,-66q18.6-4.4 17-6" fill="none" stroke="#ffffff" stroke-width="1.6"></path><path d="M-348,-76q.6-.6 1-1" fill="none" stroke="#ffffff" stroke-width="1.6"></path><path d="M-329,-83q1.6-.6 3-1" fill="none" stroke="#ffffff" stroke-width="1.6"></path><path d="M-305,-93q6.4-3.6 12-6" fill="none" stroke="#ffffff" stroke-width="1.6"></path><path d="M-271,-98q9-4 9-4" fill="none" stroke="#ffffff" stroke-width="1.6"></path><path d="M-250,-106q7.1-4.5 13-8" fill="none" stroke="#ffffff" stroke-width="1.6"></path><path d="M-225,-119q22.7-9.6 30.8-12.5q19.6-7.1 18.2-8.5" fill="none" stroke="#ffffff" stroke-width="1.6"></path><path d="M-172,-139q.2,.2 0,.2q-.2,0 -.2-.2q0-.2 .2-.2q.2,0 .2,.2" fill="none" stroke="#ffffff" stroke-width="1.6"></path><path d="M-131,-150q5.3-4.1 10-7" fill="none" stroke="#ffffff" stroke-width="1.6"></path><path d="M89,-96q-3.7,23.9 15.5,43.5q15.5,16 60.5,1.3q26.6-8.6 38.5-54.1q8.5-32.5 -37.9-47.3q-16.9-5.4 -43.6,9.1q-9.5,10.5 -16,20.5" fill="none" stroke="#ffffff" stroke-width="2.6"></path><path d="M203,-116q64-34 117-62q-4.1,2.7 -11,7" fill="none" stroke="#ffffff" stroke-width="2.9"></path><path d="M205,-110q82,47 87,61q-2-2 -5-6" fill="none" stroke="#ffffff" stroke-width="3"></path><path d="M342,-148q-5.4-11.9 -2-8.2q17.6,19 16.1,79.7q-.9,34.4 -13.1,50.2q1-2.1 3-5.7" fill="none" stroke="#ffffff" stroke-width="2.7"></path><path d="M352,-137q9.9-4.3 36.5-12.9q46.7-15.2 53.2-16.2q1.3,.2 2.4,.5q.1,.8 -.1,1.6" fill="none" stroke="#ffffff" stroke-width="2.8"></path><path d="M436,-163q-11.2,18.2 -6.8,35.1q3.8,14.9 23.2-14.9q12.2-18.8 -3.5-27.4q-4.9-2.7 -5.4,3.7" fill="none" stroke="#ffffff" stroke-width="2.4"></path><path d="M356,-106q1.7-1.3 26.4-9.4q57.4-19 73.1-19.2q-2.6,1.6 -7.5,3.6" fill="none" stroke="#ffffff" stroke-width="2.7"></path><path d="M357,-74q24.7-4.6 73.1-20.5q14.9-3.3 27.3-5.4q1.1-.2 -5.4-.1" fill="none" stroke="#ffffff" stroke-width="2.7"></path><path d="M444,-129q-23.2,28.7 -11.1,35.6q6.1,3.5 19.8-15.2q9.7-13.1 -3.2-21.5q-4.8-3.1 -13,6.6" fill="none" stroke="#ffffff" stroke-width="2.5"></path><path d="M350,-46q51.9-3.1 61.1-.5q4.4,3.2 7.7,6.5q2.7-.5 5.2-2" fill="none" stroke="#ffffff" stroke-width="2.7"></path><path d="M436,-89q-26.4,47.4 -9.8,49.4q8,.9 27.5-28.7q11.5-17.5 -1.1-28q-4.2,2.2 -7.6,6.3" fill="none" stroke="#ffffff" stroke-width="2.7"></path><path d="M48,257q46,61.2 36.7,88.8q3.2-4.2 8.2-12.6q.4-.2 .8-.2q-4.9,3.9 -14.7,9.1q2.8,2.2 8,3.9" fill="none" stroke="#ffffff" stroke-width="2.3"></path><path d="M106,327q12.2,37.9 12.3,37.9q6.7-10.9 9-25q3.8-8.9 7.7-15.9" fill="none" stroke="#ffffff" stroke-width="2.4"></path><path d="M136,349q6.6-.1 12,0" fill="none" stroke="#ffffff" stroke-width="1.9"></path><path d="M139,348q.8,7.2 2,13" fill="none" stroke="#ffffff" stroke-width="1.7"></path><path d="M167,314q9.7,26.6 2.8,44.4q-4.3,10.9 -13.4,4.1q-2.5-1.9 4.1-15" fill="none" stroke="#ffffff" stroke-width="1.8"></path><path d="M178,320q9.4,26.9 16.8,48.9q4.6-9.4 8.3-26.9q4.1-19.5 9-22.5q-.1,3.8 -2.1,9.5" fill="none" stroke="#ffffff" stroke-width="2.5"></path><path d="M450,-150q25.6-4.6 46.6-7.6q-1.2-1.9 -3.9-4.2q.5,3.9 3,10q-.1-3.5 -1-9.9q-.4-.9 -.9-1.5q2.4,1.1 6.2,3.7q-1.8,4.4 -6,8.5" fill="none" stroke="#ffffff" stroke-width="2.6"></path><path d="M513,-189q14.9,39.7 -2.6,54.6q-5.3,4.6 -4.8-5.3q.1-.8 9.4-10.3" fill="none" stroke="#ffffff" stroke-width="2"></path><path d="M532,-141q16.1-41.8 5.1-55.6q-5.6-6.9 -6,52.2q-.1,13.6 6.7,12.6q2.2-3.3 3.2-7.2" fill="none" stroke="#ffffff" stroke-width="2.1"></path><path d="M549,-139q7-9.3 7.5-8.1q-1.3,9.3 -4.5,17.1" fill="none" stroke="#ffffff" stroke-width="1.9"></path><path d="M449,-113q34.5,5.6 46.6,23.5q1.1-5.3 .8-14.3q-3.7,5.5 -8,16.4q3.1-3.9 8.1-11.6q-.9,1.4 -2.5,4" fill="none" stroke="#ffffff" stroke-width="2.6"></path><path d="M510,-107q14.3,53.3 -3.5,47.7q-5-1.6 3.5-8.6q3.7-1.4 7-2.1" fill="none" stroke="#ffffff" stroke-width="2.2"></path><path d="M525,-56q22.1-52.1 12.2-62.2q-3.2-3.2 -9.6,48.9q-4.4,35 7.1,24.9q1.1-3.9 1.3-7.6" fill="none" stroke="#ffffff" stroke-width="2.3"></path><path d="M540,-59q12.7-1.9 9.7,7.3q-3.2,7.9 -6.1,14.3q2.6-.5 6.4-2.6" fill="none" stroke="#ffffff" stroke-width="2"></path><path d="M446,-58q19.5,21.6 27,58.5q.7,6.6 1.1,12q.8-5 1.5-14.5q-2.1,2.4 -4.9,7.3q2.1,1.2 5.3,1.7" fill="none" stroke="#ffffff" stroke-width="2.4"></path><path d="M505,-21q7.4,9.9 6.5,29.9q-1.2,24 -15.8,21.7q-6.2-1 3.6-11.7q4.1-2.4 7.7-3.9" fill="none" stroke="#ffffff" stroke-width="2.1"></path><path d="M514,32q23.1-53.1 13.2-59.8q-1.1-.8 -6.8,51.3q-1.9,17.5 3.9,19.4q1.3-4.2 .7-9.9" fill="none" stroke="#ffffff" stroke-width="2.2"></path><path d="M531,38q7.9-6.9 6.7,1.7q-1.2,8.4 .2,9.1q3.1,1.6 1.2,10.1q-1.5,1.3 -3.1,2.1" fill="none" stroke="#ffffff" stroke-width="2"></path><path d="M373,14q12.9-68.2 14.1-76.9q.4-.1 .7,0q2.2,6.3 1.8,13.3q-3.2-2.3 -7.2-7.4q-.7-1 4.6,4" fill="none" stroke="#ffffff" stroke-width="2.2"></path><path d="M352,53q5.2-15.9 12.2-21.7q10.2-8.5 13.3,23.2" fill="none" stroke="#ffffff" stroke-width="2.1"></path><path d="M356,47q20.9-2.9 21-3" fill="none" stroke="#ffffff" stroke-width="1.8"></path><path d="M384,51q19-3.7 11.6,4.9q-5.8,4.2 -11,7.1q4.4-.4 12.1-2.1q8.1-1.8 -2.4,9.2q-1.2,1.3 -8.3,3.9" fill="none" stroke="#ffffff" stroke-width="2.7"></path><path d="M317,-80q37.2-9.8 39.9-5.9q-2.5-4.3 -7.5-12.3q1.7,3 4.9,8.4q-1.3-1.4 -3.7-4.2q4.1-.1 10.5,1.5q-3.2,4.6 -10.1,9.5" fill="none" stroke="#ffffff" stroke-width="2.5"></path><path d="M294,-69q8.9-24.1 11.2-24q6.1,13.2 6.8,29" fill="none" stroke="#ffffff" stroke-width="2.3"></path><path d="M296,-70q21.2-3.2 22-4" fill="none" stroke="#ffffff" stroke-width="2"></path><path d="M317,-60q6.3-7.7 7.3-3.9q-1.3,8.9 -3.9,16.1q-2.5,7.2 10.1-8.7" fill="none" stroke="#ffffff" stroke-width="1.9"></path><path d="M324,-129q35,.6 34.1-.2q-2.7-4.5 -4.3-8.6q2.2,2.6 5.7,7.8q-2.1,2.4 -5.5,4" fill="none" stroke="#ffffff" stroke-width="2.6"></path><path d="M282,-118q12.9-30.3 23-19q4.7,5.2 4.8,25.6q-1.3,2.5 -2.8,4.4" fill="none" stroke="#ffffff" stroke-width="2.2"></path><path d="M293,-128q18.5,6.6 22.6,6.6" fill="none" stroke="#ffffff" stroke-width="2.6"></path><path d="M314,-104q6.2-7.1 6.7-4.9q.4,7.1 .3,12.9" fill="none" stroke="#ffffff" stroke-width="2.2"></path></svg>