<svg viewBox="-352 -557 404 915" width="404" height="915" version="1.1" baseProfile="full" xmlns="http://www.w3.org/2000/svg" class="js-draw--autoresize"><style id="js-draw-style-sheet">path{stroke-linecap:round;stroke-linejoin:round;}text{white-space:pre;}</style><g class="js-draw-image-background js-draw-image-background-grid js-draw-image-background-grid-25"><path d="M52,358l0-915l-404,0l0,915l404,0" fill="none"></path><path d="M-352.35,-550l404.7,0m-404.7,25l404.7,0m-404.7,25l404.7,0m-404.7,25l404.7,0m-404.7,25l404.7,0m-404.7,25l404.7,0m-404.7,25l404.7,0m-404.7,25l404.7,0m-404.7,25l404.7,0m-404.7,25l404.7,0m-404.7,25l404.7,0m-404.7,25l404.7,0m-404.7,25l404.7,0m-404.7,25l404.7,0m-404.7,25l404.7,0m-404.7,25l404.7,0m-404.7,25l404.7,0m-404.7,25l404.7,0m-404.7,25l404.7,0m-404.7,25l404.7,0m-404.7,25l404.7,0m-404.7,25l404.7,0m-404.7,25l404.7,0m-404.7,25l404.7,0m-404.7,25l404.7,0m-404.7,25l404.7,0m-404.7,25l404.7,0m-404.7,25l404.7,0m-404.7,25l404.7,0m-404.7,25l404.7,0m-404.7,25l404.7,0m-404.7,25l404.7,0m-404.7,25l404.7,0m-404.7,25l404.7,0m-404.7,25l404.7,0m-404.7,25l404.7,0m-404.7,25l404.7,0m-402.35-907.35l0,915.7m25-915.7l0,915.7m25-915.7l0,915.7m25-915.7l0,915.7m25-915.7l0,915.7m25-915.7l0,915.7m25-915.7l0,915.7m25-915.7l0,915.7m25-915.7l0,915.7m25-915.7l0,915.7m25-915.7l0,915.7m25-915.7l0,915.7m25-915.7l0,915.7m25-915.7l0,915.7m25-915.7l0,915.7m25-915.7l0,915.7m25-915.7l0,915.7" fill="none" stroke="#80808033" stroke-width=".7"></path></g><path d="M-351,301l2-2l198,0l0-148l-198,0l0,148l-2,2l0-152l202,0l0,152l-202,0" fill="#ffffff"></path><path d="M-152,302l4-4l196,0l0-146l-196,0l0,146l-4,4l0-154l204,0l0,154l-204,0" fill="#ffffff"></path><path d="M-150,100q0,113 0,206q0-2 0-6q0,20 0,56q0-21 0-62q0,2 0,6" fill="none" stroke="#ff0000" stroke-width="4"></path><path d="M-352,152L-348,148L-152,148L-152,2L-348,2L-348,148L-352,152L-352,-2L-148,-2L-148,152L-352,152" fill="#ffffff"></path><path d="M-151,151L-149,149L49,149L49,1L-149,1L-149,149L-151,151L-151,-1L51,-1L51,151L-151,151" fill="#ffffff"></path><path d="M-150,-50q0,86 0,157q0-1 0-2q0,18 0,52q0-3 0-7" fill="none" stroke="#ff0000" stroke-width="4"></path><path d="M-308,192q0,35 0,63" fill="none" stroke="#348034" stroke-width="3"></path><path d="M-321,194q23,1 41,2" fill="none" stroke="#348034" stroke-width="3"></path><path d="M-281,254q-9,22 -3,20q4-6 6-11" fill="none" stroke="#348034" stroke-width="3"></path><path d="M-281,231q1.6-2.8 3-5" fill="none" stroke="#348034" stroke-width="2.5"></path><path d="M-79,199q-15,3 -16,17q0,3 19,19q9,8 -3,21q-5,5 -10,0" fill="none" stroke="#348034" stroke-width="4"></path><path d="M-67,38q-18,9 -16,23q8,11 16,19q13,13 -5,26q-4,3 -10-3" fill="none" stroke="#348034" stroke-width="3"></path><path d="M-303,44q2,52 0,50" fill="none" stroke="#348034" stroke-width="3"></path><path d="M-314,46q17.6-.2 32,0" fill="none" stroke="#348034" stroke-width="2.9"></path><path d="M-284,96q-8,20 1,13q5-7 8-14" fill="none" stroke="#348034" stroke-width="3"></path><path d="M-282,80q.6-1.1 1-2" fill="none" stroke="#348034" stroke-width="2.7"></path><path d="M-258,85q10-2 18-4" fill="none" stroke="#348034" stroke-width="3"></path><path d="M-250,75q2,12 4,21" fill="none" stroke="#348034" stroke-width="3"></path><path d="M-211,56q4.4,24.1 1.3,38.4q-2.3,10.8 -12.7,7.3q-7.3-2.4 .5-14.8q4.5-3.1 8.9-4.9" fill="none" stroke="#348034" stroke-width="2.8"></path><path d="M-191,58q-3,45 2,49q4,4 5-15" fill="none" stroke="#348034" stroke-width="3"></path><path d="M-198,77q8.2-.8 15-1" fill="none" stroke="#348034" stroke-width="2.7"></path><path d="M-241,-29q-1.1-4.1 -1-8" fill="none" stroke="#ffffff" stroke-width="2"></path><path d="M-237,-77q-.6-1.1 -1-2" fill="none" stroke="#ffffff" stroke-width="1.7"></path><path d="M-235,-94q-.6-1.1 -1-2" fill="none" stroke="#ffffff" stroke-width="1.6"></path><path d="M-49,-30q-.5,.6 -1,1" fill="none" stroke="#ffffff" stroke-width="1.6"></path><path d="M-48,-65q-.6-1.6 -1-3" fill="none" stroke="#ffffff" stroke-width="1.6"></path><path d="M-43,-114q-.6-2.2 -1-4" fill="none" stroke="#ffffff" stroke-width="1.6"></path><path d="M-352,-148l4-4l196,0l0-146l-196,0l0,146l-4,4l0-154l204,0l0,154l-204,0" fill="#ffffff"></path><path d="M-152,-148l4-4l196,0l0-146l-196,0l0,146l-4,4l0-154l204,0l0,154l-204,0" fill="#ffffff"></path><path d="M-150,-100q0-140 0-254q0,1 0,4" fill="none" stroke="#ff0000" stroke-width="4"></path><path d="M-331,-260q-3.2,22.5 -5,41" fill="none" stroke="#348034" stroke-width="2.5"></path><path d="M-344,-265q10.9,1.2 39.6-2.8" fill="none" stroke="#348034" stroke-width="2.7"></path><path d="M-311,-217q-.9,18.1 5.4,12.9q2.4-5.1 3.6-9.9" fill="none" stroke="#348034" stroke-width="2.6"></path><path d="M-306,-240q1.7-.5 3-1" fill="none" stroke="#348034" stroke-width="2.1"></path><path d="M-289,-231q7.2-1 13-2" fill="none" stroke="#348034" stroke-width="2.9"></path><path d="M-286,-241q1.5,13.8 3,25" fill="none" stroke="#348034" stroke-width="2.3"></path><path d="M-270,-238q7-10 9-3q2,8 -2,28q4-7 9-21q4-10 10-6q0,13 -3,24q-3,10 3,12q4-6 5-13" fill="none" stroke="#348034" stroke-width="3"></path><path d="M-213,-264q2.7,52 -10.4,48q-3.1-.9 -1-11.6q.4-2.1 8.4-6.4" fill="none" stroke="#348034" stroke-width="2.9"></path><path d="M-193,-262q-8,70 0,59q3-12 4-22" fill="none" stroke="#348034" stroke-width="3"></path><path d="M-206,-241q9.3,1.7 17,3" fill="none" stroke="#348034" stroke-width="2.7"></path><path d="M-76,-271q-11,9 -12,22q-1,9 24,29q10,8 2,24q-6,11 -19,8q2,0 4,0" fill="none" stroke="#348034" stroke-width="4"></path><path d="M-248,-334q0-.4 0-2" fill="none" stroke="#ffffff" stroke-width="1.7"></path><path d="M-241,-361q-.2-.4 -1-2" fill="none" stroke="#ffffff" stroke-width="1.6"></path><path d="M-237,-391q-.6-2.2 -1-4" fill="none" stroke="#ffffff" stroke-width="1.8"></path><path d="M-63,-336q-.5-1.1 -1-2" fill="none" stroke="#ffffff" stroke-width="1.7"></path><path d="M-61,-365q-1.1-2.2 -2-4" fill="none" stroke="#ffffff" stroke-width="1.8"></path><path d="M-57,-398q-1.1-.5 -2-1" fill="none" stroke="#ffffff" stroke-width="2.6"></path><path d="M-351,-399l2-2l198,0l0-148l-198,0l0,148l-2,2l0-152l202,0l0,152l-202,0" fill="#ffffff"></path><path d="M-152,-398l4-4l196,0l0-146l-196,0l0,146l-4,4l0-154l204,0l0,154l-204,0" fill="#ffffff"></path><path d="M-150,-550q0,60 0,109q0,0 0,0q0,26 0,47q0-56 0-161q0,2 0,5q0,0 0,0" fill="none" stroke="#ff0000" stroke-width="4"></path><path d="M-299,-520q7,62 7,62" fill="none" stroke="#348034" stroke-width="4"></path><path d="M-313,-521q31-2 31-2" fill="none" stroke="#348034" stroke-width="3"></path><path d="M-271,-447q11.6-55.3 1.7-54.8q-1,.1 2.6,49.3q.4,5.1 3.7,25.5" fill="none" stroke="#348034" stroke-width="2.9"></path><path d="M-274,-453q15.9,.3 29,1" fill="none" stroke="#348034" stroke-width="2.8"></path><path d="M-55,-515q-22,20 -16,42q9,13 19,22q4,5 -9,20q-4,4 -8,4q0-1 3-1" fill="none" stroke="#348034" stroke-width="4"></path></svg>