<svg viewBox="-433.1 -153.6 508.2 333.8" width="508.2" height="333.8" version="1.1" baseProfile="full" xmlns="http://www.w3.org/2000/svg" class="js-draw--autoresize"><style id="js-draw-style-sheet">path{stroke-linecap:round;stroke-linejoin:round;}text{white-space:pre;}</style><g class="js-draw-image-background js-draw-image-background-grid js-draw-image-background-grid-25"><path d="M75.1,180.2l0-333.8l-508.2,0l0,333.8l508.2,0" fill="none"></path><path d="M-433.45,-150l508.9,0m-508.9,25l508.9,0m-508.9,25l508.9,0m-508.9,25l508.9,0m-508.9,25l508.9,0m-508.9,25l508.9,0m-508.9,25l508.9,0m-508.9,25l508.9,0m-508.9,25l508.9,0m-508.9,25l508.9,0m-508.9,25l508.9,0m-508.9,25l508.9,0m-508.9,25l508.9,0m-508.9,25l508.9,0m-500.45-328.95l0,334.5m25-334.5l0,334.5m25-334.5l0,334.5m25-334.5l0,334.5m25-334.5l0,334.5m25-334.5l0,334.5m25-334.5l0,334.5m25-334.5l0,334.5m25-334.5l0,334.5m25-334.5l0,334.5m25-334.5l0,334.5m25-334.5l0,334.5m25-334.5l0,334.5m25-334.5l0,334.5m25-334.5l0,334.5m25-334.5l0,334.5m25-334.5l0,334.5m25-334.5l0,334.5m25-334.5l0,334.5m25-334.5l0,334.5m25-334.5l0,334.5" fill="none" stroke="#80808033" stroke-width=".7"></path></g><path d="M-243.4,60.2q0-137.7 -.2-137.7q-188.1,0 -188.1,.2q0,137.5 .2,137.5q103.4,0 188.1,0" fill="none" stroke="#348034" stroke-width="2.8"></path><path d="M73.9,163q0-315.4 -.3-315.4q-262.2,0 -262.2,.3q0,315.1 .3,315.1q144.2,0 262.2,0" fill="none" stroke="#348034" stroke-width="2.4"></path><path d="M-223,179q-1.4-174.6 -2.5-317.5" fill="none" stroke="#ff0000" stroke-width="2.4"></path><path d="M-354,-37q0-4.4 0-8q-.9,14.7 -2,42q0,.4 1-2" fill="none" stroke="#ffffff" stroke-width="2.6"></path><path d="M-371,-53q30.3-10.1 38-5" fill="none" stroke="#ffffff" stroke-width="2.3"></path><path d="M-351,13Q-338.7,-3.8 -337,-3Q-333,-1 -333,25" fill="none" stroke="#ffffff" stroke-width="2.1"></path><path d="M-349,7Q-337,1 -331,1" fill="none" stroke="#ffffff" stroke-width="2"></path><path d="M-321,-37q3.9-13.2 7-24q3.9,9.5 7,27" fill="none" stroke="#ffffff" stroke-width="2.5"></path><path d="M-319,-45q7-1 13-1" fill="none" stroke="#ffffff" stroke-width="2.1"></path><path d="M-73,-45q4-6 2-7q-6.2-3.1 -25,18q-18.2,20.5 9,36q24.5,14 30,25q3.1,6.2 -12,25q-3,4 -31,11q-.3,.1 1-1" fill="none" stroke="#ffffff" stroke-width="3"></path><path d="M-30,75q1.1,16.5 2,30" fill="none" stroke="#ffffff" stroke-width="2.2"></path><path d="M-37,74q18.1-7 24-3" fill="none" stroke="#ffffff" stroke-width="2.1"></path><path d="M-13,106q-5,5 -6,9q3.8,4.3 9,7q5,2.6 -12,14" fill="none" stroke="#ffffff" stroke-width="2.4"></path></svg>