<svg viewBox="-342.45 -192.1 454.85 383.6" width="454.85" height="383.6" version="1.1" baseProfile="full" xmlns="http://www.w3.org/2000/svg" class="js-draw--autoresize"><style id="js-draw-style-sheet">path{stroke-linecap:round;stroke-linejoin:round;}text{white-space:pre;}</style><g class="js-draw-image-background js-draw-image-background-grid js-draw-image-background-grid-25"><path d="M112.4,191.5l0-383.6l-454.85,0l0,383.6l454.85,0" fill="none"></path><path d="M-342.8,-175l455.55,0m-455.55,25l455.55,0m-455.55,25l455.55,0m-455.55,25l455.55,0m-455.55,25l455.55,0m-455.55,25l455.55,0m-455.55,25l455.55,0m-455.55,25l455.55,0m-455.55,25l455.55,0m-455.55,25l455.55,0m-455.55,25l455.55,0m-455.55,25l455.55,0m-455.55,25l455.55,0m-455.55,25l455.55,0m-455.55,25l455.55,0m-437.75-367.45l0,384.3m25-384.3l0,384.3m25-384.3l0,384.3m25-384.3l0,384.3m25-384.3l0,384.3m25-384.3l0,384.3m25-384.3l0,384.3m25-384.3l0,384.3m25-384.3l0,384.3m25-384.3l0,384.3m25-384.3l0,384.3m25-384.3l0,384.3m25-384.3l0,384.3m25-384.3l0,384.3m25-384.3l0,384.3m25-384.3l0,384.3m25-384.3l0,384.3m25-384.3l0,384.3" fill="none" stroke="#80808033" stroke-width=".7"></path></g><path d="M-301,-148l0,298l2,0l0-298l2,0l-3-3l-3,3l2,0" fill="#ffffff"></path><path d="M47,148l-347,1l0,2l347,1l0,3l5-5l-5-5l0,3" fill="#ffffff"></path><path d="M-199,58l0-8l-2,0l0,8l2,0" fill="#ffffff"></path><path d="M-199,79l0-10l-2,0l0,10l2,0" fill="#ffffff"></path><path d="M-199,98l0-7l-2,0l0,7l2,0" fill="#ffffff"></path><path d="M-199,119l0-11l-2,0l0,11l2,0" fill="#ffffff"></path><path d="M-199,133l0-3l-2,0l0,3l2,0" fill="#ffffff"></path><path d="M-201,144l0,6l2,0l0-6l-2,0" fill="#ffffff"></path><path d="M-291,49l-9,0l0,2l10,0l-1-2" fill="#ffffff"></path><path d="M-265,49l-15,0l0,2l15,0l0-2" fill="#ffffff"></path><path d="M-251,49l-3,0l0,2l4,0l-1-2" fill="#ffffff"></path><path d="M-227,49l-10,0l0,2l10,0l0-2" fill="#ffffff"></path><path d="M-217,51l17,0l0-2l-17,0l0,2" fill="#ffffff"></path><path d="M-101,95l0,8l2,0l0-8l-2,0" fill="#ffffff"></path><path d="M-101,68l0,8l2-1l0-6l-2-1" fill="#ffffff"></path><path d="M-101,54l0,4l2,0l0-5l-2,1" fill="#ffffff"></path><path d="M-101,37l0,4l2,0l0-4l-2,0" fill="#ffffff"></path><path d="M-101,22l0,5l2,0l0-6l-2,1" fill="#ffffff"></path><path d="M-101,7L-101,9L-99,9L-99,7L-101,7" fill="#ffffff"></path><path d="M-101,-5L-101,-3L-99,-4L-99,-6L-101,-5" fill="#ffffff"></path><path d="M-99,-33l0-17l-2,0l0,18l2-1" fill="#ffffff"></path><path d="M-99,133l0-9l-2,0l0,9l2,0" fill="#ffffff"></path><path d="M-101,143l0,7l2,0l0-7l-2,0" fill="#ffffff"></path><path d="M-274,-49l19,0l0-2l-19,0l0,2" fill="#ffffff"></path><path d="M-284,-51l-16,0l0,2l16,0l0-2" fill="#ffffff"></path><path d="M-234,-51l-10,0l0,2l10,0l0-2" fill="#ffffff"></path><path d="M-211,-51l-12,0l0,2l12,0l0-2" fill="#ffffff"></path><path d="M-185,-51l-16,0l0,2l16,0l0-2" fill="#ffffff"></path><path d="M-156,-51l-6,0l0,2l6,0l0-2" fill="#ffffff"></path><path d="M-131,-51l-14,0l0,2l14,0l0-2" fill="#ffffff"></path><path d="M-120,-49l20,0l0-2l-20,0l0,2" fill="#ffffff"></path><path d="M-99,-49q-4.5,2.6 -3.8-.4q2.4-1.1 5.1-1.4q-1,.6 -3.1,1.5q-.3-2.4 .7-6q.6,2 1.1,5.7q.3,2.1 -3.4,2.5q.2-1.4 1.4-3.3q0,.5 0,1.4" fill="none" stroke="#348034" stroke-width="2.5"></path><path d="M-201,52q-6.1-6.6 2.3-7.8q4.4-.6 -.9,5.3q-2.7,3 -3.3-1.2q1.8-1.1 4.2-1.5q-1,.6 -2.8,1.5q.6,1 1.9,2q-1.3,.5 -3.4,.7" fill="none" stroke="#348034" stroke-width="2.8"></path><path d="M-211,157q-3-1 -1,3q8,19 10,17q5-2 7-24q1,1 1,4" fill="none" stroke="#348034" stroke-width="3"></path><path d="M-192,178q.5,7.8 4.2,4.9q6.8-5.5 -.3-7q-1.8,1.7 -2.9,4.1" fill="none" stroke="#348034" stroke-width="2.8"></path><path d="M-103,158q4,27 8,15q2-6 4-17q0,1 0,3" fill="none" stroke="#348034" stroke-width="4"></path><path d="M-341,52q0-1 0-2q.5,7.2 2.6,20.3" fill="none" stroke="#348034" stroke-width="2.9"></path><path d="M-340,52q15.6-7.9 14.4,1q-.5,3.4 -12.9,6.5" fill="none" stroke="#348034" stroke-width="2.7"></path><path d="M-318,56q-5.9,9.5 1.9,8.1q4.1-1.1 5.1-9.1q0-5 -6-1q-.7,.6 -2,5" fill="none" stroke="#348034" stroke-width="3"></path><path d="M-323,-56q-.2,13.7 0,25" fill="none" stroke="#348034" stroke-width="2.8"></path><path d="M-322,-54q17.9-7.6 11.9,2.5q-5.1,8.3 -8.9,4.5" fill="none" stroke="#348034" stroke-width="2.6"></path><path d="M-321,-162q0,12 1,22" fill="none" stroke="#348034" stroke-width="3"></path><path d="M-324,-164q21.9-7.4 17.4,2.5q-2.9,6.3 -13.9,7" fill="none" stroke="#348034" stroke-width="2.9"></path><path d="M46,158q6,24 8,19q5-13 9-25q-1,2 -2,5" fill="none" stroke="#348034" stroke-width="3"></path><path d="M-200,49l0,2l200,0l0-2l-200,0" fill="#ffffff"></path><path d="M0,49L0,51L100,51L100,49L0,49" fill="#ffffff"></path><path d="M-1,139L-1,150L1,150L1,139L-1,139" fill="#ffffff"></path><path d="M-1,120L-1,129L1,129L1,120L-1,120" fill="#ffffff"></path><path d="M-1,103L-1,110L1,110L1,103L-1,103" fill="#ffffff"></path><path d="M-1,83L-1,93L1,93L1,83L-1,83" fill="#ffffff"></path><path d="M-1,66L-1,68L1,68L1,66L-1,66" fill="#ffffff"></path><path d="M1,55L1,50L-1,50L-1,55L1,55" fill="#ffffff"></path><path d="M-9,156Q-10,190 -4,178Q-1,169 2,161" fill="none" stroke="#348034" stroke-width="3"></path><path d="M11,156q.5,6.1 1,11" fill="none" stroke="#348034" stroke-width="2.7"></path><path d="M1,51Q-6.2,48.7 -5,46.8Q-.4,40.4 2.6,48.6Q4,52.3 -.2,52Q-.6,50.4 -.3,48.4Q-1.5,47.9 -3,48" fill="none" stroke="#348034" stroke-width="2.9"></path><path d="M111,108q-14.3-.3 -19-5" fill="none" stroke="#ff0000" stroke-width="2.8"></path><path d="M70,96q-11.4-5.4 -12-6" fill="none" stroke="#ff0000" stroke-width="2.2"></path><path d="M41,81q-7.5-5.2 -14-9" fill="none" stroke="#ff0000" stroke-width="2.5"></path><path d="M13,65Q8.1,60.6 4,57" fill="none" stroke="#ff0000" stroke-width="2"></path><path d="M-13,38q-7.6-6.7 -14-12" fill="none" stroke="#ff0000" stroke-width="2.2"></path><path d="M-47,15Q-53.4,9.6 -59,4" fill="none" stroke="#ff0000" stroke-width="2"></path><path d="M-72,-15q-6.1-7.1 -11-13" fill="none" stroke="#ff0000" stroke-width="2.2"></path><path d="M-89,-42q-5.1-8.7 -9-16" fill="none" stroke="#ff0000" stroke-width="2.1"></path><path d="M-114,-76q-6.7-9.8 -12-18" fill="none" stroke="#ff0000" stroke-width="2"></path><path d="M-138,-120q-1.7-4.9 -3-9" fill="none" stroke="#ff0000" stroke-width="2"></path><path d="M-149,-153q-2.9-3.2 -5-6" fill="none" stroke="#ff0000" stroke-width="2"></path><path d="M-162,-181q-1.8-5.5 -3-10" fill="none" stroke="#ff0000" stroke-width="2.2"></path><path d="M-177,64q24,16 53,18q37-2 68-6q18-3 26-11q0,0 0,0" fill="none" stroke="#ff0000" stroke-width="4"></path><path d="M-33,60q9,15 9,15q-1-4 7-12q-6-2 -17-1" fill="none" stroke="#ff0000" stroke-width="3"></path><path d="M-49,-53q23,19 32,39q7,17 12,31q1,7 3,13q0-1 0-3" fill="none" stroke="#ff0000" stroke-width="4"></path><path d="M-68,-50q19-11 19-11q1,0 0,7q-2,7 -3,13q-1-2 -3-6q-2-4 -12-4q0,1 0,1" fill="none" stroke="#ff0000" stroke-width="3"></path></svg>